<svg width="500" height="202" viewBox="0 0 500 202" fill="none" xmlns="http://www.w3.org/2000/svg">
<path d="M157.808 59.9346C143.03 70.8271 121.608 76.6388 103.166 76.6388C77.3053 76.6388 54.0258 67.0748 36.4128 51.167C35.029 49.9162 36.2694 48.211 37.9297 49.1854C56.9368 60.2438 80.4391 66.8986 104.715 66.8986C121.088 66.8986 139.1 63.5107 155.661 56.4811C158.162 55.4186 160.255 58.1189 157.808 59.9346Z" fill="#FF9900"/>
<path d="M163.914 52.9085C162.033 50.495 151.427 51.7683 146.667 52.3332C145.218 52.5112 144.995 51.2483 146.303 50.3413C154.749 44.3966 168.61 46.1121 170.225 48.1058C171.842 50.1098 169.805 64.0032 161.867 70.6337C160.649 71.653 159.486 71.1106 160.029 69.7596C161.812 65.3093 165.807 55.3358 163.914 52.9102" fill="#FF9900"/>
<path d="M147.029 8.36491V2.58607C147.029 1.7119 147.692 1.12451 148.49 1.12451H174.361C175.192 1.12451 175.855 1.72226 175.855 2.58607V7.53393C175.845 8.36491 175.147 9.44985 173.907 11.1654L160.5 30.3055C165.483 30.1846 170.74 30.9257 175.258 33.4722C176.277 34.0475 176.553 34.8888 176.631 35.7198V41.8857C176.631 42.727 175.702 43.7117 174.727 43.2038C166.768 39.0299 156.195 38.5773 147.395 43.2487C146.498 43.7359 145.557 42.7615 145.557 41.9202V36.0636C145.557 35.1221 145.567 33.5171 146.509 32.0901L162.04 9.8161H148.523C147.692 9.8161 147.029 9.22871 147.029 8.36664" fill="#221F1F"/>
<path d="M52.5839 44.4224H44.7129C43.9597 44.3671 43.3619 43.8022 43.3066 43.0835V2.68691C43.3066 1.87839 43.9821 1.23745 44.8235 1.23745H52.1623C52.9259 1.27028 53.5358 1.85766 53.5911 2.58844V7.86973H53.7345C55.6504 2.76638 59.2472 0.385742 64.0966 0.385742C68.946 0.385742 72.1006 2.76638 74.3137 7.86973C76.2175 2.76638 80.5469 0.385742 85.1838 0.385742C88.4835 0.385742 92.0907 1.7471 94.2951 4.80323C96.7863 8.20143 96.2767 13.1389 96.2767 17.4683L96.2663 42.9626C96.2663 43.7711 95.5908 44.4242 94.7495 44.4242H86.8889C86.1028 44.3689 85.4723 43.7383 85.4723 42.9626V21.5524C85.4723 19.8472 85.6278 15.5973 85.2511 13.9803C84.6637 11.2679 82.905 10.5043 80.6246 10.5043C78.7208 10.5043 76.7271 11.7776 75.9203 13.8144C75.1118 15.8513 75.1896 19.2616 75.1896 21.5524V42.9626C75.1896 43.7711 74.5141 44.4242 73.6727 44.4242H65.8121C65.0157 44.3689 64.3955 43.7383 64.3955 42.9626L64.3851 21.5524C64.3851 17.0468 65.1263 10.4162 59.5357 10.4162C53.9452 10.4162 54.1007 16.8809 54.1007 21.5524V42.9626C54.1007 43.7711 53.4252 44.4242 52.5839 44.4242" fill="#221F1F"/>
<path d="M198.141 0.383301C209.819 0.383301 216.141 10.4138 216.141 23.1652C216.141 35.9167 209.156 45.2613 198.141 45.2613C187.126 45.2613 180.428 35.2326 180.428 22.7333C180.428 10.2341 186.751 0.383301 198.141 0.383301ZM198.208 8.63089C192.407 8.63089 192.042 16.5347 192.042 21.4618C192.042 26.3889 191.965 36.9377 198.143 36.9377C204.32 36.9377 204.53 28.4362 204.53 23.2551C204.53 19.8448 204.386 15.7711 203.356 12.5387C202.47 9.72619 200.712 8.63089 198.208 8.63089Z" fill="#221F1F"/>
<path d="M231.216 44.4217H223.378C222.592 44.3664 221.962 43.7359 221.962 42.9602L221.951 2.55317C222.017 1.81203 222.672 1.23501 223.468 1.23501H230.764C231.45 1.26784 232.014 1.73256 232.17 2.36487V8.54279H232.313C234.516 3.0179 237.605 0.383301 243.04 0.383301C246.571 0.383301 250.014 1.65655 252.229 5.14286C254.288 8.37521 254.288 13.8103 254.288 17.7181V43.1467C254.2 43.8551 253.547 44.42 252.772 44.42H244.878C244.158 44.3647 243.56 43.8326 243.484 43.1467V21.2061C243.484 16.7887 243.994 10.3239 238.559 10.3239C236.643 10.3239 234.884 11.6076 234.008 13.5563C232.901 16.025 232.757 18.4817 232.757 21.2061V42.9584C232.747 43.7669 232.059 44.42 231.218 44.42" fill="#221F1F"/>
<path d="M126.408 25.1298V23.4246C120.717 23.4246 114.707 24.6426 114.707 31.3509C114.707 34.7491 116.467 37.052 119.489 37.052C121.704 37.052 123.685 35.6906 124.936 33.4758C126.486 30.7531 126.408 28.1945 126.408 25.128M134.345 44.3148C133.825 44.7795 133.071 44.8124 132.484 44.5031C129.872 42.3332 129.407 41.3261 127.968 39.2564C123.651 43.6618 120.595 44.9799 114.994 44.9799C108.373 44.9799 103.215 40.8959 103.215 32.7139C103.215 26.327 106.68 21.9751 111.606 19.8502C115.878 17.9688 121.845 17.6354 126.406 17.1154V16.0961C126.406 14.2251 126.55 12.012 125.454 10.395C124.492 8.94554 122.654 8.34779 121.037 8.34779C118.036 8.34779 115.358 9.88709 114.705 13.0745C114.572 13.7828 114.052 14.4808 113.344 14.5136L105.706 13.6947C105.063 13.5513 104.355 13.0313 104.533 12.0449C106.293 2.79008 114.652 0 122.134 0C125.964 0 130.967 1.01929 133.99 3.91821C137.82 7.49435 137.456 12.266 137.456 17.4575V29.7235C137.456 33.4102 138.983 35.0255 140.422 37.0191C140.932 37.7275 141.042 38.5809 140.4 39.1113C138.795 40.4502 135.939 42.9414 134.367 44.3373L134.345 44.3148Z" fill="#221F1F"/>
<path d="M23.1914 25.1298V23.4246C17.5006 23.4246 11.4903 24.6426 11.4903 31.3509C11.4903 34.7491 13.2507 37.052 16.2723 37.052C18.4871 37.052 20.4686 35.6906 21.7194 33.4758C23.2691 30.7531 23.1914 28.1945 23.1914 25.128M31.1297 44.3148C30.6097 44.7795 29.8564 44.8124 29.2691 44.5031C26.6569 42.3332 26.1922 41.3261 24.7531 39.2564C20.4358 43.6618 17.3797 44.9799 11.7788 44.9799C5.15862 44.9782 0 40.8942 0 32.7122C0 26.3253 3.46557 21.9734 8.39097 19.8485C12.6633 17.9671 18.6305 17.6337 23.1914 17.1137V16.0944C23.1914 14.2234 23.3347 12.0103 22.2394 10.3933C21.2772 8.94381 19.439 8.34606 17.822 8.34606C14.8211 8.34606 12.1433 9.88536 11.4903 13.0728C11.3573 13.7811 10.8373 14.4791 10.1289 14.5119L2.4912 13.693C1.84854 13.5496 1.14022 13.0296 1.31816 12.0431C3.07686 2.79008 11.435 0 18.919 0C22.7491 0 27.7522 1.01929 30.7755 3.91821C34.6056 7.49435 34.2411 12.266 34.2411 17.4575V29.7235C34.2411 33.4102 35.7683 35.0255 37.2074 37.0191C37.717 37.7275 37.8276 38.5809 37.1849 39.1113C35.58 40.4502 32.7243 42.9414 31.1521 44.3373L31.1297 44.3148Z" fill="#221F1F"/>
<path d="M7.51562 105.801H19.5277L43.398 181.441L64.8652 106.034H77.1882L98.0352 181.441L121.75 106.034H133.531L103.769 199.188H91.8348L70.5231 122.386L49.1319 199.266H37.2753L7.51562 105.801Z" fill="#EDAD17"/>
<path d="M148.536 105.952H138.771V199.261H148.536V105.952Z" fill="#EDAD17"/>
<path d="M343.784 71.1562H334.02V199.263H343.784V71.1562Z" fill="#EDAD17"/>
<path d="M373.542 106.07H363.777V199.264H373.542V106.07Z" fill="#EDAD17"/>
<path d="M175.772 129.205C175.772 120.645 185.592 113.705 197.704 113.705C209.816 113.705 218.629 120.429 220.154 129.205L220.78 133.738H232.463C232.463 133.738 231.069 104.269 200.32 104.269H193.91C189.278 104.269 184.676 105.115 180.385 106.855C172.773 109.942 163.817 116.65 163.817 131.122C163.817 163.46 222.222 152.996 223.105 173.611C223.919 192.618 198.141 191.222 198.141 191.222C198.141 191.222 173.642 190.524 173.642 169.89H161.958C161.958 169.89 160.272 201.046 198.925 201.046C237.579 201.046 234.614 174.366 234.614 174.366C234.614 174.366 235.022 157.918 220.14 152.657C205.905 147.625 175.772 144.606 175.772 129.203V129.205Z" fill="#EDAD17"/>
<path d="M396.823 129.204C396.823 120.643 406.643 113.704 418.755 113.704C430.867 113.704 439.679 120.427 441.205 129.204L441.83 133.737H453.514C453.514 133.737 452.12 104.267 421.37 104.267H414.961C410.329 104.267 405.727 105.114 401.436 106.854C393.824 109.941 384.868 116.649 384.868 131.121C384.868 163.459 443.273 152.994 444.156 173.61C444.969 192.617 419.192 191.221 419.192 191.221C419.192 191.221 394.693 190.523 394.693 169.889H383.009C383.009 169.889 381.323 201.044 419.976 201.044C458.63 201.044 455.665 174.365 455.665 174.365C455.665 174.365 456.073 157.916 441.191 152.656C426.956 147.623 396.823 144.605 396.823 129.202V129.204Z" fill="#EDAD17"/>
<path d="M286.541 104.326C270.467 104.326 261.931 111.962 257.401 120.243V71.1562H245.543V199.11H257.401V141.717C257.434 138.856 258.552 114.635 286.774 114.635C286.774 114.635 296.849 114.054 302.429 120.06C306.391 124.325 308.087 132.428 308.087 144.55V199.187H318.937V130.213C318.937 130.213 320.409 104.328 286.542 104.328L286.541 104.326Z" fill="#EDAD17"/>
<path d="M484.793 116.108H500.001V106.033H484.793V80.4971H475.028V106.033H463.963V116.108H475.028V184.658C475.028 197.155 478.475 201.049 487.135 201.049C495.796 201.049 499.864 199.189 499.864 199.189V190.064C483.996 195.875 484.793 184.658 484.793 184.658V116.108Z" fill="#EDAD17"/>
<path d="M357.559 45.4392C359.248 47.0718 361.09 48.5351 363.066 49.8083C364.619 50.8086 366.164 51.6586 367.681 52.379C366.44 53.6574 365.236 55.0723 364.101 56.6376C362.766 58.4792 361.593 60.4677 360.596 62.5788C358.942 60.922 357.151 59.4294 355.238 58.1216C353.701 57.0712 352.16 56.1797 350.634 55.423C351.844 54.1999 353.011 52.8472 354.102 51.3563C355.421 49.5492 356.579 47.5676 357.56 45.4392M353.913 23.49C353.913 23.49 355.463 36.8979 348.102 46.9733C341.252 56.3456 330.378 58.9439 328.896 59.2618C329.416 59.1616 331.1 58.8765 333.521 58.8765C337.84 58.8765 344.5 59.7835 351.047 64.2563C362.052 71.7731 364.144 84.0184 364.144 84.0184C364.144 84.0184 362.517 71.4639 370.111 61.0015C376.958 51.5705 387.142 48.751 389.082 48.288C388.398 48.4297 386.674 48.7269 384.259 48.7269C380.031 48.7269 373.686 47.8164 367.088 43.5648C355.541 36.124 353.913 23.4917 353.913 23.4917V23.49ZM389.409 48.212C389.409 48.212 389.295 48.2345 389.082 48.2846C389.296 48.2397 389.409 48.212 389.409 48.212ZM328.896 59.2601C328.784 59.2808 328.727 59.2946 328.727 59.2946C328.727 59.2946 328.785 59.2842 328.896 59.2601Z" fill="#1FA4D1"/>
<path d="M380.992 82.6511C381.697 83.3318 382.464 83.9416 383.286 84.472C383.934 84.8883 384.577 85.2425 385.209 85.5431C384.692 86.0752 384.19 86.666 383.716 87.3174C383.16 88.0844 382.671 88.9137 382.255 89.793C381.565 89.102 380.819 88.48 380.023 87.9358C379.382 87.4987 378.739 87.1273 378.103 86.8112C378.608 86.3015 379.093 85.7383 379.548 85.1164C380.097 84.3631 380.581 83.5373 380.99 82.6511M379.472 73.5034C379.472 73.5034 380.118 79.0905 377.049 83.2903C374.195 87.1964 369.664 88.2796 369.045 88.4109C369.261 88.3695 369.965 88.2503 370.973 88.2503C372.774 88.2503 375.548 88.6286 378.278 90.4927C382.865 93.6248 383.737 98.7282 383.737 98.7282C383.737 98.7282 383.058 93.4953 386.225 89.1348C389.079 85.2045 393.322 84.0297 394.132 83.8362C393.847 83.895 393.128 84.0194 392.123 84.0194C390.361 84.0194 387.716 83.6393 384.967 81.8685C380.154 78.7674 379.477 73.5034 379.477 73.5034H379.472ZM394.265 83.8069C394.265 83.8069 394.218 83.8155 394.129 83.838C394.218 83.8189 394.265 83.8069 394.265 83.8069Z" fill="#92363B"/>
<path d="M399.978 57.7034C401.051 58.74 402.219 59.6677 403.473 60.4762C404.46 61.112 405.439 61.651 406.402 62.1088C405.614 62.9208 404.85 63.8191 404.13 64.8108C403.282 65.9786 402.537 67.2432 401.905 68.5821C400.856 67.53 399.718 66.5833 398.505 65.754C397.529 65.0872 396.551 64.5223 395.582 64.042C396.35 63.2646 397.09 62.4077 397.783 61.4609C398.621 60.3138 399.355 59.0561 399.978 57.7051M397.665 43.772C397.665 43.772 398.648 52.2822 393.975 58.6778C389.627 64.6276 382.725 66.2758 381.785 66.4779C382.115 66.414 383.184 66.2343 384.72 66.2343C387.462 66.2343 391.688 66.8096 395.844 69.6481C402.829 74.4197 404.158 82.1922 404.158 82.1922C404.158 82.1922 403.124 74.2228 407.946 67.5818C412.291 61.5957 418.756 59.8059 419.988 59.5122C419.554 59.602 418.459 59.7903 416.926 59.7903C414.243 59.7903 410.215 59.2116 406.027 56.5131C398.697 51.7898 397.663 43.772 397.663 43.772H397.665ZM420.197 59.4638C420.197 59.4638 420.124 59.4776 419.989 59.5105C420.126 59.4828 420.197 59.4638 420.197 59.4638ZM381.787 66.4762C381.716 66.49 381.68 66.4986 381.68 66.4986C381.68 66.4986 381.716 66.4917 381.787 66.4762Z" fill="#EDAD17"/>
</svg>
