<svg width="345" height="82" viewBox="0 0 345 82" fill="none" xmlns="http://www.w3.org/2000/svg">
<path d="M35.116 76.1161C54.5101 76.1161 70.2321 60.3941 70.2321 41.0001C70.2321 21.606 54.5101 5.88403 35.116 5.88403C15.722 5.88403 0 21.606 0 41.0001C0 60.3941 15.722 76.1161 35.116 76.1161Z" fill="#212121"/>
<path d="M39.2841 23.2703L37.2139 19.9026H28.6425C20.6001 19.9026 14.0801 26.4227 14.0801 34.4651V45.6504C14.5418 38.9486 20.1237 33.6561 26.9425 33.6561C27.1458 33.6561 27.3463 33.6615 27.5469 33.6709C27.6465 33.6615 27.7461 33.6561 27.8484 33.6561H37.2153L41.4687 26.8238L39.2841 23.2703Z" fill="#FF6500"/>
<path d="M56.1551 34.4516C56.1483 26.4146 49.631 19.9026 41.5926 19.9026H41.4688V33.6561H42.4917C44.2684 33.6561 45.7073 35.0963 45.7073 36.8717V45.2008C45.7073 46.886 44.4111 48.267 42.7623 48.4043C42.9426 48.4124 43.1243 48.4164 43.3061 48.4164C50.0671 48.4164 55.6113 43.2128 56.1551 36.5918V34.4651C56.1551 34.4651 56.1551 34.4556 56.1551 34.4516Z" fill="#FFD183"/>
<path d="M43.3057 48.4165C43.124 48.4165 42.9423 48.4111 42.7619 48.4044C42.6718 48.4124 42.5816 48.4165 42.49 48.4165H33.0034L28.8105 55.2394L31.018 58.7848L33.0801 62.096H41.5923C49.6347 62.096 56.1547 55.5759 56.1547 47.5335V36.5931C55.6109 43.2142 50.0667 48.4178 43.3057 48.4178V48.4165Z" fill="#FFA000"/>
<path d="M27.8484 48.4166C26.0717 48.4166 24.6328 46.9764 24.6328 45.201V36.8719C24.6328 35.1974 25.9128 33.8232 27.5469 33.6697C27.3463 33.6603 27.1444 33.6549 26.9425 33.6549C20.1237 33.6549 14.5418 38.9474 14.0801 45.6492V47.5323C14.0801 55.5747 20.6001 62.0947 28.6425 62.0947H28.8108V48.4152H27.8471L27.8484 48.4166Z" fill="#FFB188"/>
<path d="M81.0875 53.4718H86.108C86.3929 53.4718 86.6506 53.3029 86.7632 53.0401L87.765 50.7158C87.8964 50.4121 88.1967 50.2141 88.5278 50.2141H96.5568L94.2411 44.1117L91.451 44.1288C90.8486 44.1322 90.4322 43.5281 90.6506 42.9667L92.1865 39.0298L88.8793 30.3984L80.2922 52.3046C80.0721 52.866 80.4868 53.4718 81.0892 53.4718H81.0875Z" fill="#212121"/>
<path d="M98.9976 53.4716L89.8184 29.5058C89.8184 29.5058 90.8798 28.528 92.8064 28.528C94.733 28.528 96.2638 29.458 97.0334 31.4221C97.6921 33.1013 103.433 48.0467 105.078 52.33C105.289 52.8812 104.883 53.4716 104.293 53.4716H98.9958H98.9976Z" fill="#212121"/>
<path d="M122.424 34.808H100.127V29.1834C100.127 28.8301 100.414 28.5452 100.765 28.5452H121.784C122.137 28.5452 122.422 28.8319 122.422 29.1834V34.808H122.424Z" fill="#212121"/>
<path d="M114.832 53.4717H107.767C107.303 53.4717 106.928 53.0963 106.928 52.6321V35.9973H115.672V52.6321C115.672 53.0963 115.296 53.4717 114.832 53.4717Z" fill="#212121"/>
<path d="M136.18 37.8385H133.105C132.714 37.8385 132.397 37.5211 132.397 37.1303V29.1798C132.397 28.8198 132.105 28.528 131.745 28.528H124.443C124.083 28.528 123.791 28.8198 123.791 29.1798V52.8198C123.791 53.1798 124.083 53.4716 124.443 53.4716H131.745C132.105 53.4716 132.397 53.1798 132.397 52.8198V44.7839C132.397 44.3931 132.714 44.0757 133.105 44.0757H136.18V37.8368V37.8385Z" fill="#212121"/>
<path d="M145.314 53.4716H137.367V28.528H145.314C145.727 28.528 146.062 28.8624 146.062 29.2754V52.7242C146.062 53.1372 145.727 53.4716 145.314 53.4716Z" fill="#212121"/>
<path d="M152.236 49.3197V33.5552H156.803L160.373 45.26L164.055 33.5552H168.414V49.3197H165.463V36.7309L161.593 49.3197H159.207L155.187 36.7309V49.3197H152.236Z" fill="#FF6500"/>
<path d="M177.137 36.8862H176.11C173.028 36.8862 170.529 39.3845 170.529 42.4664V43.9937C170.529 47.0757 173.028 49.5739 176.11 49.5739H177.137C180.219 49.5739 182.717 47.0757 182.717 43.9937V42.4664C182.717 39.3845 180.219 36.8862 177.137 36.8862ZM179.369 44.5193C179.369 46.0364 178.139 47.2651 176.623 47.2651C175.106 47.2651 173.877 46.0347 173.877 44.5193V41.9425C173.877 40.4255 175.108 39.1968 176.623 39.1968C178.14 39.1968 179.369 40.4272 179.369 41.9425V44.5193Z" fill="#FF6500"/>
<path d="M174.832 35.9972V35.6405L177.641 32.475H180.554V32.9255L176.796 35.9972H174.832Z" fill="#FF6500"/>
<path d="M183.141 37.1627H186.497L189.415 46.7327L192.422 37.1627H195.767L191.308 49.3504H187.475L183.141 37.1627Z" fill="#FF6500"/>
<path d="M200.478 37.1371H197.271V49.3504H200.478V37.1371Z" fill="#FF6500"/>
<path d="M200.478 32.6661H197.271V35.0586H200.478V32.6661Z" fill="#FF6500"/>
<path d="M206.402 32.6661H203.195V49.3504H206.402V32.6661Z" fill="#FF6500"/>
<path d="M221.348 30.1597L213.752 51.8406H216.952L224.545 30.1597H221.348Z" fill="black"/>
<path d="M229.194 37.7551C229.655 37.2943 230.199 36.9411 230.829 36.6971C231.459 36.4513 232.148 36.3285 232.901 36.3285C233.698 36.3285 234.435 36.4855 235.111 36.7995C235.786 37.1135 236.399 37.5862 236.952 38.2141L239.346 36.0042C238.578 35.0691 237.631 34.3592 236.503 33.8745C235.375 33.3916 234.112 33.1493 232.716 33.1493C231.459 33.1493 230.3 33.3524 229.24 33.7585C228.182 34.1647 227.257 34.7449 226.467 35.4957C225.677 36.2483 225.063 37.1305 224.626 38.1425C224.189 39.1544 223.971 40.2687 223.971 41.4804C223.971 42.692 224.189 43.8046 224.626 44.8182C225.063 45.8319 225.674 46.7141 226.455 47.465C227.239 48.2176 228.162 48.7961 229.228 49.2022C230.295 49.6083 231.45 49.8114 232.693 49.8114C234.104 49.8114 235.373 49.5657 236.501 49.0742C237.629 48.5827 238.577 47.8694 239.344 46.9343L236.95 44.7244C236.397 45.3694 235.785 45.849 235.109 46.1629C234.433 46.4769 233.698 46.6339 232.899 46.6339C232.146 46.6339 231.457 46.5111 230.827 46.2653C230.198 46.0196 229.653 45.6664 229.193 45.2073C228.732 44.7466 228.375 44.2022 228.123 43.5725C227.87 42.9428 227.742 42.2449 227.742 41.4786C227.742 40.7124 227.868 40.0145 228.123 39.3848C228.375 38.7551 228.732 38.2107 229.193 37.75L229.194 37.7551Z" fill="black"/>
<path d="M244.798 31.9669C244.383 31.6068 243.846 31.4259 243.187 31.4259C242.528 31.4259 241.991 31.617 241.576 32.001C241.162 32.3849 240.955 32.8611 240.955 33.4276C240.955 33.9942 241.162 34.472 241.576 34.8542C241.991 35.2382 242.527 35.4293 243.187 35.4293C243.848 35.4293 244.402 35.2331 244.81 34.8423C245.216 34.4515 245.419 33.9566 245.419 33.3576C245.419 32.7894 245.213 32.3252 244.798 31.9652V31.9669Z" fill="black"/>
<path d="M244.983 37.1562H241.393V49.5385H244.983V37.1562Z" fill="black"/>
<path d="M257.286 37.7431C256.312 37.2295 255.218 36.9718 254.006 36.9718C252.795 36.9718 251.621 37.2448 250.622 37.7892C249.624 38.3336 248.839 39.0861 248.264 40.0452C247.689 41.0042 247.4 42.1049 247.4 43.3472C247.4 44.5896 247.692 45.6681 248.274 46.6271C248.858 47.5861 249.682 48.3421 250.749 48.895C251.815 49.4479 253.054 49.7244 254.465 49.7244C255.585 49.7244 256.574 49.552 257.435 49.2056C258.293 48.8609 259.008 48.366 259.574 47.721L257.665 45.6493C257.25 46.0486 256.795 46.3472 256.296 46.5469C255.798 46.7466 255.218 46.8455 254.559 46.8455C253.822 46.8455 253.182 46.7107 252.638 46.4428C252.093 46.1749 251.672 45.7841 251.371 45.2687C251.209 44.9906 251.092 44.6868 251.018 44.3592H260.382C260.397 44.2056 260.412 44.0401 260.428 43.8643C260.443 43.6885 260.452 43.5298 260.452 43.3933C260.452 42.0588 260.167 40.9121 259.6 39.953C259.032 38.994 258.26 38.2585 257.288 37.7431H257.286ZM252.407 40.0913C252.875 39.8233 253.416 39.6885 254.03 39.6885C254.644 39.6885 255.18 39.8233 255.641 40.0913C256.102 40.3592 256.462 40.7312 256.723 41.2073C256.895 41.523 257.01 41.8762 257.068 42.2653H250.972C251.032 41.8797 251.144 41.5298 251.313 41.2175C251.574 40.7346 251.938 40.3592 252.407 40.0896V40.0913Z" fill="black"/>
<path d="M273.006 37.5588C272.231 37.168 271.352 36.9718 270.371 36.9718C269.313 36.9718 268.369 37.1937 267.54 37.639C267.05 37.9018 266.63 38.2329 266.274 38.6305V37.1561H262.844V49.5384H266.434V43.4155C266.434 42.6476 266.56 42.0196 266.815 41.5281C267.067 41.0367 267.421 40.6732 267.873 40.4343C268.325 40.1971 268.835 40.0776 269.403 40.0776C270.2 40.0776 270.818 40.3148 271.257 40.7909C271.694 41.267 271.912 42.0025 271.912 43.0008V49.5366H275.502V42.4479C275.502 41.1902 275.281 40.1578 274.835 39.3523C274.39 38.5469 273.781 37.9479 273.006 37.5571V37.5588Z" fill="black"/>
<path d="M283.144 40.3336C283.635 40.0571 284.186 39.9189 284.801 39.9189C285.369 39.9189 285.895 40.0571 286.378 40.3336C286.86 40.61 287.263 41.0401 287.586 41.622L290.371 40.1254C289.91 39.1134 289.197 38.3336 288.231 37.7892C287.265 37.2448 286.128 36.9718 284.825 36.9718C283.521 36.9718 282.301 37.2448 281.258 37.7892C280.214 38.3336 279.398 39.0861 278.808 40.0452C278.217 41.0042 277.922 42.1049 277.922 43.3472C277.922 44.5896 278.217 45.6715 278.808 46.639C279.398 47.6066 280.215 48.3609 281.258 48.907C282.301 49.4513 283.49 49.7244 284.825 49.7244C286.159 49.7244 287.265 49.4513 288.231 48.907C289.198 48.3626 289.912 47.5913 290.371 46.5947L287.586 45.0759C287.263 45.6749 286.86 46.1083 286.378 46.3762C285.895 46.6442 285.369 46.779 284.801 46.779C284.186 46.779 283.635 46.6408 283.144 46.3643C282.652 46.0878 282.265 45.6971 281.982 45.1902C281.698 44.6834 281.555 44.0708 281.555 43.3489C281.555 42.6271 281.697 42.0145 281.982 41.5076C282.265 41.0008 282.652 40.61 283.144 40.3336Z" fill="black"/>
<path d="M295.94 37.1562H292.35V49.5385H295.94V37.1562Z" fill="black"/>
<path d="M295.757 31.9669C295.342 31.6068 294.805 31.4259 294.146 31.4259C293.487 31.4259 292.95 31.617 292.535 32.001C292.121 32.3849 291.914 32.8611 291.914 33.4276C291.914 33.9942 292.121 34.472 292.535 34.8542C292.95 35.2382 293.486 35.4293 294.146 35.4293C294.807 35.4293 295.361 35.2331 295.769 34.8423C296.175 34.4515 296.378 33.9566 296.378 33.3576C296.378 32.7894 296.172 32.3252 295.757 31.9652V31.9669Z" fill="black"/>
<path d="M308.665 38.3081C307.621 37.419 306.156 36.9736 304.269 36.9736C303.288 36.9736 302.32 37.1033 301.37 37.3644C300.418 37.6255 299.605 37.9941 298.93 38.4685L300.218 40.977C300.663 40.6238 301.204 40.3439 301.841 40.1375C302.477 39.931 303.126 39.8269 303.786 39.8269C304.754 39.8269 305.47 40.0419 305.938 40.4719C306.406 40.902 306.639 41.5009 306.639 42.2672H303.786C302.528 42.2672 301.508 42.4241 300.725 42.7381C299.941 43.0521 299.37 43.4856 299.01 44.0385C298.65 44.5914 298.469 45.2347 298.469 45.9719C298.469 46.7091 298.653 47.3149 299.022 47.8815C299.39 48.4497 299.919 48.8985 300.61 49.2279C301.302 49.5573 302.129 49.7228 303.097 49.7228C304.185 49.7228 305.076 49.5163 305.766 49.1016C306.233 48.8218 306.6 48.4497 306.87 47.9941V49.5402H310.23V42.4736C310.23 40.5863 309.708 39.1972 308.665 38.3081ZM305.604 46.8815C305.127 47.1665 304.592 47.3081 303.993 47.3081C303.363 47.3081 302.868 47.1733 302.508 46.9054C302.148 46.6375 301.967 46.2723 301.967 45.8115C301.967 45.3968 302.124 45.0521 302.44 44.7757C302.754 44.4992 303.334 44.361 304.177 44.361H306.639V45.6272C306.424 46.1801 306.08 46.5982 305.604 46.8815Z" fill="black"/>
<path d="M324.432 34.1307C323.387 33.6631 322.145 33.4293 320.703 33.4293H313.729V49.5402H317.457V45.0983H320.703C322.145 45.0983 323.387 44.8645 324.432 44.3969C325.474 43.9293 326.28 43.257 326.848 42.3832C327.416 41.5095 327.7 40.4737 327.7 39.2757C327.7 38.0778 327.415 37.0198 326.848 36.146C326.28 35.2723 325.474 34.6 324.432 34.1324V34.1307ZM323.073 41.3218C322.505 41.8133 321.647 42.059 320.495 42.059H317.457V36.4669H320.495C321.645 36.4669 322.505 36.7126 323.073 37.2041C323.641 37.6955 323.925 38.3849 323.925 39.2757C323.925 40.1665 323.64 40.8337 323.073 41.3235V41.3218Z" fill="black"/>
<path d="M344.615 49.5384L341.016 44.3729C341.027 44.3678 341.039 44.3644 341.049 44.3592C342.091 43.8985 342.897 43.2346 343.465 42.3678C344.033 41.5009 344.317 40.4684 344.317 39.2722C344.317 37.4463 343.696 36.0162 342.453 34.9804C341.211 33.9446 339.469 33.4275 337.228 33.4275H330.346V49.5384H334.074V45.0504H337.32C337.38 45.0504 337.436 45.0469 337.494 45.0469L340.588 49.5384H344.615ZM339.69 37.2022C340.259 37.6937 340.542 38.3831 340.542 39.2739C340.542 40.1647 340.257 40.8353 339.69 41.3336C339.122 41.8319 338.264 42.0811 337.112 42.0811H334.074V36.465H337.112C338.262 36.465 339.122 36.7108 339.69 37.2022Z" fill="black"/>
</svg>
