<svg xmlns="http://www.w3.org/2000/svg" width="326.192" height="73.429" viewBox="0 0 326.192 73.429"><g transform="translate(1142.192 583.214)"><rect width="300" height="67" transform="translate(-1116 -582)" fill="none"/><path d="M2.051,23H8.707c5.063,0,7.934-3.094,7.934-8.555v-.023c0-5.3-2.906-8.332-7.934-8.332H2.051ZM5.59,20.082V9.008H8.145c3.07,0,4.887,1.992,4.887,5.473V14.5c0,3.609-1.758,5.578-4.887,5.578ZM25.383,23.27c3.973,0,6.363-2.508,6.363-6.715v-.023c0-4.172-2.426-6.715-6.363-6.715s-6.363,2.555-6.363,6.715v.023C19.02,20.75,21.41,23.27,25.383,23.27Zm0-2.684c-1.828,0-2.859-1.488-2.859-4.031v-.023c0-2.52,1.043-4.031,2.859-4.031s2.859,1.512,2.859,4.031v.023C28.242,19.1,27.2,20.586,25.383,20.586ZM34.523,23h3.422V15.535c0-1.746.961-2.883,2.543-2.883,1.617,0,2.367.961,2.367,2.777V23h3.422V14.656c0-3.082-1.547-4.84-4.418-4.84a3.749,3.749,0,0,0-3.7,2.273h-.211V10.1H34.523Zm18.574.2a4.044,4.044,0,0,0,3.7-1.91h.211V23h3.375V14.188c0-2.754-1.934-4.371-5.355-4.371-3.246,0-5.379,1.5-5.648,3.762l-.012.105h3.164l.023-.047c.27-.762,1.055-1.2,2.285-1.2,1.406,0,2.168.633,2.168,1.746v1.066l-3.117.188c-3.211.188-5,1.547-5,3.867v.023C48.891,21.676,50.637,23.2,53.1,23.2Zm-.867-4.078V19.1c0-.937.715-1.488,2.18-1.582l2.6-.164V18.3a2.549,2.549,0,0,1-2.766,2.4C53.063,20.7,52.23,20.105,52.23,19.121ZM69.422,23.27c3.363,0,5.379-1.8,5.73-4.617l.012-.07H72l-.023.047a2.344,2.344,0,0,1-2.543,1.957c-1.828,0-2.848-1.441-2.848-4.055v-.023c0-2.578,1.008-4.008,2.848-4.008a2.37,2.37,0,0,1,2.543,2.074l.012.023h3.188v-.035c-.3-2.883-2.332-4.746-5.754-4.746-4.043,0-6.316,2.449-6.316,6.691v.023C63.105,20.82,65.391,23.27,69.422,23.27ZM79.582,8.117a1.9,1.9,0,1,0-1.934-1.9A1.911,1.911,0,0,0,79.582,8.117ZM77.859,23h3.422V10.1H77.859Zm12.6.27c3.973,0,6.363-2.508,6.363-6.715v-.023c0-4.172-2.426-6.715-6.363-6.715s-6.363,2.555-6.363,6.715v.023C84.094,20.75,86.484,23.27,90.457,23.27Zm0-2.684c-1.828,0-2.859-1.488-2.859-4.031v-.023c0-2.52,1.043-4.031,2.859-4.031s2.859,1.512,2.859,4.031v.023C93.316,19.1,92.273,20.586,90.457,20.586ZM99.6,23h3.422V15.535c0-1.746.961-2.883,2.543-2.883,1.617,0,2.367.961,2.367,2.777V23h3.422V14.656c0-3.082-1.547-4.84-4.418-4.84a3.749,3.749,0,0,0-3.7,2.273h-.211V10.1H99.6Zm21.246,4.277h3.422v-6.34h.211a4.1,4.1,0,0,0,3.867,2.262c3.27,0,5.238-2.5,5.238-6.645v-.023c0-4.113-2.016-6.645-5.238-6.645a4.042,4.042,0,0,0-3.867,2.2h-.211V10.1h-3.422Zm6.328-6.914c-1.793,0-2.941-1.441-2.941-3.809v-.023c0-2.367,1.137-3.809,2.941-3.809s2.93,1.441,2.93,3.809v.023C130.1,18.922,128.977,20.363,127.172,20.363ZM142.1,23.27c3.973,0,6.363-2.508,6.363-6.715v-.023c0-4.172-2.426-6.715-6.363-6.715s-6.363,2.555-6.363,6.715v.023C135.738,20.75,138.129,23.27,142.1,23.27Zm0-2.684c-1.828,0-2.859-1.488-2.859-4.031v-.023c0-2.52,1.043-4.031,2.859-4.031s2.859,1.512,2.859,4.031v.023C144.961,19.1,143.918,20.586,142.1,20.586ZM151.242,23h3.422V15.781a2.843,2.843,0,0,1,3.176-2.941,7.116,7.116,0,0,1,1.57.2V10.051a5.124,5.124,0,0,0-1.277-.164,3.118,3.118,0,0,0-3.258,2.215h-.211v-2h-3.422ZM7.395,53.27c3.363,0,5.379-1.8,5.73-4.617l.012-.07H9.973l-.023.047a2.344,2.344,0,0,1-2.543,1.957c-1.828,0-2.848-1.441-2.848-4.055v-.023c0-2.578,1.008-4.008,2.848-4.008a2.37,2.37,0,0,1,2.543,2.074l.012.023h3.188v-.035c-.3-2.883-2.332-4.746-5.754-4.746-4.043,0-6.316,2.449-6.316,6.691v.023C1.078,50.82,3.363,53.27,7.395,53.27ZM15.809,53H19.23V45.781a2.843,2.843,0,0,1,3.176-2.941,7.116,7.116,0,0,1,1.57.2V40.051a5.124,5.124,0,0,0-1.277-.164A3.118,3.118,0,0,0,19.441,42.1H19.23v-2H15.809ZM28,38.117a1.9,1.9,0,1,0-1.934-1.9A1.911,1.911,0,0,0,28,38.117ZM26.273,53H29.7V40.1H26.273Zm6.867,4.277h3.422v-6.34h.211A4.1,4.1,0,0,0,40.641,53.2c3.27,0,5.238-2.5,5.238-6.645v-.023c0-4.113-2.016-6.645-5.238-6.645a4.042,4.042,0,0,0-3.867,2.2h-.211V40.1H33.141Zm6.328-6.914c-1.793,0-2.941-1.441-2.941-3.809v-.023c0-2.367,1.137-3.809,2.941-3.809s2.93,1.441,2.93,3.809v.023C42.4,48.922,41.273,50.363,39.469,50.363Zm14.555,2.684a9.522,9.522,0,0,0,1.711-.152V50.352a8.057,8.057,0,0,1-1.008.059c-1.16,0-1.652-.516-1.652-1.676V42.676h2.66V40.1h-2.66V37.016H49.617V40.1H47.625v2.578h1.992V49.52C49.617,52.027,50.883,53.047,54.023,53.047Zm10.2.223c3.973,0,6.363-2.508,6.363-6.715v-.023c0-4.172-2.426-6.715-6.363-6.715s-6.363,2.555-6.363,6.715v.023C57.855,50.75,60.246,53.27,64.219,53.27Zm0-2.684c-1.828,0-2.859-1.488-2.859-4.031v-.023c0-2.52,1.043-4.031,2.859-4.031s2.859,1.512,2.859,4.031v.023C67.078,49.1,66.035,50.586,64.219,50.586ZM73.359,53h3.422V45.219a2.348,2.348,0,0,1,2.273-2.566,1.973,1.973,0,0,1,2.121,2.191V53H84.6V45.066a2.235,2.235,0,0,1,2.273-2.414C88.3,42.652,89,43.438,89,45v8h3.422V44.141c0-2.66-1.605-4.324-4.172-4.324A4.077,4.077,0,0,0,84.363,42.2h-.211a3.571,3.571,0,0,0-3.586-2.379,3.617,3.617,0,0,0-3.574,2.3h-.211V40.1H73.359Zm28.1.27c3.973,0,6.363-2.508,6.363-6.715v-.023c0-4.172-2.426-6.715-6.363-6.715S95.1,42.371,95.1,46.531v.023C95.1,50.75,97.488,53.27,101.461,53.27Zm0-2.684c-1.828,0-2.859-1.488-2.859-4.031v-.023c0-2.52,1.043-4.031,2.859-4.031s2.859,1.512,2.859,4.031v.023C104.32,49.1,103.277,50.586,101.461,50.586ZM110.6,53h3.422V45.535c0-1.746.961-2.883,2.543-2.883,1.617,0,2.367.961,2.367,2.777V53h3.422V44.656c0-3.082-1.547-4.84-4.418-4.84a3.749,3.749,0,0,0-3.7,2.273h-.211V40.1H110.6Zm20.73.27c3.773,0,5.438-2.18,5.836-3.8l.023-.117H134l-.035.07a2.784,2.784,0,0,1-2.566,1.289c-1.816,0-2.953-1.23-2.988-3.352H137.3V46.3c0-3.9-2.344-6.48-6.105-6.48s-6.164,2.637-6.164,6.738v.012C125.027,50.7,127.406,53.27,131.332,53.27Zm-.082-10.887c1.488,0,2.555.961,2.766,2.836h-5.566C128.66,43.391,129.762,42.383,131.25,42.383ZM144.691,53.2a4.017,4.017,0,0,0,3.855-2.2h.211v2h3.422V35.164h-3.422v7h-.211a4.074,4.074,0,0,0-3.855-2.273c-3.27,0-5.238,2.5-5.238,6.645v.023C139.453,50.68,141.469,53.2,144.691,53.2Zm1.16-2.836c-1.8,0-2.918-1.43-2.918-3.809v-.023c0-2.355,1.113-3.809,2.918-3.809s2.941,1.453,2.941,3.82v.023C148.793,48.934,147.668,50.363,145.852,50.363ZM159.234,53.2a4.044,4.044,0,0,0,3.7-1.91h.211V53h3.375V44.188c0-2.754-1.934-4.371-5.355-4.371-3.246,0-5.379,1.5-5.648,3.762l-.012.105h3.164l.023-.047c.27-.762,1.055-1.2,2.285-1.2,1.406,0,2.168.633,2.168,1.746v1.066l-3.117.188c-3.211.188-5,1.547-5,3.867v.023C155.027,51.676,156.773,53.2,159.234,53.2Zm-.867-4.078V49.1c0-.937.715-1.488,2.18-1.582l2.6-.164V48.3a2.549,2.549,0,0,1-2.766,2.4C159.2,50.7,158.367,50.105,158.367,49.121Z" transform="translate(-1061 -576)" fill="#14a2c7"/><path d="M203.456,23.871l-.288-2.136,5.256-3,.384,2.472Z" transform="translate(-1176 -591.386)" fill="#14a3c7"/><g transform="translate(-1355 -639.112)"><path d="M237.15,99.967a21.286,21.286,0,1,0-21.078-21.28,21.173,21.173,0,0,0,21.078,21.28Z" fill="none" stroke="#14a2c7" stroke-width="3" fill-rule="evenodd"/><path d="M259.409,127.827a21.286,21.286,0,1,0-21.07-21.281,21.181,21.181,0,0,0,21.07,21.281Z" fill="none" stroke="#12a3c7" stroke-width="3" fill-rule="evenodd"/><path d="M256.527,57.883a1.238,1.238,0,0,0,0,2.475,19.678,19.678,0,0,1,19.58,18.789h-5.146l6.4,11.742,6.391-11.742h-5.194a22.322,22.322,0,0,0-8.41-16.511,21.8,21.8,0,0,0-13.62-4.753Z" fill="#12a3c7"/><path d="M240.04,127.341a1.222,1.222,0,0,0,1.172-.888,1.236,1.236,0,0,0-1.172-1.58,19.7,19.7,0,0,1-19.588-18.788H225.6l-6.4-11.743-6.39,11.743H218A22.267,22.267,0,0,0,225.7,122a21.808,21.808,0,0,0,14.337,5.345Z" fill="#12a3c7"/><path d="M38.933,56.6v1.451c3.108-.435,4.786,1.253,4.353,4.353h-2.9V60.956H38.933v2.9c2.368-.225,4.167.373,4.36,2.985.261,3.543-.051,6.177-4.363,5.72v1.451h-2.9V72.563c-3.107.435-4.786-1.253-4.353-4.353h2.9v1.451h1.451v-2.9c-2.368.225-4.167-.372-4.36-2.984-.261-3.543.051-6.177,4.363-5.72V56.6Zm-2.9,4.353H34.581v2.9h1.451Zm4.353,5.8H38.933v2.9h1.451Z" transform="translate(199.665 13.374)" fill="#14a3c7"/><g transform="translate(121.502 60.33)"><path d="M294.933,104.291h-5.805a.973.973,0,0,1-.973-.973v-7.48a.973.973,0,0,1,.973-.973h5.805a4.493,4.493,0,0,1,4.488,4.488v.45a4.493,4.493,0,0,1-4.488,4.488m-4.832-1.946h4.832a2.545,2.545,0,0,0,2.542-2.542v-.45a2.545,2.545,0,0,0-2.542-2.542H290.1Z" transform="translate(-154.08 -56.972)" fill="#14a2c7"/><path d="M296.985,170.075h-7.857a.973.973,0,0,1-.973-.973v-7.48a.973.973,0,0,1,.973-.973h7.857a4.493,4.493,0,0,1,4.488,4.488v.45a4.493,4.493,0,0,1-4.488,4.488m-6.884-1.946h6.884a2.545,2.545,0,0,0,2.542-2.542v-.45a2.545,2.545,0,0,0-2.542-2.542H290.1Z" transform="translate(-154.08 -115.275)" fill="#14a2c7"/><path d="M289.129,92.872a.973.973,0,0,1-.973-.973V70.906a.973.973,0,0,1,1.946,0V91.9a.973.973,0,0,1-.973.973" transform="translate(-154.081 -34.875)" fill="#14a2c7"/><path d="M268.437,96.811h-6.092a.973.973,0,0,1,0-1.946h6.092a.973.973,0,0,1,0,1.946" transform="translate(-130.343 -56.972)" fill="#14a2c7"/><path d="M268.437,228.376h-6.092a.973.973,0,0,1,0-1.946h6.092a.973.973,0,0,1,0,1.946" transform="translate(-130.343 -173.576)" fill="#14a2c7"/><path d="M335.817,231.573a.973.973,0,0,1-.973-.973v-3.2a.973.973,0,1,1,1.946,0v3.2a.973.973,0,0,1-.973.973" transform="translate(-195.46 -173.576)" fill="#14a2c7"/><path d="M335.817,74.714a.973.973,0,0,1-.973-.973V70.906a.973.973,0,1,1,1.946,0v2.835a.973.973,0,0,1-.973.973" transform="translate(-195.46 -34.875)" fill="#14a2c7"/></g></g></g></svg>