<svg width="120" height="140" viewBox="0 0 120 140" fill="none" xmlns="http://www.w3.org/2000/svg">
<path d="M79.4372 0C80.4205 0.643482 80.9628 1.56532 80.7458 2.79083L74.6508 25.432C73.588 27.8722 70.0272 26.8889 70.4718 24.2788C72.7963 17.2186 73.9242 9.20396 76.3499 2.24857C76.7693 1.04475 76.8922 0.607332 78.0671 0H79.4336L79.4372 0Z" fill="white"/>
<path d="M53.7333 99.2661C53.6249 99.6637 53.8418 99.7216 54.0008 99.9493C55.136 101.598 59.9729 105.166 60.4465 106.626C60.6092 107.129 60.6417 107.559 60.508 108.076C60.2658 109.005 58.4365 110.082 58.7764 110.74C62.1203 114.493 66.5126 117.884 69.7336 121.676C78.9557 132.539 65.4642 146.06 54.6841 137C50.6641 133.62 47.3961 128.975 43.2279 125.804C41.7964 126.292 41.2505 126.155 40.0864 125.349C38.6729 124.365 32.8888 117.75 32.2273 117.623C30.7523 118.129 29.3027 118.78 27.7627 119.095C10.0813 122.692 -4.50908 106.576 1.29311 89.3463C3.37177 83.1754 7.1206 80.7677 11.2129 76.2959C19.2383 67.5258 25.261 59.4786 30.2607 48.5864C32.5996 43.4964 36.7208 30.2689 40.0467 26.9285C46.1164 20.8335 56.282 23.3496 63.212 26.4803C78.2074 33.2477 97.9999 54.2223 96.3839 71.7807C95.4259 82.2102 82.1478 84.4732 74.0536 88.0087C66.8343 91.1647 60.2368 94.8412 53.7297 99.2733L53.7333 99.2661ZM66.3102 73.2809C70.3518 75.2331 74.3175 77.6154 78.8255 78.4071C93.3581 80.9593 94.1101 69.7454 89.6021 59.1533C84.3421 46.7969 69.8457 32.5897 56.8784 28.7071C39.5912 23.534 37.9644 36.5446 44.11 49.1323C44.7788 50.4988 45.8886 51.84 46.3514 53.3221L56.8821 42.9397C65.0304 36.7651 83.3155 54.3235 76.295 63.1696C73.5258 66.6581 69.1082 69.6948 66.3102 73.2809ZM76.154 82.5789C76.1251 82.2029 75.7563 82.1451 75.4852 82.0222C70.688 79.8387 67.1814 78.9458 62.5071 75.8585C49.7423 67.4354 43.0399 57.6711 37.4583 43.7494C37.3534 43.4892 37.4257 43.124 37.0534 43.2072C32.6611 55.5635 25.684 67.063 16.8235 76.7116C12.5215 81.3968 6.97961 85.095 5.13593 91.5479C1.00029 106.008 13.9278 118.646 28.3013 114.438C34.8916 112.508 40.5889 104.703 45.7982 100.217C54.7094 92.5456 65.1425 86.6639 76.154 82.5789ZM63.6712 55.9611C65.3522 57.6422 70.4169 61.344 72.8064 60.2305C74.2308 59.5654 73.5403 57.606 73.1535 56.46C71.8304 52.5304 67.1091 47.7911 63.2084 46.4427C62.1275 46.0703 60.1826 45.4015 59.4524 46.609C58.0642 48.9118 62.0155 54.3163 63.6639 55.9648L63.6712 55.9611ZM55.371 50.5892C53.8309 52.3714 50.5665 54.6272 49.3338 56.4636C49.1313 56.7637 49.0771 56.7745 49.1856 57.1613C49.2832 57.5084 51.5064 60.1872 51.9511 60.715C55.0239 64.3481 58.7764 67.6993 62.6228 70.4901L68.7648 64.4023C62.7493 61.7669 57.3448 57.0384 55.3673 50.5928L55.371 50.5892ZM50.0785 102.292L48.8313 103.738L53.8707 108.828L55.371 107.328L50.0821 102.288L50.0785 102.292ZM45.1728 106.673L36.2364 115.259L41.8361 120.859L50.7039 111.94C50.7654 111.601 46.4706 107.252 45.9501 106.905C45.6753 106.72 45.5524 106.576 45.1728 106.677V106.673ZM68.2225 131.531C68.7106 129.264 68.6166 127.446 67.2429 125.537L55.7903 114.012C55.0275 113.325 54.3407 114.851 53.7369 115.259L65.6305 127.153C66.7765 128.277 67.0513 129.813 67.6514 131.147C67.796 131.473 67.5212 131.639 68.2225 131.534V131.531ZM63.2337 135.287C64.6075 133.982 63.0168 130.894 62.0516 129.636C59.1017 125.797 54.1599 122.327 50.9967 118.524C50.7907 118.343 50.6641 118.415 50.4545 118.524C49.3952 119.069 47.5335 121.853 46.355 122.641C50.0676 125.927 53.4044 130.272 57.146 133.45C58.3498 134.473 61.7371 136.711 63.2337 135.287Z" fill="white"/>
<path d="M81.1533 33.8259C79.7724 32.6474 80.8244 31.0676 81.6269 29.9506C86.1675 23.6495 92.483 17.8618 97.0994 11.5174C99.2034 9.31217 102.258 11.6041 100.613 14.2106L84.096 33.7898C83.3549 34.4767 81.8836 34.4586 81.1497 33.8296L81.1533 33.8259Z" fill="white"/>
<path d="M112.722 28.7684C115.007 28.5407 115.853 31.5954 113.984 32.7703L92.0226 43.0733C89.5246 44.1144 87.3845 41.1103 89.7306 39.4148C96.5197 36.3781 103.121 32.7414 109.964 29.8421C110.622 29.5637 112.14 28.8226 112.722 28.7648V28.7684Z" fill="white"/>
<path d="M96.4781 54.8767C95.0212 53.5428 96.0117 51.3484 97.8916 51.1315C104.052 50.4121 111.557 51.6846 117.865 51.1315C120.728 51.4677 120.786 55.1551 117.586 55.513C111.553 56.189 104.33 55.0033 98.1663 55.5202C97.6602 55.4624 96.8468 55.2129 96.4817 54.8767H96.4781Z" fill="white"/>
</svg>
