<svg width="370" height="90" viewBox="0 0 370 90" fill="none" xmlns="http://www.w3.org/2000/svg">
<path d="M91.1642 88.9807C91.0505 89.5152 90.2017 90.086 89.631 89.9868H13.8027C9.99869 89.6216 7.26601 86.8209 7 83.002V32.9232C7.89719 24.451 19.3285 23.7327 21.4469 31.9437L57.1193 31.8954L88.5669 0.76605C93.1448 -1.8339 98.4505 2.62351 96.615 7.54528C96.3563 8.23941 95.7251 8.79568 95.5582 9.39064C95.1326 10.8974 95.1665 12.9483 94.6997 14.6994C93.1593 20.4943 89.4182 24.4196 85.1765 28.3957C85.0048 28.507 84.8621 28.5287 84.6686 28.4417C84.5525 28.3909 83.0459 26.7341 83.029 26.5479C85.2079 23.9068 87.9986 21.8607 89.7906 18.8569C90.8014 17.1615 91.9066 14.8445 91.9816 12.8855L73.0269 31.9316H95.9718C96.3877 31.9316 97.1422 32.9716 96.9778 33.465V82.6392C97.1422 83.1326 96.3877 84.1726 95.9718 84.1726H91.1642C90.9634 85.5536 91.435 87.7061 91.1642 88.9807ZM90.9369 2.95243C89.3916 3.1967 87.3529 6.17879 86.0978 7.19701L89.6455 10.8781C89.8099 10.924 89.8801 10.7934 89.9889 10.7209C90.4072 10.4403 93.2149 7.613 93.522 7.17524C94.9391 5.14848 93.3358 2.57272 90.9344 2.95243H90.9369ZM83.844 9.45352L65.8518 27.3993C65.7309 27.5371 65.7793 27.6193 65.8518 27.7596C65.9606 27.9725 69.0077 31.0198 69.2205 31.1287L87.4569 13.2482C87.6262 13.0378 87.4763 12.9508 87.3674 12.7911C87.1256 12.438 84.5332 9.84291 84.1874 9.61073C84.0785 9.53817 84.0084 9.40757 83.844 9.45352ZM18.6151 76.9193V32.5677C18.6151 32.4613 18.1242 31.3754 18.0057 31.1819C16.2718 28.311 12.2477 28.3135 10.5162 31.1819C10.3977 31.3778 9.9068 32.4613 9.9068 32.5677V76.9193C12.5403 74.982 15.984 74.9845 18.6127 76.9193H18.6151ZM63.5302 29.7694L54.1787 39.122L57.7263 42.8031L67.2109 33.4505C66.9086 32.9063 63.7914 29.7235 63.5302 29.7694ZM54.1641 34.8363H21.5171V81.2727H94.0661V34.8363H70.033L67.223 37.7386H87.2659C87.8632 37.7386 88.2259 38.752 88.2719 39.272C88.388 40.5611 88.4412 44.0486 88.2525 45.2555C88.1703 45.7779 87.8511 46.1649 87.365 46.3632L58.2535 46.4527L51.0905 50.7166C49.7919 51.1108 49.3493 50.0297 49.0204 50.0854C48.5875 50.1603 46.2007 53.2222 45.7557 53.1424L43.8404 51.0939L46.8971 47.9594L46.1644 46.4624L27.8699 46.1649C27.4903 45.8819 27.3718 45.5385 27.3186 45.0838C27.217 44.2155 27.2194 39.0688 27.4588 38.5053C27.6547 38.0458 28.1843 37.741 28.6777 37.7289H51.1679L54.1641 34.8315V34.8363ZM49.4485 40.6409H30.223V43.5432H47.8161L49.4485 40.6409ZM85.3602 40.6409H64.2291L61.4191 43.5432H85.3602V40.6409ZM55.4338 44.8105L52.1715 41.5478L49.4896 46.1745L50.8051 47.4902L55.4313 44.8081L55.4338 44.8105ZM88.2622 84.175H19.6139C18.5498 84.175 18.5909 81.6161 18.1435 80.7479C15.5535 75.7028 7.9383 79.5072 10.3203 84.5813C10.7387 85.4689 12.4629 87.0797 13.4448 87.0797H88.2622V84.1774V84.175Z" fill="#14A3C7"/>
<path d="M36.1738 52.3033C53.6678 50.6442 55.6242 77.1226 38.476 78.3682C21.4464 79.604 19.369 53.8971 36.1738 52.3033ZM36.3552 55.2056C22.4403 56.6858 25.8186 78.3851 39.8448 75.2023C51.8492 72.479 49.1166 53.8488 36.3552 55.2056Z" fill="#14A3C7"/>
<path d="M63.1809 49.3865L87.3639 49.43C87.85 49.6283 88.1692 50.0177 88.2514 50.5377C88.3772 51.3455 88.3796 56.5212 88.1813 57.1573C88.0193 57.6773 87.4461 58.0498 86.9069 58.0594L63.0431 57.9748C62.557 57.7765 62.2378 57.3871 62.1555 56.8671C61.9669 55.6578 62.0201 52.1751 62.1362 50.8836C62.2039 50.1193 62.395 49.6332 63.1809 49.3889V49.3865ZM85.3591 52.2501H65.0454V55.1523H85.3591V52.2501Z" fill="#14A3C7"/>
<path d="M88.2611 72.566H53.4375V75.4683H88.2611V72.566Z" fill="#14A3C7"/>
<path d="M88.2614 60.9568H56.3398V63.8591H88.2614V60.9568Z" fill="#14A3C7"/>
<path d="M88.2614 66.7612H56.3398V69.6635H88.2614V66.7612Z" fill="#14A3C7"/>
<path d="M38.9335 56.603V58.0542C42.041 57.6188 43.7193 59.307 43.2865 62.4076H40.3845V60.9564H38.9335V63.8587C41.301 63.6338 43.1003 64.2312 43.2937 66.8432C43.5549 70.3864 43.2429 73.0202 38.9311 72.5631V74.0143H36.0291V72.5631C32.9216 72.9985 31.2433 71.3103 31.6762 68.2097H34.5782V69.6608H36.0291V66.7586C33.6616 66.9835 31.8624 66.3861 31.6689 63.7741C31.4078 60.2309 31.7197 57.5971 36.0316 58.0542V56.603H38.9335ZM36.0316 60.9564H34.5806V63.8587H36.0316V60.9564ZM40.3845 66.761H38.9335V69.6633H40.3845V66.761Z" fill="#14A3C7"/>
<path d="M118.656 36.999V20.199H124.272C126.224 20.199 127.832 20.551 129.096 21.255C130.376 21.943 131.32 22.919 131.928 24.183C132.552 25.431 132.864 26.903 132.864 28.599C132.864 30.295 132.552 31.775 131.928 33.039C131.32 34.287 130.384 35.263 129.12 35.967C127.856 36.655 126.24 36.999 124.272 36.999H118.656ZM121.896 34.215H124.104C125.48 34.215 126.56 33.991 127.344 33.543C128.144 33.095 128.712 32.455 129.048 31.623C129.384 30.775 129.552 29.767 129.552 28.599C129.552 27.415 129.384 26.407 129.048 25.575C128.712 24.727 128.144 24.079 127.344 23.631C126.56 23.183 125.48 22.959 124.104 22.959H121.896V34.215ZM141.265 37.287C140.113 37.287 139.073 37.023 138.145 36.495C137.233 35.951 136.505 35.207 135.961 34.263C135.433 33.303 135.169 32.207 135.169 30.975C135.169 29.711 135.433 28.607 135.961 27.663C136.505 26.703 137.241 25.959 138.169 25.431C139.097 24.887 140.137 24.615 141.289 24.615C142.457 24.615 143.497 24.887 144.409 25.431C145.337 25.959 146.065 26.703 146.593 27.663C147.137 28.607 147.409 29.703 147.409 30.951C147.409 32.199 147.137 33.303 146.593 34.263C146.065 35.207 145.337 35.951 144.409 36.495C143.481 37.023 142.433 37.287 141.265 37.287ZM141.265 34.479C141.809 34.479 142.289 34.351 142.705 34.095C143.137 33.839 143.473 33.447 143.713 32.919C143.969 32.391 144.097 31.735 144.097 30.951C144.097 30.167 143.969 29.519 143.713 29.007C143.473 28.479 143.137 28.087 142.705 27.831C142.289 27.559 141.817 27.423 141.289 27.423C140.777 27.423 140.305 27.559 139.873 27.831C139.441 28.087 139.097 28.479 138.841 29.007C138.601 29.519 138.481 30.167 138.481 30.951C138.481 31.735 138.601 32.391 138.841 32.919C139.097 33.447 139.433 33.839 139.849 34.095C140.281 34.351 140.753 34.479 141.265 34.479ZM150.201 36.999V24.903H153.057L153.297 26.871C153.665 26.199 154.185 25.655 154.857 25.239C155.545 24.823 156.361 24.615 157.305 24.615C158.313 24.615 159.161 24.823 159.849 25.239C160.537 25.655 161.057 26.263 161.409 27.063C161.777 27.863 161.961 28.847 161.961 30.015V36.999H158.745V30.327C158.745 29.367 158.537 28.631 158.121 28.119C157.721 27.607 157.097 27.351 156.249 27.351C155.705 27.351 155.217 27.479 154.785 27.735C154.369 27.991 154.041 28.359 153.801 28.839C153.561 29.303 153.441 29.871 153.441 30.543V36.999H150.201ZM169.094 37.287C168.086 37.287 167.254 37.127 166.598 36.807C165.942 36.471 165.454 36.031 165.134 35.487C164.83 34.927 164.678 34.311 164.678 33.639C164.678 32.903 164.862 32.255 165.23 31.695C165.614 31.135 166.182 30.695 166.934 30.375C167.702 30.055 168.662 29.895 169.814 29.895H172.814C172.814 29.303 172.734 28.815 172.574 28.431C172.414 28.031 172.166 27.735 171.83 27.543C171.494 27.351 171.046 27.255 170.486 27.255C169.878 27.255 169.358 27.391 168.926 27.663C168.51 27.919 168.254 28.319 168.158 28.863H165.014C165.094 27.999 165.374 27.255 165.854 26.631C166.35 25.991 166.998 25.495 167.798 25.143C168.614 24.791 169.518 24.615 170.51 24.615C171.646 24.615 172.63 24.807 173.462 25.191C174.294 25.575 174.934 26.127 175.382 26.847C175.83 27.567 176.054 28.455 176.054 29.511V36.999H173.318L172.958 35.151C172.782 35.471 172.574 35.759 172.334 36.015C172.094 36.271 171.814 36.495 171.494 36.687C171.174 36.879 170.814 37.023 170.414 37.119C170.014 37.231 169.574 37.287 169.094 37.287ZM169.862 34.791C170.278 34.791 170.646 34.719 170.966 34.575C171.302 34.415 171.59 34.207 171.83 33.951C172.07 33.679 172.254 33.375 172.382 33.039C172.526 32.687 172.622 32.311 172.67 31.911V31.887H170.198C169.702 31.887 169.294 31.951 168.974 32.079C168.67 32.191 168.446 32.359 168.302 32.583C168.158 32.807 168.086 33.063 168.086 33.351C168.086 33.671 168.158 33.935 168.302 34.143C168.446 34.351 168.654 34.511 168.926 34.623C169.198 34.735 169.51 34.791 169.862 34.791ZM184.932 37.287C183.716 37.287 182.636 37.015 181.692 36.471C180.748 35.927 180.012 35.183 179.484 34.239C178.956 33.295 178.692 32.215 178.692 30.999C178.692 29.751 178.956 28.655 179.484 27.711C180.012 26.751 180.748 25.999 181.692 25.455C182.636 24.895 183.716 24.615 184.932 24.615C186.484 24.615 187.788 25.023 188.844 25.839C189.9 26.655 190.572 27.775 190.86 29.199H187.428C187.284 28.639 186.98 28.199 186.516 27.879C186.068 27.559 185.532 27.399 184.908 27.399C184.348 27.399 183.844 27.543 183.396 27.831C182.964 28.103 182.62 28.511 182.364 29.055C182.124 29.583 182.004 30.215 182.004 30.951C182.004 31.511 182.076 32.015 182.22 32.463C182.364 32.895 182.564 33.271 182.82 33.591C183.076 33.895 183.38 34.127 183.732 34.287C184.1 34.447 184.492 34.527 184.908 34.527C185.324 34.527 185.7 34.455 186.036 34.311C186.388 34.167 186.684 33.967 186.924 33.711C187.164 33.439 187.332 33.111 187.428 32.727H190.86C190.572 34.119 189.892 35.231 188.82 36.063C187.764 36.879 186.468 37.287 184.932 37.287ZM193.726 36.999V24.903H196.966V36.999H193.726ZM195.358 23.247C194.782 23.247 194.302 23.079 193.918 22.743C193.55 22.391 193.366 21.951 193.366 21.423C193.366 20.895 193.55 20.463 193.918 20.127C194.302 19.775 194.782 19.599 195.358 19.599C195.95 19.599 196.43 19.775 196.798 20.127C197.182 20.463 197.374 20.895 197.374 21.423C197.374 21.951 197.182 22.391 196.798 22.743C196.43 23.079 195.95 23.247 195.358 23.247ZM205.952 37.287C204.8 37.287 203.76 37.023 202.832 36.495C201.92 35.951 201.192 35.207 200.648 34.263C200.12 33.303 199.856 32.207 199.856 30.975C199.856 29.711 200.12 28.607 200.648 27.663C201.192 26.703 201.928 25.959 202.856 25.431C203.784 24.887 204.824 24.615 205.976 24.615C207.144 24.615 208.184 24.887 209.096 25.431C210.024 25.959 210.752 26.703 211.28 27.663C211.824 28.607 212.096 29.703 212.096 30.951C212.096 32.199 211.824 33.303 211.28 34.263C210.752 35.207 210.024 35.951 209.096 36.495C208.168 37.023 207.12 37.287 205.952 37.287ZM205.952 34.479C206.496 34.479 206.976 34.351 207.392 34.095C207.824 33.839 208.16 33.447 208.4 32.919C208.656 32.391 208.784 31.735 208.784 30.951C208.784 30.167 208.656 29.519 208.4 29.007C208.16 28.479 207.824 28.087 207.392 27.831C206.976 27.559 206.504 27.423 205.976 27.423C205.464 27.423 204.992 27.559 204.56 27.831C204.128 28.087 203.784 28.479 203.528 29.007C203.288 29.519 203.168 30.167 203.168 30.951C203.168 31.735 203.288 32.391 203.528 32.919C203.784 33.447 204.12 33.839 204.536 34.095C204.968 34.351 205.44 34.479 205.952 34.479ZM203.456 23.871L203.168 21.735L208.424 18.735L208.808 21.207L203.456 23.871ZM214.889 36.999V24.903H217.745L217.985 26.871C218.353 26.199 218.873 25.655 219.545 25.239C220.233 24.823 221.049 24.615 221.993 24.615C223.001 24.615 223.849 24.823 224.537 25.239C225.225 25.655 225.745 26.263 226.097 27.063C226.465 27.863 226.649 28.847 226.649 30.015V36.999H223.433V30.327C223.433 29.367 223.225 28.631 222.809 28.119C222.409 27.607 221.785 27.351 220.937 27.351C220.393 27.351 219.905 27.479 219.473 27.735C219.057 27.991 218.729 28.359 218.489 28.839C218.249 29.303 218.129 29.871 218.129 30.543V36.999H214.889ZM235.35 42.279V24.903H238.23L238.59 26.583C238.846 26.231 239.15 25.911 239.502 25.623C239.854 25.319 240.27 25.079 240.75 24.903C241.246 24.711 241.822 24.615 242.478 24.615C243.614 24.615 244.614 24.895 245.478 25.455C246.342 26.015 247.022 26.775 247.518 27.735C248.03 28.679 248.286 29.759 248.286 30.975C248.286 32.191 248.03 33.279 247.518 34.239C247.006 35.183 246.318 35.927 245.454 36.471C244.59 37.015 243.606 37.287 242.502 37.287C241.606 37.287 240.83 37.127 240.174 36.807C239.534 36.471 239.006 36.015 238.59 35.439V42.279H235.35ZM241.734 34.455C242.374 34.455 242.934 34.311 243.414 34.023C243.91 33.735 244.294 33.327 244.566 32.799C244.838 32.271 244.974 31.663 244.974 30.975C244.974 30.287 244.838 29.679 244.566 29.151C244.294 28.607 243.91 28.191 243.414 27.903C242.934 27.599 242.374 27.447 241.734 27.447C241.11 27.447 240.55 27.599 240.054 27.903C239.574 28.191 239.19 28.599 238.902 29.127C238.63 29.655 238.494 30.263 238.494 30.951C238.494 31.639 238.63 32.255 238.902 32.799C239.19 33.327 239.574 33.735 240.054 34.023C240.55 34.311 241.11 34.455 241.734 34.455ZM256.788 37.287C255.636 37.287 254.596 37.023 253.668 36.495C252.756 35.951 252.028 35.207 251.484 34.263C250.956 33.303 250.692 32.207 250.692 30.975C250.692 29.711 250.956 28.607 251.484 27.663C252.028 26.703 252.764 25.959 253.692 25.431C254.62 24.887 255.66 24.615 256.812 24.615C257.98 24.615 259.02 24.887 259.932 25.431C260.86 25.959 261.588 26.703 262.116 27.663C262.66 28.607 262.932 29.703 262.932 30.951C262.932 32.199 262.66 33.303 262.116 34.263C261.588 35.207 260.86 35.951 259.932 36.495C259.004 37.023 257.956 37.287 256.788 37.287ZM256.788 34.479C257.332 34.479 257.812 34.351 258.228 34.095C258.66 33.839 258.996 33.447 259.236 32.919C259.492 32.391 259.62 31.735 259.62 30.951C259.62 30.167 259.492 29.519 259.236 29.007C258.996 28.479 258.66 28.087 258.228 27.831C257.812 27.559 257.34 27.423 256.812 27.423C256.3 27.423 255.828 27.559 255.396 27.831C254.964 28.087 254.62 28.479 254.364 29.007C254.124 29.519 254.004 30.167 254.004 30.951C254.004 31.735 254.124 32.391 254.364 32.919C254.62 33.447 254.956 33.839 255.372 34.095C255.804 34.351 256.276 34.479 256.788 34.479ZM265.725 36.999V24.903H268.605L268.917 27.135C269.205 26.607 269.565 26.159 269.997 25.791C270.445 25.423 270.949 25.135 271.509 24.927C272.085 24.719 272.717 24.615 273.405 24.615V28.047H272.301C271.821 28.047 271.373 28.103 270.957 28.215C270.557 28.327 270.205 28.511 269.901 28.767C269.597 29.007 269.365 29.343 269.205 29.775C269.045 30.207 268.965 30.751 268.965 31.407V36.999H265.725ZM287.049 37.287C285.833 37.287 284.753 37.015 283.809 36.471C282.865 35.927 282.129 35.183 281.601 34.239C281.073 33.295 280.809 32.215 280.809 30.999C280.809 29.751 281.073 28.655 281.601 27.711C282.129 26.751 282.865 25.999 283.809 25.455C284.753 24.895 285.833 24.615 287.049 24.615C288.601 24.615 289.905 25.023 290.961 25.839C292.017 26.655 292.689 27.775 292.977 29.199H289.545C289.401 28.639 289.097 28.199 288.633 27.879C288.185 27.559 287.649 27.399 287.025 27.399C286.465 27.399 285.961 27.543 285.513 27.831C285.081 28.103 284.737 28.511 284.481 29.055C284.241 29.583 284.121 30.215 284.121 30.951C284.121 31.511 284.193 32.015 284.337 32.463C284.481 32.895 284.681 33.271 284.937 33.591C285.193 33.895 285.497 34.127 285.849 34.287C286.217 34.447 286.609 34.527 287.025 34.527C287.441 34.527 287.817 34.455 288.153 34.311C288.505 34.167 288.801 33.967 289.041 33.711C289.281 33.439 289.449 33.111 289.545 32.727H292.977C292.689 34.119 292.009 35.231 290.937 36.063C289.881 36.879 288.585 37.287 287.049 37.287ZM300.284 37.287C299.308 37.287 298.468 37.087 297.764 36.687C297.076 36.271 296.548 35.671 296.18 34.887C295.812 34.087 295.628 33.103 295.628 31.935V24.903H298.868V31.599C298.868 32.575 299.068 33.311 299.468 33.807C299.884 34.303 300.516 34.551 301.364 34.551C301.908 34.551 302.388 34.431 302.804 34.191C303.22 33.935 303.548 33.575 303.788 33.111C304.044 32.631 304.172 32.047 304.172 31.359V24.903H307.388V36.999H304.556L304.292 35.031C303.94 35.719 303.42 36.271 302.732 36.687C302.044 37.087 301.228 37.287 300.284 37.287ZM316.369 37.287C315.153 37.287 314.073 37.031 313.129 36.519C312.201 35.991 311.473 35.263 310.945 34.335C310.433 33.391 310.177 32.303 310.177 31.071C310.177 29.807 310.433 28.695 310.945 27.735C311.473 26.759 312.201 25.999 313.129 25.455C314.057 24.895 315.137 24.615 316.369 24.615C317.569 24.615 318.617 24.879 319.513 25.407C320.409 25.935 321.105 26.647 321.601 27.543C322.097 28.439 322.345 29.455 322.345 30.591C322.345 30.751 322.345 30.935 322.345 31.143C322.345 31.335 322.329 31.535 322.297 31.743H312.481V29.775H319.081C319.033 28.991 318.753 28.375 318.241 27.927C317.745 27.479 317.121 27.255 316.369 27.255C315.825 27.255 315.321 27.383 314.857 27.639C314.393 27.879 314.025 28.255 313.753 28.767C313.497 29.279 313.369 29.927 313.369 30.711V31.407C313.369 32.063 313.489 32.639 313.729 33.135C313.985 33.615 314.337 33.991 314.785 34.263C315.233 34.519 315.753 34.647 316.345 34.647C316.937 34.647 317.425 34.519 317.809 34.263C318.209 34.007 318.505 33.679 318.697 33.279H322.009C321.785 34.031 321.409 34.711 320.881 35.319C320.353 35.927 319.705 36.407 318.937 36.759C318.169 37.111 317.313 37.287 316.369 37.287ZM324.998 36.999V24.903H327.854L328.094 26.871C328.462 26.199 328.982 25.655 329.654 25.239C330.342 24.823 331.158 24.615 332.102 24.615C333.11 24.615 333.958 24.823 334.646 25.239C335.334 25.655 335.854 26.263 336.206 27.063C336.574 27.863 336.758 28.847 336.758 30.015V36.999H333.542V30.327C333.542 29.367 333.334 28.631 332.918 28.119C332.518 27.607 331.894 27.351 331.046 27.351C330.502 27.351 330.014 27.479 329.582 27.735C329.166 27.991 328.838 28.359 328.598 28.839C328.358 29.303 328.238 29.871 328.238 30.543V36.999H324.998ZM345.259 36.999C344.411 36.999 343.667 36.871 343.027 36.615C342.403 36.343 341.915 35.903 341.563 35.295C341.211 34.671 341.035 33.823 341.035 32.751V27.615H338.971V24.903H341.035L341.395 21.615H344.275V24.903H347.467V27.615H344.275V32.799C344.275 33.343 344.395 33.719 344.635 33.927C344.875 34.135 345.283 34.239 345.859 34.239H347.443V36.999H345.259ZM354.273 37.287C353.265 37.287 352.433 37.127 351.777 36.807C351.121 36.471 350.633 36.031 350.313 35.487C350.009 34.927 349.857 34.311 349.857 33.639C349.857 32.903 350.041 32.255 350.409 31.695C350.793 31.135 351.361 30.695 352.113 30.375C352.881 30.055 353.841 29.895 354.993 29.895H357.993C357.993 29.303 357.913 28.815 357.753 28.431C357.593 28.031 357.345 27.735 357.009 27.543C356.673 27.351 356.225 27.255 355.665 27.255C355.057 27.255 354.537 27.391 354.105 27.663C353.689 27.919 353.433 28.319 353.337 28.863H350.193C350.273 27.999 350.553 27.255 351.033 26.631C351.529 25.991 352.177 25.495 352.977 25.143C353.793 24.791 354.697 24.615 355.689 24.615C356.825 24.615 357.809 24.807 358.641 25.191C359.473 25.575 360.113 26.127 360.561 26.847C361.009 27.567 361.233 28.455 361.233 29.511V36.999H358.497L358.137 35.151C357.961 35.471 357.753 35.759 357.513 36.015C357.273 36.271 356.993 36.495 356.673 36.687C356.353 36.879 355.993 37.023 355.593 37.119C355.193 37.231 354.753 37.287 354.273 37.287ZM355.041 34.791C355.457 34.791 355.825 34.719 356.145 34.575C356.481 34.415 356.769 34.207 357.009 33.951C357.249 33.679 357.433 33.375 357.561 33.039C357.705 32.687 357.801 32.311 357.849 31.911V31.887H355.377C354.881 31.887 354.473 31.951 354.153 32.079C353.849 32.191 353.625 32.359 353.481 32.583C353.337 32.807 353.265 33.063 353.265 33.351C353.265 33.671 353.337 33.935 353.481 34.143C353.625 34.351 353.833 34.511 354.105 34.623C354.377 34.735 354.689 34.791 355.041 34.791ZM125.736 70.287C125.112 70.287 124.552 70.207 124.056 70.047C123.576 69.887 123.144 69.671 122.76 69.399C122.392 69.111 122.08 68.791 121.824 68.439L121.464 69.999H118.584V52.719H121.824V59.583C122.208 59.023 122.712 58.559 123.336 58.191C123.976 57.807 124.768 57.615 125.712 57.615C126.832 57.615 127.824 57.895 128.688 58.455C129.568 58.999 130.256 59.751 130.752 60.711C131.264 61.655 131.52 62.743 131.52 63.975C131.52 65.175 131.264 66.255 130.752 67.215C130.256 68.175 129.576 68.927 128.712 69.471C127.848 70.015 126.856 70.287 125.736 70.287ZM124.968 67.455C125.608 67.455 126.168 67.311 126.648 67.023C127.144 66.719 127.528 66.311 127.8 65.799C128.072 65.271 128.208 64.663 128.208 63.975C128.208 63.287 128.072 62.679 127.8 62.151C127.528 61.607 127.144 61.191 126.648 60.903C126.168 60.599 125.608 60.447 124.968 60.447C124.344 60.447 123.784 60.599 123.288 60.903C122.808 61.191 122.424 61.599 122.136 62.127C121.864 62.655 121.728 63.263 121.728 63.951C121.728 64.639 121.864 65.255 122.136 65.799C122.424 66.327 122.808 66.735 123.288 67.023C123.784 67.311 124.344 67.455 124.968 67.455ZM138.391 70.287C137.383 70.287 136.551 70.127 135.895 69.807C135.239 69.471 134.751 69.031 134.431 68.487C134.127 67.927 133.975 67.311 133.975 66.639C133.975 65.903 134.159 65.255 134.527 64.695C134.911 64.135 135.479 63.695 136.231 63.375C136.999 63.055 137.959 62.895 139.111 62.895H142.111C142.111 62.303 142.031 61.815 141.871 61.431C141.711 61.031 141.463 60.735 141.127 60.543C140.791 60.351 140.343 60.255 139.783 60.255C139.175 60.255 138.655 60.391 138.223 60.663C137.807 60.919 137.551 61.319 137.455 61.863H134.311C134.391 60.999 134.671 60.255 135.151 59.631C135.647 58.991 136.295 58.495 137.095 58.143C137.911 57.791 138.815 57.615 139.807 57.615C140.943 57.615 141.927 57.807 142.759 58.191C143.591 58.575 144.231 59.127 144.679 59.847C145.127 60.567 145.351 61.455 145.351 62.511V69.999H142.615L142.255 68.151C142.079 68.471 141.871 68.759 141.631 69.015C141.391 69.271 141.111 69.495 140.791 69.687C140.471 69.879 140.111 70.023 139.711 70.119C139.311 70.231 138.871 70.287 138.391 70.287ZM139.159 67.791C139.575 67.791 139.943 67.719 140.263 67.575C140.599 67.415 140.887 67.207 141.127 66.951C141.367 66.679 141.551 66.375 141.679 66.039C141.823 65.687 141.919 65.311 141.967 64.911V64.887H139.495C138.999 64.887 138.591 64.951 138.271 65.079C137.967 65.191 137.743 65.359 137.599 65.583C137.455 65.807 137.383 66.063 137.383 66.351C137.383 66.671 137.455 66.935 137.599 67.143C137.743 67.351 137.951 67.511 138.223 67.623C138.495 67.735 138.807 67.791 139.159 67.791ZM148.373 69.999V57.903H151.229L151.469 59.871C151.837 59.199 152.357 58.655 153.029 58.239C153.717 57.823 154.533 57.615 155.477 57.615C156.485 57.615 157.333 57.823 158.021 58.239C158.709 58.655 159.229 59.263 159.581 60.063C159.949 60.863 160.133 61.847 160.133 63.015V69.999H156.917V63.327C156.917 62.367 156.709 61.631 156.293 61.119C155.893 60.607 155.269 60.351 154.421 60.351C153.877 60.351 153.389 60.479 152.957 60.735C152.541 60.991 152.213 61.359 151.973 61.839C151.733 62.303 151.613 62.871 151.613 63.543V69.999H148.373ZM169.042 70.287C167.826 70.287 166.746 70.015 165.802 69.471C164.858 68.927 164.122 68.183 163.594 67.239C163.066 66.295 162.802 65.215 162.802 63.999C162.802 62.751 163.066 61.655 163.594 60.711C164.122 59.751 164.858 58.999 165.802 58.455C166.746 57.895 167.826 57.615 169.042 57.615C170.594 57.615 171.898 58.023 172.954 58.839C174.01 59.655 174.682 60.775 174.97 62.199H171.538C171.394 61.639 171.09 61.199 170.626 60.879C170.178 60.559 169.642 60.399 169.018 60.399C168.458 60.399 167.954 60.543 167.506 60.831C167.074 61.103 166.73 61.511 166.474 62.055C166.234 62.583 166.114 63.215 166.114 63.951C166.114 64.511 166.186 65.015 166.33 65.463C166.474 65.895 166.674 66.271 166.93 66.591C167.186 66.895 167.49 67.127 167.842 67.287C168.21 67.447 168.602 67.527 169.018 67.527C169.434 67.527 169.81 67.455 170.146 67.311C170.498 67.167 170.794 66.967 171.034 66.711C171.274 66.439 171.442 66.111 171.538 65.727H174.97C174.682 67.119 174.002 68.231 172.93 69.063C171.874 69.879 170.578 70.287 169.042 70.287ZM181.844 70.287C180.836 70.287 180.004 70.127 179.348 69.807C178.692 69.471 178.204 69.031 177.884 68.487C177.58 67.927 177.428 67.311 177.428 66.639C177.428 65.903 177.612 65.255 177.98 64.695C178.364 64.135 178.932 63.695 179.684 63.375C180.452 63.055 181.412 62.895 182.564 62.895H185.564C185.564 62.303 185.484 61.815 185.324 61.431C185.164 61.031 184.916 60.735 184.58 60.543C184.244 60.351 183.796 60.255 183.236 60.255C182.628 60.255 182.108 60.391 181.676 60.663C181.26 60.919 181.004 61.319 180.908 61.863H177.764C177.844 60.999 178.124 60.255 178.604 59.631C179.1 58.991 179.748 58.495 180.548 58.143C181.364 57.791 182.268 57.615 183.26 57.615C184.396 57.615 185.38 57.807 186.212 58.191C187.044 58.575 187.684 59.127 188.132 59.847C188.58 60.567 188.804 61.455 188.804 62.511V69.999H186.068L185.708 68.151C185.532 68.471 185.324 68.759 185.084 69.015C184.844 69.271 184.564 69.495 184.244 69.687C183.924 69.879 183.564 70.023 183.164 70.119C182.764 70.231 182.324 70.287 181.844 70.287ZM182.612 67.791C183.028 67.791 183.396 67.719 183.716 67.575C184.052 67.415 184.34 67.207 184.58 66.951C184.82 66.679 185.004 66.375 185.132 66.039C185.276 65.687 185.372 65.311 185.42 64.911V64.887H182.948C182.452 64.887 182.044 64.951 181.724 65.079C181.42 65.191 181.196 65.359 181.052 65.583C180.908 65.807 180.836 66.063 180.836 66.351C180.836 66.671 180.908 66.935 181.052 67.143C181.196 67.351 181.404 67.511 181.676 67.623C181.948 67.735 182.26 67.791 182.612 67.791ZM191.826 69.999V57.903H194.706L195.018 60.135C195.306 59.607 195.666 59.159 196.098 58.791C196.546 58.423 197.05 58.135 197.61 57.927C198.186 57.719 198.818 57.615 199.506 57.615V61.047H198.402C197.922 61.047 197.474 61.103 197.058 61.215C196.658 61.327 196.306 61.511 196.002 61.767C195.698 62.007 195.466 62.343 195.306 62.775C195.146 63.207 195.066 63.751 195.066 64.407V69.999H191.826ZM201.719 69.999V57.903H204.959V69.999H201.719ZM203.351 56.247C202.775 56.247 202.295 56.079 201.911 55.743C201.543 55.391 201.359 54.951 201.359 54.423C201.359 53.895 201.543 53.463 201.911 53.127C202.295 52.775 202.775 52.599 203.351 52.599C203.943 52.599 204.423 52.775 204.791 53.127C205.175 53.463 205.367 53.895 205.367 54.423C205.367 54.951 205.175 55.391 204.791 55.743C204.423 56.079 203.943 56.247 203.351 56.247ZM212.312 70.287C211.304 70.287 210.472 70.127 209.816 69.807C209.16 69.471 208.672 69.031 208.352 68.487C208.048 67.927 207.896 67.311 207.896 66.639C207.896 65.903 208.08 65.255 208.448 64.695C208.832 64.135 209.4 63.695 210.152 63.375C210.92 63.055 211.88 62.895 213.032 62.895H216.032C216.032 62.303 215.952 61.815 215.792 61.431C215.632 61.031 215.384 60.735 215.048 60.543C214.712 60.351 214.264 60.255 213.704 60.255C213.096 60.255 212.576 60.391 212.144 60.663C211.728 60.919 211.472 61.319 211.376 61.863H208.232C208.312 60.999 208.592 60.255 209.072 59.631C209.568 58.991 210.216 58.495 211.016 58.143C211.832 57.791 212.736 57.615 213.728 57.615C214.864 57.615 215.848 57.807 216.68 58.191C217.512 58.575 218.152 59.127 218.6 59.847C219.048 60.567 219.272 61.455 219.272 62.511V69.999H216.536L216.176 68.151C216 68.471 215.792 68.759 215.552 69.015C215.312 69.271 215.032 69.495 214.712 69.687C214.392 69.879 214.032 70.023 213.632 70.119C213.232 70.231 212.792 70.287 212.312 70.287ZM213.08 67.791C213.496 67.791 213.864 67.719 214.184 67.575C214.52 67.415 214.808 67.207 215.048 66.951C215.288 66.679 215.472 66.375 215.6 66.039C215.744 65.687 215.84 65.311 215.888 64.911V64.887H213.416C212.92 64.887 212.512 64.951 212.192 65.079C211.888 65.191 211.664 65.359 211.52 65.583C211.376 65.807 211.304 66.063 211.304 66.351C211.304 66.671 211.376 66.935 211.52 67.143C211.664 67.351 211.872 67.511 212.144 67.623C212.416 67.735 212.728 67.791 213.08 67.791ZM233.655 70.287C232.503 70.287 231.463 70.023 230.535 69.495C229.623 68.951 228.895 68.207 228.351 67.263C227.823 66.303 227.559 65.207 227.559 63.975C227.559 62.711 227.823 61.607 228.351 60.663C228.895 59.703 229.631 58.959 230.559 58.431C231.487 57.887 232.527 57.615 233.679 57.615C234.847 57.615 235.887 57.887 236.799 58.431C237.727 58.959 238.455 59.703 238.983 60.663C239.527 61.607 239.799 62.703 239.799 63.951C239.799 65.199 239.527 66.303 238.983 67.263C238.455 68.207 237.727 68.951 236.799 69.495C235.871 70.023 234.823 70.287 233.655 70.287ZM233.655 67.479C234.199 67.479 234.679 67.351 235.095 67.095C235.527 66.839 235.863 66.447 236.103 65.919C236.359 65.391 236.487 64.735 236.487 63.951C236.487 63.167 236.359 62.519 236.103 62.007C235.863 61.479 235.527 61.087 235.095 60.831C234.679 60.559 234.207 60.423 233.679 60.423C233.167 60.423 232.695 60.559 232.263 60.831C231.831 61.087 231.487 61.479 231.231 62.007C230.991 62.519 230.871 63.167 230.871 63.951C230.871 64.735 230.991 65.391 231.231 65.919C231.487 66.447 231.823 66.839 232.239 67.095C232.671 67.351 233.143 67.479 233.655 67.479ZM254.096 70.287C252.88 70.287 251.8 70.015 250.856 69.471C249.912 68.927 249.176 68.183 248.648 67.239C248.12 66.295 247.856 65.215 247.856 63.999C247.856 62.751 248.12 61.655 248.648 60.711C249.176 59.751 249.912 58.999 250.856 58.455C251.8 57.895 252.88 57.615 254.096 57.615C255.648 57.615 256.952 58.023 258.008 58.839C259.064 59.655 259.736 60.775 260.024 62.199H256.592C256.448 61.639 256.144 61.199 255.68 60.879C255.232 60.559 254.696 60.399 254.072 60.399C253.512 60.399 253.008 60.543 252.56 60.831C252.128 61.103 251.784 61.511 251.528 62.055C251.288 62.583 251.168 63.215 251.168 63.951C251.168 64.511 251.24 65.015 251.384 65.463C251.528 65.895 251.728 66.271 251.984 66.591C252.24 66.895 252.544 67.127 252.896 67.287C253.264 67.447 253.656 67.527 254.072 67.527C254.488 67.527 254.864 67.455 255.2 67.311C255.552 67.167 255.848 66.967 256.088 66.711C256.328 66.439 256.496 66.111 256.592 65.727H260.024C259.736 67.119 259.056 68.231 257.984 69.063C256.928 69.879 255.632 70.287 254.096 70.287ZM262.818 69.999V52.719H266.058V59.703C266.458 59.063 266.986 58.559 267.642 58.191C268.314 57.807 269.09 57.615 269.97 57.615C270.978 57.615 271.826 57.831 272.514 58.263C273.202 58.679 273.722 59.287 274.074 60.087C274.426 60.887 274.602 61.879 274.602 63.063V69.999H271.386V63.351C271.386 62.391 271.186 61.655 270.786 61.143C270.386 60.615 269.754 60.351 268.89 60.351C268.362 60.351 267.882 60.479 267.45 60.735C267.018 60.991 266.674 61.367 266.418 61.863C266.178 62.343 266.058 62.919 266.058 63.591V69.999H262.818ZM283.462 70.287C282.246 70.287 281.166 70.031 280.222 69.519C279.294 68.991 278.566 68.263 278.038 67.335C277.526 66.391 277.27 65.303 277.27 64.071C277.27 62.807 277.526 61.695 278.038 60.735C278.566 59.759 279.294 58.999 280.222 58.455C281.15 57.895 282.23 57.615 283.462 57.615C284.662 57.615 285.71 57.879 286.606 58.407C287.502 58.935 288.198 59.647 288.694 60.543C289.19 61.439 289.438 62.455 289.438 63.591C289.438 63.751 289.438 63.935 289.438 64.143C289.438 64.335 289.422 64.535 289.39 64.743H279.574V62.775H286.174C286.126 61.991 285.846 61.375 285.334 60.927C284.838 60.479 284.214 60.255 283.462 60.255C282.918 60.255 282.414 60.383 281.95 60.639C281.486 60.879 281.118 61.255 280.846 61.767C280.59 62.279 280.462 62.927 280.462 63.711V64.407C280.462 65.063 280.582 65.639 280.822 66.135C281.078 66.615 281.43 66.991 281.878 67.263C282.326 67.519 282.846 67.647 283.438 67.647C284.03 67.647 284.518 67.519 284.902 67.263C285.302 67.007 285.598 66.679 285.79 66.279H289.102C288.878 67.031 288.502 67.711 287.974 68.319C287.446 68.927 286.798 69.407 286.03 69.759C285.262 70.111 284.406 70.287 283.462 70.287ZM301.404 75.279V68.319C301.02 68.895 300.508 69.367 299.868 69.735C299.244 70.103 298.468 70.287 297.54 70.287C296.42 70.287 295.42 70.015 294.54 69.471C293.66 68.911 292.964 68.151 292.452 67.191C291.956 66.231 291.708 65.151 291.708 63.951C291.708 62.735 291.964 61.655 292.476 60.711C292.988 59.751 293.684 58.999 294.564 58.455C295.444 57.895 296.436 57.615 297.54 57.615C298.148 57.615 298.692 57.695 299.172 57.855C299.652 57.999 300.076 58.215 300.444 58.503C300.828 58.775 301.148 59.103 301.404 59.487L301.764 57.903H304.644V75.279H301.404ZM298.236 67.455C298.876 67.455 299.436 67.311 299.916 67.023C300.412 66.719 300.796 66.303 301.068 65.775C301.34 65.247 301.476 64.639 301.476 63.951C301.476 63.263 301.34 62.655 301.068 62.127C300.796 61.599 300.412 61.191 299.916 60.903C299.436 60.599 298.876 60.447 298.236 60.447C297.628 60.447 297.076 60.599 296.58 60.903C296.084 61.191 295.692 61.599 295.404 62.127C295.132 62.655 294.996 63.255 294.996 63.927C294.996 64.631 295.132 65.247 295.404 65.775C295.692 66.303 296.076 66.719 296.556 67.023C297.052 67.311 297.612 67.455 298.236 67.455ZM312.33 70.287C311.354 70.287 310.514 70.087 309.81 69.687C309.122 69.271 308.594 68.671 308.226 67.887C307.858 67.087 307.674 66.103 307.674 64.935V57.903H310.914V64.599C310.914 65.575 311.114 66.311 311.514 66.807C311.93 67.303 312.562 67.551 313.41 67.551C313.954 67.551 314.434 67.431 314.85 67.191C315.266 66.935 315.594 66.575 315.834 66.111C316.09 65.631 316.218 65.047 316.218 64.359V57.903H319.434V69.999H316.602L316.338 68.031C315.986 68.719 315.466 69.271 314.778 69.687C314.09 70.087 313.274 70.287 312.33 70.287ZM328.415 70.287C327.199 70.287 326.119 70.031 325.175 69.519C324.247 68.991 323.519 68.263 322.991 67.335C322.479 66.391 322.223 65.303 322.223 64.071C322.223 62.807 322.479 61.695 322.991 60.735C323.519 59.759 324.247 58.999 325.175 58.455C326.103 57.895 327.183 57.615 328.415 57.615C329.615 57.615 330.663 57.879 331.559 58.407C332.455 58.935 333.151 59.647 333.647 60.543C334.143 61.439 334.391 62.455 334.391 63.591C334.391 63.751 334.391 63.935 334.391 64.143C334.391 64.335 334.375 64.535 334.343 64.743H324.527V62.775H331.127C331.079 61.991 330.799 61.375 330.287 60.927C329.791 60.479 329.167 60.255 328.415 60.255C327.871 60.255 327.367 60.383 326.903 60.639C326.439 60.879 326.071 61.255 325.799 61.767C325.543 62.279 325.415 62.927 325.415 63.711V64.407C325.415 65.063 325.535 65.639 325.775 66.135C326.031 66.615 326.383 66.991 326.831 67.263C327.279 67.519 327.799 67.647 328.391 67.647C328.983 67.647 329.471 67.519 329.855 67.263C330.255 67.007 330.551 66.679 330.743 66.279H334.055C333.831 67.031 333.455 67.711 332.927 68.319C332.399 68.927 331.751 69.407 330.983 69.759C330.215 70.111 329.359 70.287 328.415 70.287Z" fill="#14A3C7"/>
</svg>
