<svg width="120" height="120" viewBox="0 0 120 120" fill="none" xmlns="http://www.w3.org/2000/svg">
<path d="M108.7 30.5117L75.2323 49.558C74.7698 49.9924 74.6073 50.3424 74.5354 50.9705C74.2698 53.2236 74.2354 60.2609 74.5292 62.4733C74.7042 63.8014 76.1166 64.3733 77.2885 63.8014L110.175 44.8957C110.634 44.4582 110.797 44.1113 110.872 43.4832C111.122 41.3708 111.169 34.0272 110.853 32.0085C110.684 30.9335 109.738 30.3117 108.7 30.5148V30.5117ZM107.35 42.6551L78.0541 59.2953V51.7955L107.35 35.3897V42.6551Z" fill="white"/>
<path d="M119.538 79.7979L119.55 15.809C119.228 11.1372 116.125 9.57788 112.035 11.8434C110.635 10.8216 106.866 5.95297 105.491 5.72485C103.416 5.38423 97.7381 8.32791 95.3975 8.67165V1.52496C95.3975 1.03435 94.635 0.284368 94.2257 0H93.0538C80.5323 4.99362 69.1826 13.5434 62.6984 25.54L59.6578 31.8742C54.2892 16.7621 41.1364 5.74673 26.4931 0H25.3212C24.9119 0.281243 24.1494 1.03122 24.1494 1.52496V8.67477C21.8744 7.97479 19.6589 7.06232 17.3527 6.44983C16.5121 6.22796 14.8215 5.60298 14.0559 5.7311C12.6809 5.9561 8.91227 10.8278 7.5123 11.8497C3.42491 9.57788 0.321867 11.1372 0 15.809V87.7821C0.281243 91.8289 1.69996 91.9695 4.77488 93.7882C18.787 102.075 33.3648 109.453 47.3769 117.747C48.3394 118.575 50.005 118.047 50.7237 118.178C51.0799 118.241 52.3799 119.947 53.2111 120H66.3358C67.2889 119.897 68.2076 118.431 68.6857 118.234C69.0357 118.091 69.6794 118.403 70.195 118.372C71.6169 118.288 74.2668 116.559 75.6355 115.819C89.9852 108.053 104.054 99.6474 118.256 91.6445C118.516 91.2976 118.841 90.9195 119.009 90.5226C119.678 88.9446 119.791 82.2072 119.534 79.7979H119.538ZM91.882 4.45301V10.3122C84.3447 13.1528 77.4542 17.5402 71.145 22.5057L65.8639 27.3024C71.3044 16.8246 81.0791 8.94664 91.882 4.45301ZM27.6649 4.45301C36.6334 8.11541 45.0582 14.4121 50.6862 22.3307C51.7893 23.8838 53.0455 25.6337 53.6799 27.4212C53.6799 27.4212 44.7051 18.237 27.668 10.3122V4.45301H27.6649ZM50.1643 114.606L49.3831 114.778L3.75928 89.2945V14.6496L4.34051 14.2903L50.1643 40.1958V114.606ZM52.6268 37.2647L10.8935 13.8309C10.6716 13.559 10.8716 13.4403 11.0153 13.234C11.8341 12.0466 13.7528 10.831 14.6559 9.58725L15.0277 9.47788C19.5714 10.6966 24.1244 12.0997 28.2961 14.2559C39.8615 20.2338 47.8269 26.5993 47.8269 26.5993C51.2455 29.6524 54.5361 33.3898 56.9641 37.2678H52.6268V37.2647ZM65.867 116.128L65.517 116.478H54.033L53.683 116.128V111.791H65.8702V116.128H65.867ZM65.867 108.278H53.6799V104.06H65.867V108.278ZM65.867 100.544H53.6799V56.7173H65.867V100.544ZM65.867 53.2017H53.6799V48.9831H65.867V53.2017ZM65.867 45.4676H53.6799V41.1302L54.0298 40.7802H65.5139L65.8639 41.1302V45.4676H65.867ZM66.9233 37.2647H62.5859C72.0356 22.8557 88.4227 14.0965 104.663 9.46538L108.744 13.684L66.9201 37.2647H66.9233ZM115.75 89.257L70.6482 114.581L69.6263 114.835L69.3732 113.563L69.5013 40.0771L115.209 14.2903L115.791 14.6496V79.7698C115.428 82.4697 116.153 87.2259 115.753 89.2602L115.75 89.257Z" fill="white"/>
<path d="M57.8927 88.2477C58.1927 91.8101 61.3145 91.8039 61.6489 88.4696C62.2958 82.0197 61.3052 74.3168 61.4895 67.7764C61.2302 66.5983 60.4333 66.1139 59.2427 66.3733C58.2521 66.5889 58.0396 67.692 57.899 68.5514C58.3052 74.9262 57.3584 81.9541 57.8927 88.2477Z" fill="white"/>
</svg>
