<svg xmlns="http://www.w3.org/2000/svg" width="344.192" height="70.429" viewBox="0 0 344.192 70.429"><g transform="translate(1142.192 581.714)"><rect width="344.192" height="70.429" transform="translate(-1142.192 -581.714)" fill="none"/><path d="M2.051,0H8.707c5.063,0,7.934-3.094,7.934-8.555v-.023c0-5.3-2.906-8.332-7.934-8.332H2.051ZM5.59-2.918V-13.992H8.145c3.07,0,4.887,1.992,4.887,5.473V-8.5c0,3.609-1.758,5.578-4.887,5.578ZM25.383.27c3.973,0,6.363-2.508,6.363-6.715v-.023c0-4.172-2.426-6.715-6.363-6.715S19.02-10.629,19.02-6.469v.023C19.02-2.25,21.41.27,25.383.27Zm0-2.684c-1.828,0-2.859-1.488-2.859-4.031v-.023c0-2.52,1.043-4.031,2.859-4.031s2.859,1.512,2.859,4.031v.023C28.242-3.9,27.2-2.414,25.383-2.414ZM34.523,0h3.422V-7.465c0-1.746.961-2.883,2.543-2.883,1.617,0,2.367.961,2.367,2.777V0h3.422V-8.344c0-3.082-1.547-4.84-4.418-4.84a3.749,3.749,0,0,0-3.7,2.273h-.211V-12.9H34.523ZM53.1.2a4.044,4.044,0,0,0,3.7-1.91h.211V0h3.375V-8.812c0-2.754-1.934-4.371-5.355-4.371-3.246,0-5.379,1.5-5.648,3.762l-.012.105h3.164l.023-.047c.27-.762,1.055-1.2,2.285-1.2,1.406,0,2.168.633,2.168,1.746v1.066l-3.117.188c-3.211.188-5,1.547-5,3.867v.023C48.891-1.324,50.637.2,53.1.2ZM52.23-3.879V-3.9c0-.937.715-1.488,2.18-1.582l2.6-.164V-4.7a2.549,2.549,0,0,1-2.766,2.4C53.063-2.3,52.23-2.895,52.23-3.879ZM69.422.27c3.363,0,5.379-1.8,5.73-4.617l.012-.07H72l-.023.047a2.344,2.344,0,0,1-2.543,1.957c-1.828,0-2.848-1.441-2.848-4.055v-.023c0-2.578,1.008-4.008,2.848-4.008a2.37,2.37,0,0,1,2.543,2.074l.012.023,3.188-.035c-.3-2.883-2.332-4.746-5.754-4.746-4.043,0-6.316,2.449-6.316,6.691v.023C63.105-2.18,65.391.27,69.422.27Zm10.16-15.152a1.911,1.911,0,0,0,1.922-1.9,1.913,1.913,0,0,0-1.922-1.91,1.923,1.923,0,0,0-1.934,1.91A1.921,1.921,0,0,0,79.582-14.883ZM77.859,0h3.422V-12.9H77.859Zm12.6.27c3.973,0,6.363-2.508,6.363-6.715v-.023c0-4.172-2.426-6.715-6.363-6.715s-6.363,2.555-6.363,6.715v.023C84.094-2.25,86.484.27,90.457.27Zm0-2.684C88.629-2.414,87.6-3.9,87.6-6.445v-.023c0-2.52,1.043-4.031,2.859-4.031s2.859,1.512,2.859,4.031v.023C93.316-3.9,92.273-2.414,90.457-2.414ZM99.6,0h3.422V-7.465c0-1.746.961-2.883,2.543-2.883,1.617,0,2.367.961,2.367,2.777V0h3.422V-8.344c0-3.082-1.547-4.84-4.418-4.84a3.749,3.749,0,0,0-3.7,2.273h-.211V-12.9H99.6Zm25.852.2A4.017,4.017,0,0,0,129.3-2h.211V0h3.422V-17.836h-3.422v7H129.3a4.074,4.074,0,0,0-3.855-2.273c-3.27,0-5.238,2.5-5.238,6.645v.023C120.211-2.32,122.227.2,125.449.2Zm1.16-2.836c-1.8,0-2.918-1.43-2.918-3.809v-.023c0-2.355,1.113-3.809,2.918-3.809s2.941,1.453,2.941,3.82v.023C129.551-4.066,128.426-2.637,126.609-2.637ZM142.148.27c3.773,0,5.438-2.18,5.836-3.8l.023-.117H144.82l-.035.07a2.784,2.784,0,0,1-2.566,1.289c-1.816,0-2.953-1.23-2.988-3.352h8.883V-6.7c0-3.9-2.344-6.48-6.105-6.48s-6.164,2.637-6.164,6.738v.012C135.844-2.3,138.223.27,142.148.27Zm-.082-10.887c1.488,0,2.555.961,2.766,2.836h-5.566C139.477-9.609,140.578-10.617,142.066-10.617ZM160.605.2a4.044,4.044,0,0,0,3.7-1.91h.211V0h3.375V-8.812c0-2.754-1.934-4.371-5.355-4.371-3.246,0-5.379,1.5-5.648,3.762l-.012.105h3.164l.023-.047c.27-.762,1.055-1.2,2.285-1.2,1.406,0,2.168.633,2.168,1.746v1.066l-3.117.188c-3.211.188-5,1.547-5,3.867v.023C156.4-1.324,158.145.2,160.605.2Zm-.867-4.078V-3.9c0-.937.715-1.488,2.18-1.582l2.6-.164V-4.7a2.549,2.549,0,0,1-2.766,2.4C160.57-2.3,159.738-2.895,159.738-3.879ZM176.93.27c3.363,0,5.379-1.8,5.73-4.617l.012-.07h-3.164l-.023.047a2.344,2.344,0,0,1-2.543,1.957c-1.828,0-2.848-1.441-2.848-4.055v-.023c0-2.578,1.008-4.008,2.848-4.008a2.37,2.37,0,0,1,2.543,2.074l.012.023h3.188v-.035c-.3-2.883-2.332-4.746-5.754-4.746-4.043,0-6.316,2.449-6.316,6.691v.023C170.613-2.18,172.9.27,176.93.27Zm14.1,0c3.363,0,5.379-1.8,5.73-4.617l.012-.07h-3.164l-.023.047a2.344,2.344,0,0,1-2.543,1.957c-1.828,0-2.848-1.441-2.848-4.055v-.023c0-2.578,1.008-4.008,2.848-4.008a2.37,2.37,0,0,1,2.543,2.074l.012.023h3.188v-.035c-.3-2.883-2.332-4.746-5.754-4.746-4.043,0-6.316,2.449-6.316,6.691v.023C184.711-2.18,187,.27,191.027.27Zm10.16-15.152a1.911,1.911,0,0,0,1.922-1.9,1.913,1.913,0,0,0-1.922-1.91,1.923,1.923,0,0,0-1.934,1.91A1.921,1.921,0,0,0,201.188-14.883ZM199.465,0h3.422V-12.9h-3.422Zm12.6.27c3.973,0,6.363-2.508,6.363-6.715v-.023c0-4.172-2.426-6.715-6.363-6.715S205.7-10.629,205.7-6.469v.023C205.7-2.25,208.09.27,212.063.27Zm0-2.684c-1.828,0-2.859-1.488-2.859-4.031v-.023c0-2.52,1.043-4.031,2.859-4.031s2.859,1.512,2.859,4.031v.023C214.922-3.9,213.879-2.414,212.063-2.414ZM221.2,0h3.422V-7.465c0-1.746.961-2.883,2.543-2.883,1.617,0,2.367.961,2.367,2.777V0h3.422V-8.344c0-3.082-1.547-4.84-4.418-4.84a3.749,3.749,0,0,0-3.7,2.273h-.211V-12.9H221.2Zm20.73.27c3.773,0,5.438-2.18,5.836-3.8l.023-.117h-3.187l-.035.07A2.784,2.784,0,0,1,242-2.285c-1.816,0-2.953-1.23-2.988-3.352H247.9V-6.7c0-3.9-2.344-6.48-6.105-6.48s-6.164,2.637-6.164,6.738v.012C235.629-2.3,238.008.27,241.934.27Zm-.082-10.887c1.488,0,2.555.961,2.766,2.836h-5.566C239.262-9.609,240.363-10.617,241.852-10.617ZM255.82.27c3.3,0,5.66-1.664,5.66-4.219v-.012c0-1.91-1.207-2.988-3.785-3.539l-2.145-.457c-1.336-.293-1.816-.691-1.816-1.383v-.012c0-.867.844-1.418,2.027-1.418a2.121,2.121,0,0,1,2.227,1.336l.012.059h3.176v-.047c-.141-2.074-2.016-3.762-5.4-3.762-3.223,0-5.379,1.617-5.379,4.043v.012c0,1.934,1.219,3.141,3.68,3.668L256.23-5c1.313.293,1.828.727,1.828,1.418v.023c0,.855-.891,1.418-2.2,1.418a2.274,2.274,0,0,1-2.4-1.371l-.023-.047h-3.363l.012.047C250.324-1.3,252.316.27,255.82.27Z" transform="translate(-1061 -538)" fill="#14a2c7"/><g transform="translate(-1355 -639.112)"><g transform="translate(-148.46 -119.813)"><path d="M380.231,239.542,374.8,217.016l-9.114,2.243,5.422,22.527Z" fill="#14a2c7"/><path d="M381.367,238.088l4.133.206a38.329,38.329,0,0,0,11.142-1.064l17.464-4.292a1.454,1.454,0,0,0-.688-2.825l-.21.051-13.761,3.013a1.279,1.279,0,0,1-1.551-.946,1.294,1.294,0,0,1,.937-1.567l13.761-3.013,4.809-1.178a1.448,1.448,0,0,0,1.054-1.755,1.394,1.394,0,0,0-.646-.9,1.415,1.415,0,0,0-1.079-.17l-3.63.891-17.756,3.766a1.294,1.294,0,0,1-.619-2.513l17.779-3.766.4-.094,4.963-1.21a1.4,1.4,0,0,0,.887-.651,1.456,1.456,0,0,0,.168-1.09,1.433,1.433,0,0,0-1.744-1.066l-1.712.42-3.505.859-.979.245-15.56,3.27a1.279,1.279,0,0,1-1.552-.946,1.294,1.294,0,0,1,.938-1.567l16.229-3.439,3.81-.934a1.461,1.461,0,0,0,1.056-1.761,1.391,1.391,0,0,0-.64-.89,1.411,1.411,0,0,0-1.08-.176l-6.662,1.636a1.279,1.279,0,0,1-1.552-.946,1.293,1.293,0,0,1,.937-1.566l6.664-1.636a3.912,3.912,0,0,1,3.021.477,4.054,4.054,0,0,1,1.813,2.495,4.1,4.1,0,0,1-.014,1.924,4.058,4.058,0,0,1,2.545,6.04,4.1,4.1,0,0,1-.845.991,3.959,3.959,0,0,1,.869,1.7,4.08,4.08,0,0,1-1.334,4.061,3.97,3.97,0,0,1-1.612.814l-.975.244a4.394,4.394,0,0,1,.6,1.335,4.084,4.084,0,0,1-1.341,4.055,3.847,3.847,0,0,1-1.607.814l-17.47,4.292a40.9,40.9,0,0,1-11.869,1.141l-4.9-.251-8.946,2.193a1.278,1.278,0,0,1-1.551-.946l-5.393-22.52a1.288,1.288,0,0,1,.149-.977,1.262,1.262,0,0,1,.788-.589l9.114-2.249a1.286,1.286,0,0,1,1.557.945Zm-14.009-18.1,4.827,20.021,6.632-1.623-4.827-20.021Z" fill="#14a2c7"/><path d="M383.631,207.648l40.345-21.261,10.566,20.458L394.2,228.106l-5.98-11.585,7.984-4.243c1.4-.327,2.277-.877,2.606-1.66a3.372,3.372,0,0,0-.063-2.255l-13.153,3.076Z" fill="#ececec" fill-rule="evenodd"/><path d="M383.2,206.814l40.346-21.254a.928.928,0,0,1,1.254.394l10.565,20.458a.945.945,0,0,1-.4,1.267l-40.344,21.255a.927.927,0,0,1-1.254-.4l-4.945-9.58-.434-2.313,1.042-.558,5.551,10.753,38.7-20.39-9.7-18.8-38.7,20.39,1.638,3.177-1.868.439-1.849-3.578a.944.944,0,0,1,.4-1.265Z" fill="#14a2c7"/><path d="M413.23,214.435a8.634,8.634,0,0,0,3.61-11.6,8.477,8.477,0,0,0-11.483-3.647,8.648,8.648,0,0,0-3.61,11.6,8.47,8.47,0,0,0,11.483,3.648Z" fill="#14a2c7" fill-rule="evenodd"/><path d="M412.492,213a7.014,7.014,0,0,0,2.929-9.412,6.871,6.871,0,0,0-9.318-2.958,7.01,7.01,0,0,0-2.93,9.412A6.876,6.876,0,0,0,412.492,213Z" fill="#ececec" fill-rule="evenodd"/><path d="M376.962,212.943l-.509.827a4.474,4.474,0,0,1-2.823,2.018l-.248.056.608,2.526.192-.044a7.135,7.135,0,0,0,4.455-3.189l.509-.828a4.472,4.472,0,0,1,2.786-2.011l16.812-3.935a3.385,3.385,0,0,1,.063,2.255c-.329.783-1.2,1.334-2.606,1.66l-7.488,1.767a1.3,1.3,0,0,0-.819.621,1.369,1.369,0,0,0-.113,1.034,9.876,9.876,0,0,1-.65,7.006c-1.136,2.011-3.251,3.4-6.291,4.124a1.306,1.306,0,0,0-.962,1.554,1.29,1.29,0,0,0,1.54.964,14.7,14.7,0,0,0,4.522-1.811A9.9,9.9,0,0,0,389.352,224a11.925,11.925,0,0,0,1.16-7.714l6.254-1.473c2.234-.521,3.709-1.585,4.381-3.17,1.079-2.545-.5-5.3-.566-5.433a1.269,1.269,0,0,0-1.39-.6l-17.855,4.167a7.149,7.149,0,0,0-4.374,3.172Z" fill="#14a2c7"/><path d="M35.653,56.6v.8c1.717-.241,2.645.692,2.406,2.406h-1.6v-.8h-.8v1.6c1.308-.124,2.3.206,2.41,1.649.144,1.958-.028,3.414-2.411,3.161v.8h-1.6v-.8c-1.717.241-2.645-.692-2.406-2.406h1.6v.8h.8v-1.6c-1.308.124-2.3-.206-2.41-1.649-.144-1.958.028-3.414,2.411-3.161v-.8Zm-1.6,2.406h-.8v1.6h.8Zm2.406,3.208h-.8v1.6h.8Z" transform="translate(374.445 145.399)" fill="#14a3c7"/></g></g><path d="M203.456,23.871l-.288-2.136,5.256-3,.384,2.472Z" transform="translate(-1176.767 -576.386)" fill="#14a3c7"/></g></svg>