<svg width="125" height="110" viewBox="0 0 125 110" fill="none" xmlns="http://www.w3.org/2000/svg">
<path d="M0 2.89316C0.773926 1.44153 1.53809 0.480292 3.29102 0.204605C10.4541 0.704744 18.4644 -0.439476 25.5225 0.199726C27.4316 0.372945 28.4521 1.12925 29.1724 2.89316L31.8774 14.8599L121.709 14.8404C123.462 15.1161 124.224 16.0797 125 17.5289V19.4807L109.724 71.6732C108.94 72.7028 107.922 73.3835 106.577 73.4079L39.9097 73.3908C35.4736 74.2032 35.5981 79.895 39.9097 80.7221L107.283 80.7318C110.078 81.2564 111.313 84.6085 109.485 86.8067C109.26 87.0751 107.708 88.0363 107.542 88.0363H100.583L103.333 88.8268C113.254 92.6254 112.312 107.32 101.858 109.681C88.6475 112.668 82.9175 93.8087 95.3931 88.8268L98.1421 88.0363H48.8257L51.5747 88.8268C61.4966 92.6254 60.5542 107.32 50.1001 109.681C36.8896 112.668 31.1597 93.8087 43.6353 88.8268L46.3843 88.0363H39.1821C36.3257 88.0363 32.3975 85.2477 30.957 82.8373C27.7881 77.5358 29.2773 71.4463 34.1992 67.9283C34.7144 67.5599 35.8545 67.3379 35.874 66.7109L22.7344 7.67009L3.06885 7.51395C1.41113 7.12116 0.766602 6.24775 0.00244141 4.84492V2.89316H0ZM116.455 22.1668H33.4473L43.5693 66.0985L103.979 66.057L116.455 22.1668ZM50.21 96.4167C46.8188 93.028 41.6138 98.2318 45.0024 101.621C48.3911 105.009 53.5986 99.8055 50.21 96.4167ZM101.968 96.4167C98.5767 93.028 93.3716 98.2318 96.7603 101.621C100.151 105.009 105.356 99.8055 101.968 96.4167Z" fill="white"/>
</svg>
