<svg width="316" height="67" viewBox="0 0 316 67" fill="none" xmlns="http://www.w3.org/2000/svg">
<path d="M40.2966 35.5411C40.8106 39.8209 40.6281 43.3295 39.4325 45.2254C39.4325 45.2254 39.4325 45.2254 39.4325 45.2292C39.4325 45.2329 39.4325 45.2292 39.4325 45.2329C37.5627 49.4605 33.3314 52.4104 28.411 52.4104C21.7586 52.4104 16.3652 47.017 16.3652 40.3647C16.3652 33.7123 21.7586 28.3189 28.411 28.3189C29.7668 28.3189 31.0705 28.5424 32.2885 28.9558C32.3071 28.9633 32.3257 28.9707 32.3443 28.9744C32.4598 29.0154 32.5753 29.0564 32.6907 29.0974C32.7466 29.1197 32.8025 29.1421 32.8583 29.1644C31.9197 24.1546 32.4263 22.5977 32.4263 22.5977C32.985 17.8487 36.2553 13.9265 40.6467 12.4292C39.9875 13.1779 39.4325 14.0234 39.0004 14.9359C39.0004 14.9359 39.0004 14.9397 38.993 14.9471C38.993 14.9546 38.9855 14.962 38.9781 14.9769C38.9781 14.9844 38.9706 14.9918 38.9669 14.9993C38.9557 15.0216 38.9408 15.0551 38.9222 15.0924C38.9036 15.1334 38.8812 15.1818 38.8589 15.2414C38.8514 15.26 38.844 15.2786 38.8365 15.2972C38.2927 16.5525 37.9836 17.9269 37.9538 19.3684C37.7861 21.3537 37.8867 23.9796 38.6913 27.1754C39.4325 30.1179 39.9912 32.9674 40.2966 35.5374V35.5411Z" fill="#4CB573"/>
<path d="M37.2129 52.4141C37.2129 52.4141 42.3493 48.6633 43.3848 43.2289C44.4202 37.7945 43.1389 31.1831 43.3848 26.4415C43.6306 21.7 42.8894 17.4054 52.8642 12.9133C52.8642 12.9133 49.2102 14.8874 48.8154 20.4671C48.4206 26.0467 49.3108 36.2674 49.3108 37.1576C49.3108 38.0478 50.4469 47.7731 37.2129 52.4141Z" fill="#8E8E8E"/>
<path d="M65.1939 44.2125C60.7205 57.4353 48.2092 66.952 33.4779 66.952C14.9883 66.952 0 51.9637 0 33.4779C0 14.992 14.9883 0 33.4779 0C48.2129 0 60.7205 9.51668 65.1939 22.7395C60.8621 11.3232 49.822 3.20699 36.886 3.20699C20.1694 3.20699 6.61884 16.7576 6.61884 33.4741C6.61884 50.1907 20.1694 63.7413 36.886 63.7413C49.822 63.7413 60.8621 55.6251 65.1939 44.2088V44.2125Z" fill="#8E8E8E"/>
<path d="M75.5457 2.76343H74.5586V63.1972H75.5457V2.76343Z" fill="#8E8E8E"/>
<path d="M88.6992 24.002H97.9589C99.3035 24.002 100.454 24.1323 101.412 24.3893C102.369 24.6463 103.159 25.0635 103.777 25.6297C104.395 26.1958 104.853 26.9445 105.148 27.8682C105.442 28.792 105.587 29.9056 105.587 31.2168V35.7944C105.587 36.8113 105.498 37.776 105.315 38.6923C105.133 39.6048 104.79 40.4131 104.28 41.1096C103.769 41.8099 103.058 42.3649 102.145 42.7783C101.233 43.1918 100.041 43.4003 98.5772 43.4003H88.6992V24.0057V24.002ZM98.5772 40.2157C99.1992 40.2157 99.7207 40.0853 100.142 39.8283C100.562 39.5713 100.905 39.2324 101.162 38.8189C101.419 38.4055 101.602 37.9362 101.706 37.411C101.81 36.8858 101.862 36.3457 101.862 35.7944V31.2168C101.862 30.4048 101.792 29.7418 101.654 29.224C101.516 28.7063 101.293 28.2966 100.98 27.9949C100.67 27.6932 100.265 27.4808 99.7654 27.3617C99.2663 27.2425 98.6629 27.1791 97.9552 27.1791H92.4202V40.212H98.5735L98.5772 40.2157Z" fill="#4CB573"/>
<path d="M117.512 30.0135C118.357 30.2481 118.998 30.6318 119.437 31.1644C119.877 31.7008 120.167 32.4159 120.305 33.3098C120.443 34.2075 120.514 35.31 120.514 36.6211C120.514 37.9322 120.443 39.031 120.305 39.9175C120.167 40.804 119.877 41.5154 119.437 42.0518C118.998 42.5844 118.353 42.9681 117.512 43.2027C116.666 43.4374 115.538 43.5528 114.122 43.5528C112.707 43.5528 111.578 43.4374 110.733 43.2027C109.887 42.9718 109.246 42.5881 108.807 42.0518C108.367 41.5191 108.077 40.8077 107.939 39.9175C107.801 39.031 107.73 37.9322 107.73 36.6211C107.73 35.31 107.798 34.2075 107.939 33.3098C108.077 32.4122 108.367 31.697 108.807 31.1644C109.246 30.6318 109.887 30.2481 110.733 30.0135C111.578 29.7825 112.707 29.6633 114.122 29.6633C115.538 29.6633 116.666 29.7788 117.512 30.0135ZM112.416 32.3265C112.003 32.4457 111.686 32.6766 111.474 33.0119C111.258 33.3471 111.124 33.809 111.072 34.3937C111.019 34.9785 110.993 35.7309 110.993 36.6435C110.993 37.556 111.019 38.2973 111.072 38.8671C111.124 39.437 111.258 39.884 111.474 40.2118C111.69 40.5395 112.003 40.763 112.416 40.8859C112.83 41.0051 113.4 41.0685 114.122 41.0685C114.845 41.0685 115.415 41.0089 115.828 40.8859C116.241 40.7667 116.558 40.5395 116.77 40.2118C116.986 39.884 117.121 39.437 117.173 38.8671C117.225 38.2973 117.251 37.556 117.251 36.6435C117.251 35.7309 117.225 34.9785 117.173 34.3937C117.121 33.809 116.986 33.3471 116.77 33.0119C116.554 32.6766 116.241 32.4457 115.828 32.3265C115.415 32.2073 114.845 32.144 114.122 32.144C113.4 32.144 112.83 32.2036 112.416 32.3265Z" fill="#4CB573"/>
<path d="M132.197 43.3965V41.3032H132.093C131.903 41.7502 131.661 42.1227 131.37 42.4169C131.076 42.7112 130.741 42.9421 130.361 43.1134C129.981 43.2848 129.575 43.4002 129.146 43.4636C128.714 43.5232 128.267 43.553 127.802 43.553C127.128 43.553 126.513 43.4896 125.954 43.3593C125.396 43.2289 124.915 43.0129 124.52 42.7112C124.122 42.4095 123.813 42.0072 123.589 41.5081C123.366 41.009 123.254 40.3869 123.254 39.6457V29.8199H126.513V38.3793C126.513 38.8635 126.535 39.277 126.576 39.6196C126.617 39.966 126.718 40.2454 126.874 40.4614C127.031 40.6775 127.258 40.8339 127.56 40.927C127.861 41.0201 128.271 41.0686 128.789 41.0686C130.048 41.0686 130.912 40.7967 131.389 40.2529C131.862 39.709 132.1 38.8449 132.1 37.653V29.8162H135.359V43.3928H132.204L132.197 43.3965Z" fill="#4CB573"/>
<path d="M138.486 24.002H141.745V31.6302H141.876C142.047 31.2168 142.282 30.8815 142.572 30.6208C142.867 30.3638 143.194 30.1627 143.556 30.0248C143.917 29.887 144.304 29.7939 144.718 29.7418C145.131 29.6896 145.545 29.6635 145.958 29.6635C147.113 29.6635 148.037 29.82 148.726 30.1291C149.415 30.4383 149.94 30.8778 150.305 31.4477C150.666 32.0176 150.901 32.7029 151.001 33.5037C151.106 34.3046 151.158 35.2059 151.158 36.2079C151.158 37.2098 151.124 38.2081 151.054 39.1057C150.983 40.0034 150.782 40.7819 150.446 41.4449C150.111 42.1079 149.593 42.6256 148.893 42.9981C148.197 43.3705 147.217 43.5531 145.958 43.5531C144.993 43.5531 144.148 43.4115 143.425 43.1247C142.703 42.8379 142.133 42.2494 141.719 41.3517H141.615L141.745 43.3966H138.486V24.002ZM143.306 32.3789C142.885 32.5353 142.557 32.77 142.323 33.0903C142.092 33.4106 141.935 33.8278 141.857 34.3455C141.779 34.8633 141.742 35.4816 141.742 36.2079C141.742 37.0199 141.753 37.7239 141.779 38.3273C141.805 38.9307 141.917 39.4335 142.114 39.8395C142.312 40.2455 142.636 40.5509 143.083 40.7558C143.53 40.9644 144.17 41.0649 144.997 41.0649C145.738 41.0649 146.308 40.9569 146.703 40.7409C147.098 40.5248 147.385 40.212 147.556 39.7985C147.727 39.3851 147.828 38.8748 147.854 38.2714C147.88 37.668 147.891 36.9789 147.891 36.2042C147.891 35.3587 147.843 34.6696 147.75 34.1369C147.653 33.6043 147.5 33.1871 147.284 32.8966C147.068 32.6024 146.774 32.4049 146.405 32.3006C146.033 32.1964 145.563 32.1442 144.997 32.1442C144.289 32.1442 143.727 32.2224 143.302 32.3789H143.306Z" fill="#4CB573"/>
<path d="M157.232 43.3966H153.973V24.002H157.232V43.3966Z" fill="#4CB573"/>
<path d="M172.544 39.0758C172.544 40.1448 172.399 40.9755 172.105 41.5714C171.811 42.1674 171.39 42.6106 170.838 42.9049C170.287 43.1991 169.617 43.3779 168.834 43.4487C168.049 43.5157 167.173 43.553 166.209 43.553C164.916 43.553 163.858 43.4412 163.039 43.2177C162.219 42.9943 161.582 42.6143 161.124 42.0817C160.666 41.5491 160.357 40.8376 160.193 39.9474C160.029 39.0609 159.947 37.9621 159.947 36.651C159.947 35.4442 160.014 34.4013 160.156 33.5223C160.294 32.6432 160.584 31.9206 161.024 31.3507C161.463 30.7809 162.093 30.36 162.912 30.0843C163.732 29.8087 164.83 29.6709 166.209 29.6709C167.587 29.6709 168.723 29.7864 169.557 30.021C170.391 30.2557 171.032 30.6542 171.472 31.2241C171.911 31.794 172.198 32.565 172.339 33.5372C172.477 34.513 172.548 35.7385 172.548 37.2209H163.214C163.214 37.9435 163.232 38.5581 163.266 39.0572C163.3 39.5563 163.415 39.9549 163.616 40.2454C163.814 40.5397 164.115 40.7482 164.521 40.8786C164.927 41.009 165.49 41.0723 166.216 41.0723C166.663 41.0723 167.076 41.0648 167.456 41.0462C167.836 41.0276 168.16 40.9606 168.425 40.8376C168.693 40.7184 168.902 40.5173 169.058 40.2417C169.214 39.966 169.293 39.5787 169.293 39.0796H172.552L172.544 39.0758ZM169.285 35.1462C169.285 34.4572 169.252 33.9096 169.181 33.5036C169.11 33.0976 168.965 32.7959 168.741 32.5985C168.518 32.4011 168.205 32.2745 167.81 32.2223C167.412 32.1702 166.879 32.1441 166.205 32.1441C165.497 32.1441 164.946 32.1888 164.551 32.2745C164.152 32.3602 163.858 32.5166 163.657 32.7401C163.46 32.9636 163.333 33.269 163.281 33.6564C163.229 34.0437 163.203 34.5391 163.203 35.1425H169.281L169.285 35.1462Z" fill="#4CB573"/>
<path d="M206.02 24.002H215.279C216.624 24.002 217.775 24.1323 218.732 24.3893C219.689 24.6463 220.479 25.0635 221.097 25.6297C221.716 26.1958 222.174 26.9445 222.468 27.8682C222.762 28.792 222.907 29.9056 222.907 31.2168V35.7944C222.907 36.8113 222.818 37.776 222.636 38.6923C222.453 39.6048 222.11 40.4131 221.6 41.1096C221.09 41.8099 220.378 42.3649 219.466 42.7783C218.553 43.1918 217.361 43.4003 215.898 43.4003H206.02V24.0057V24.002ZM215.898 40.2157C216.52 40.2157 217.041 40.0853 217.462 39.8283C217.883 39.5713 218.225 39.2324 218.482 38.8189C218.739 38.4055 218.922 37.9362 219.026 37.411C219.131 36.8858 219.183 36.3457 219.183 35.7944V31.2168C219.183 30.4048 219.112 29.7418 218.974 29.224C218.836 28.7063 218.613 28.2966 218.3 27.9949C217.991 27.6932 217.585 27.4808 217.086 27.3617C216.587 27.2425 215.983 27.1791 215.275 27.1791H209.741V40.212H215.894L215.898 40.2157Z" fill="#4CB573"/>
<path d="M234.826 30.0135C235.672 30.2481 236.312 30.6318 236.752 31.1644C237.191 31.7008 237.482 32.4159 237.62 33.3098C237.758 34.2075 237.828 35.31 237.828 36.6211C237.828 37.9322 237.758 39.031 237.62 39.9175C237.482 40.804 237.191 41.5154 236.752 42.0518C236.312 42.5844 235.672 42.9681 234.826 43.2027C233.981 43.4374 232.852 43.5528 231.44 43.5528C230.029 43.5528 228.896 43.4374 228.051 43.2027C227.205 42.9718 226.565 42.5881 226.125 42.0518C225.686 41.5191 225.395 40.8077 225.257 39.9175C225.12 39.031 225.049 37.9322 225.049 36.6211C225.049 35.31 225.116 34.2075 225.257 33.3098C225.395 32.4122 225.686 31.697 226.125 31.1644C226.565 30.6318 227.205 30.2481 228.051 30.0135C228.896 29.7825 230.025 29.6633 231.44 29.6633C232.856 29.6633 233.984 29.7788 234.826 30.0135ZM229.731 32.3265C229.317 32.4457 229.001 32.6766 228.788 33.0119C228.572 33.3471 228.438 33.809 228.386 34.3937C228.334 34.9785 228.308 35.7309 228.308 36.6435C228.308 37.556 228.334 38.2973 228.386 38.8671C228.438 39.437 228.572 39.884 228.788 40.2118C229.004 40.5395 229.317 40.763 229.731 40.8859C230.144 41.0051 230.714 41.0685 231.437 41.0685C232.159 41.0685 232.729 41.0089 233.143 40.8859C233.556 40.7667 233.869 40.5395 234.085 40.2118C234.301 39.884 234.435 39.437 234.487 38.8671C234.539 38.2973 234.566 37.556 234.566 36.6435C234.566 35.7309 234.539 34.9785 234.487 34.3937C234.435 33.809 234.301 33.3471 234.085 33.0119C233.869 32.6766 233.556 32.4457 233.143 32.3265C232.729 32.2073 232.159 32.144 231.437 32.144C230.714 32.144 230.144 32.2036 229.731 32.3265Z" fill="#4CB573"/>
<path d="M243.826 29.8199V31.8611H243.93C244.101 31.362 244.336 30.9634 244.63 30.6729C244.924 30.3787 245.256 30.1589 245.625 30.0136C245.993 29.8684 246.396 29.7715 246.828 29.7306C247.26 29.6896 247.714 29.6672 248.198 29.6672C249.096 29.6672 249.841 29.7641 250.437 29.9503C251.033 30.1403 251.51 30.4271 251.871 30.8182C252.232 31.2055 252.486 31.7009 252.635 32.3043C252.78 32.9078 252.854 33.6229 252.854 34.4498V43.3966H249.595V34.785C249.595 34.3008 249.562 33.8911 249.491 33.5559C249.42 33.2206 249.297 32.9487 249.115 32.7401C248.932 32.5316 248.675 32.3826 248.34 32.2857C248.005 32.1926 247.576 32.1442 247.059 32.1442C246.351 32.1442 245.781 32.2261 245.353 32.39C244.921 32.5539 244.593 32.796 244.369 33.1126C244.146 33.4329 243.997 33.8278 243.93 34.3008C243.859 34.7738 243.826 35.3139 243.826 35.9173V43.3929H240.566V29.8162H243.826V29.8199Z" fill="#4CB573"/>
<path d="M264.903 41.6905H264.825C264.669 42.1374 264.434 42.4876 264.114 42.7371C263.793 42.9867 263.439 43.1729 263.052 43.2921C262.665 43.4113 262.259 43.4858 261.838 43.5119C261.413 43.5379 261.007 43.5491 260.609 43.5491C259.834 43.5491 259.134 43.497 258.515 43.3927C257.897 43.2884 257.364 43.0835 256.925 42.7707C256.485 42.4615 256.143 42.022 255.904 41.4521C255.662 40.8822 255.543 40.141 255.543 39.2284C255.543 38.4164 255.651 37.746 255.867 37.2096C256.083 36.677 256.4 36.2487 256.824 35.9283C257.245 35.608 257.77 35.3845 258.4 35.2541C259.029 35.1238 259.767 35.0605 260.612 35.0605C261.026 35.0605 261.435 35.0679 261.841 35.0865C262.247 35.1052 262.627 35.1648 262.981 35.269C263.335 35.3733 263.659 35.5261 263.95 35.7346C264.244 35.9432 264.482 36.2338 264.672 36.6137H264.777V34.8556C264.777 34.3043 264.754 33.8388 264.713 33.4588C264.669 33.0789 264.549 32.7735 264.352 32.5425C264.155 32.3079 263.86 32.1403 263.473 32.0397C263.086 31.9354 262.557 31.8833 261.882 31.8833C261.521 31.8833 261.186 31.9019 260.873 31.9354C260.564 31.9689 260.292 32.0472 260.057 32.1701C259.826 32.2893 259.644 32.4792 259.514 32.74C259.383 32.997 259.32 33.3434 259.32 33.7754H256.061C256.061 32.7921 256.221 32.0248 256.537 31.4735C256.858 30.9223 257.279 30.5126 257.804 30.2444C258.329 29.9762 258.947 29.8123 259.651 29.7527C260.359 29.6931 261.1 29.6633 261.875 29.6633C262.963 29.6633 263.894 29.7229 264.669 29.8458C265.443 29.965 266.084 30.2071 266.583 30.5684C267.082 30.9297 267.451 31.4549 267.682 32.1477C267.913 32.8368 268.032 33.7494 268.032 34.8891V43.3964H264.773L264.903 41.6905ZM260.609 37.3176C260.247 37.3363 259.931 37.4033 259.666 37.5262C259.398 37.6454 259.189 37.8428 259.033 38.1073C258.877 38.3755 258.798 38.7479 258.798 39.2322C258.798 39.7164 258.851 40.0963 258.955 40.3719C259.059 40.6476 259.227 40.8599 259.458 41.0051C259.692 41.1504 259.998 41.2435 260.374 41.277C260.754 41.3106 261.219 41.3292 261.771 41.3292C262.203 41.3292 262.601 41.3106 262.974 41.277C263.343 41.2435 263.663 41.1504 263.931 41.0051C264.199 40.8599 264.404 40.6476 264.553 40.3719C264.698 40.0963 264.773 39.7164 264.773 39.2322C264.773 38.7479 264.691 38.4015 264.527 38.1334C264.363 37.8652 264.143 37.6715 263.868 37.5523C263.592 37.4331 263.272 37.3586 262.91 37.3325C262.549 37.3065 262.169 37.2953 261.774 37.2953C261.38 37.2953 260.974 37.3027 260.612 37.3214L260.609 37.3176Z" fill="#4CB573"/>
<path d="M269.611 29.8198H271.317V26.7432H274.576V29.8198H279.776V32.3042H274.576V39.262C274.576 39.5711 274.584 39.8393 274.602 40.0628C274.621 40.2863 274.677 40.4762 274.77 40.6327C274.863 40.7891 275.005 40.9009 275.184 40.9679C275.366 41.0387 275.627 41.0722 275.973 41.0722C276.439 41.0722 276.785 40.9903 277.009 40.8264C277.232 40.6625 277.389 40.4427 277.474 40.1671C277.56 39.8915 277.605 39.5898 277.605 39.262V38.2004H280.476C280.495 39.2359 280.432 40.0926 280.294 40.7742C280.156 41.4558 279.914 42.0034 279.571 42.4168C279.225 42.8303 278.759 43.1245 278.174 43.2959C277.59 43.4672 276.856 43.5529 275.977 43.5529C275.098 43.5529 274.334 43.4933 273.738 43.3704C273.142 43.2474 272.666 43.0314 272.304 42.7111C271.943 42.3907 271.686 41.9587 271.541 41.4037C271.395 40.8524 271.321 40.1447 271.321 39.2843V32.3005H269.615V29.8161L269.611 29.8198Z" fill="#4CB573"/>
<path d="M285.333 26.7694H282.074V24.002H285.333V26.7694ZM285.333 43.3966H282.074V29.82H285.333V43.3966Z" fill="#4CB573"/>
<path d="M297.67 30.0135C298.515 30.2481 299.156 30.6318 299.596 31.1644C300.035 31.7008 300.322 32.4159 300.463 33.3098C300.601 34.2075 300.672 35.31 300.672 36.6211C300.672 37.9322 300.601 39.031 300.463 39.9175C300.326 40.804 300.035 41.5154 299.596 42.0518C299.156 42.5844 298.512 42.9681 297.67 43.2027C296.824 43.4374 295.696 43.5528 294.28 43.5528C292.865 43.5528 291.736 43.4374 290.891 43.2027C290.045 42.9718 289.405 42.5881 288.965 42.0518C288.526 41.5191 288.235 40.8077 288.097 39.9175C287.959 39.031 287.889 37.9322 287.889 36.6211C287.889 35.31 287.956 34.2075 288.097 33.3098C288.235 32.4122 288.526 31.697 288.965 31.1644C289.405 30.6318 290.045 30.2481 290.891 30.0135C291.736 29.7825 292.865 29.6633 294.28 29.6633C295.696 29.6633 296.824 29.7788 297.67 30.0135ZM292.574 32.3265C292.161 32.4457 291.844 32.6766 291.632 33.0119C291.416 33.3471 291.282 33.809 291.23 34.3937C291.178 34.9785 291.152 35.7309 291.152 36.6435C291.152 37.556 291.178 38.2973 291.23 38.8671C291.282 39.437 291.416 39.884 291.632 40.2118C291.848 40.5395 292.161 40.763 292.574 40.8859C292.988 41.0051 293.558 41.0685 294.28 41.0685C295.003 41.0685 295.573 41.0089 295.986 40.8859C296.4 40.7667 296.713 40.5395 296.929 40.2118C297.145 39.884 297.279 39.437 297.331 38.8671C297.383 38.2973 297.409 37.556 297.409 36.6435C297.409 35.7309 297.383 34.9785 297.331 34.3937C297.279 33.809 297.145 33.3471 296.929 33.0119C296.713 32.6766 296.4 32.4457 295.986 32.3265C295.573 32.2073 295.003 32.144 294.28 32.144C293.558 32.144 292.988 32.2036 292.574 32.3265Z" fill="#4CB573"/>
<path d="M306.667 29.8199V31.8611H306.772C306.943 31.362 307.178 30.9634 307.472 30.6729C307.766 30.3824 308.098 30.1589 308.466 30.0136C308.835 29.8684 309.237 29.7715 309.669 29.7306C310.102 29.6896 310.556 29.6672 311.04 29.6672C311.938 29.6672 312.683 29.7641 313.279 29.9503C313.875 30.1403 314.351 30.4271 314.713 30.8182C315.074 31.2055 315.327 31.7009 315.476 32.3043C315.622 32.9078 315.696 33.6229 315.696 34.4498V43.3966H312.437V34.785C312.437 34.3008 312.403 33.8911 312.333 33.5559C312.262 33.2206 312.139 32.9487 311.956 32.7401C311.774 32.5316 311.517 32.3826 311.182 32.2857C310.846 32.1926 310.418 32.1442 309.9 32.1442C309.193 32.1442 308.623 32.2261 308.194 32.39C307.762 32.5539 307.435 32.796 307.211 33.1126C306.988 33.4329 306.839 33.8278 306.772 34.3008C306.701 34.7738 306.667 35.3139 306.667 35.9173V43.3929H303.408V29.8162H306.667V29.8199Z" fill="#4CB573"/>
<path d="M184.94 35.1686C184.851 35.0978 184.75 35.0643 184.642 35.0643C184.62 35.0643 184.598 35.0643 184.575 35.068C184.352 35.0941 184.169 35.2766 184.028 35.6081C183.793 36.1296 183.517 36.6622 183.197 37.1986C182.713 38.0367 182.27 38.4836 181.882 38.532C181.852 38.532 181.826 38.5358 181.8 38.5358C181.692 38.5358 181.607 38.506 181.54 38.4426C181.454 38.3607 181.398 38.2229 181.376 38.0367C181.286 37.3103 181.484 36.1445 181.96 34.5764C182.288 33.485 182.676 32.4719 183.111 31.5668C183.391 31.4327 183.678 31.3023 183.968 31.1757C185.384 30.5686 185.719 30.4717 185.808 30.4643C186.3 30.3563 186.434 30.2818 186.49 30.2371C186.665 30.103 186.743 29.913 186.717 29.6858C186.669 29.2947 186.426 29.0899 186.017 29.0899C185.961 29.0899 185.901 29.0936 185.838 29.101C185.454 29.1495 184.873 29.3282 184.069 29.6448C184.184 29.4027 184.341 29.1048 184.534 28.7621C185.078 27.7825 185.115 27.4621 185.097 27.3057C185.082 27.1716 185.004 27.045 184.869 26.9295C184.743 26.8215 184.612 26.7656 184.493 26.7656C184.478 26.7656 184.46 26.7656 184.445 26.7656C184.262 26.788 184.08 26.9258 183.882 27.1865C183.756 27.3579 183.532 27.7266 183.223 28.2816C182.679 29.2575 182.285 30.0397 182.05 30.6058C181.7 30.7697 181.428 30.8777 181.242 30.9336C180.497 31.131 180.344 31.1943 180.292 31.2278C180.031 31.4066 179.912 31.6227 179.945 31.876C179.971 32.0883 180.102 32.2522 180.336 32.3639C180.459 32.4198 180.594 32.4496 180.735 32.4496C180.78 32.4496 180.828 32.4496 180.873 32.4421C180.962 32.4309 181.07 32.4049 181.208 32.3564C180.754 33.6303 180.482 34.4199 180.385 34.7589C179.957 36.2004 179.808 37.4556 179.934 38.4873C179.994 38.9716 180.135 39.3403 180.359 39.5899C180.672 39.9251 181.029 40.0964 181.42 40.0964C181.476 40.0964 181.536 40.0964 181.595 40.0853C182.437 39.981 183.286 39.195 184.121 37.7498C184.825 36.5356 185.149 35.7795 185.108 35.4405C185.097 35.34 185.041 35.2468 184.94 35.1574V35.1686Z" fill="#8E8E8E"/>
<path d="M198.608 33.7832C198.511 33.6901 198.411 33.6454 198.303 33.6454C198.288 33.6454 198.273 33.6454 198.258 33.6454C198.057 33.6715 197.848 33.8465 197.617 34.1855C196.451 35.9473 195.341 36.9045 194.317 37.0312C194.239 37.0423 194.164 37.0461 194.09 37.0461C193.751 37.0461 193.494 36.9418 193.304 36.722C193.207 36.614 193.151 36.4762 193.129 36.3086L193.11 36.1521C194.746 35.4183 195.923 34.3084 196.608 32.852C196.951 32.1369 197.092 31.5372 197.036 31.0716C196.999 30.755 196.843 30.5092 196.571 30.3415C196.399 30.241 196.217 30.1888 196.023 30.1888C195.978 30.1888 195.934 30.1888 195.885 30.1963C195.047 30.3006 194.135 30.9934 193.166 32.2598C192.57 33.0382 192.142 33.8093 191.889 34.5691C190.868 36.5693 190.317 37.0386 190.037 37.0759C190.019 37.0759 190 37.0759 189.982 37.0759C189.892 37.0759 189.799 37.0498 189.773 36.8561C189.747 36.6363 189.851 36.1782 190.086 35.4928C190.354 34.6958 190.782 33.7832 191.367 32.7738C191.688 32.2225 191.825 31.8314 191.796 31.5782C191.769 31.3733 191.661 31.202 191.468 31.0679C191.322 30.971 191.177 30.9189 191.036 30.9189C191.01 30.9189 190.984 30.9189 190.961 30.9226C190.589 30.9673 190.041 31.3211 189.281 31.9991C188.805 32.4274 188.335 32.9377 187.877 33.5113C188.082 32.7663 188.492 31.6042 189.099 30.0473C189.792 28.2557 190.518 26.5758 191.252 25.0599C191.486 24.6055 191.583 24.2591 191.55 24.0021C191.527 23.8307 191.46 23.678 191.349 23.5588C191.214 23.4061 191.065 23.3279 190.902 23.3279C190.879 23.3279 190.861 23.3279 190.838 23.3316C190.648 23.354 190.484 23.462 190.343 23.6557C190.213 23.8344 190.049 24.1548 189.844 24.639C189.006 26.5796 188.242 28.4755 187.583 30.2708C186.92 32.0475 186.223 34.2376 185.516 36.7704C185.128 38.1672 184.957 38.9866 184.99 39.2846C185.013 39.4783 185.095 39.6385 185.229 39.7614C185.344 39.8582 185.478 39.9066 185.627 39.9066C185.657 39.9066 185.687 39.9066 185.717 39.8992C185.992 39.8657 186.171 39.6496 186.246 39.2697C187.024 36.4501 188.149 34.4574 189.602 33.3437C189.181 34.3121 188.931 34.8932 188.842 35.1129C188.421 36.1558 188.257 37.0721 188.354 37.8394C188.384 38.0927 188.469 38.3162 188.603 38.5099C188.793 38.793 189.062 38.9345 189.389 38.9345C189.438 38.9345 189.49 38.9345 189.542 38.9233C189.907 38.8786 190.302 38.6738 190.712 38.3087C191.062 37.9884 191.397 37.5936 191.71 37.128C191.803 37.5042 191.967 37.8096 192.194 38.0331C192.559 38.3795 193.013 38.5546 193.535 38.5546C193.636 38.5546 193.744 38.5471 193.852 38.5359C194.485 38.4577 195.148 38.1746 195.833 37.6867C196.507 37.2062 197.137 36.6065 197.699 35.9063C198.44 34.99 198.779 34.368 198.735 34.0067C198.724 33.9247 198.683 33.8465 198.604 33.7646L198.608 33.7832ZM195.554 31.7942C195.554 31.7942 195.58 31.7942 195.591 31.7942C195.647 31.7942 195.703 31.8054 195.718 31.9357C195.736 32.0773 195.695 32.2523 195.602 32.4535C195.33 33.0569 194.928 33.6268 194.403 34.1445C194.142 34.394 193.781 34.6436 193.323 34.882C193.658 33.8391 194.135 32.9973 194.734 32.379C195.166 31.9283 195.42 31.8128 195.554 31.7979V31.7942Z" fill="#8E8E8E"/>
<path d="M202.815 39.1951C202.815 39.1951 194.46 39.0312 188.996 39.8171C183.532 40.6031 178.373 41.5678 177.978 43.0725C177.878 43.3705 178.064 43.9367 179.345 43.378C181.669 42.3648 183.212 40.7297 202.811 39.1988L202.815 39.1951Z" fill="#8E8E8E"/>
</svg>
