<svg width="289" height="64" viewBox="0 0 289 64" fill="none" xmlns="http://www.w3.org/2000/svg">
<rect width="288.763" height="64" rx="10" fill="#FFCF06"/>
<path d="M52.65 11.0989H31.3474C25.6836 11.0989 21.0977 15.6849 21.0977 21.3486V42.6512C21.0977 48.315 25.6836 52.901 31.3474 52.901H52.65C58.3138 52.901 62.8998 48.315 62.8998 42.6512V21.3486C62.8998 15.6849 58.3138 11.0989 52.65 11.0989Z" fill="#FFBF00"/>
<path d="M31.9189 10.7188V13.4238H32.6162C29.1295 13.4241 26.298 16.9952 26.2979 21.3906V42.5879C26.2979 46.9835 29.1293 50.5554 32.6162 50.5557H31.9189V53.2812H31.8555C27.1852 53.2811 23.4025 48.5054 23.4023 42.6094V21.3906C23.4025 15.4947 27.1852 10.7189 31.8555 10.7188H31.9189ZM52.123 10.7188C56.7934 10.7188 60.576 15.4946 60.5762 21.3906V42.6094C60.5761 48.5055 56.7935 53.2812 52.123 53.2812H52.0596L51.2988 50.5557H51.3623C54.8493 50.5556 57.6807 46.9836 57.6807 42.5879V21.3906C57.6805 16.9951 54.8492 13.4239 51.3623 13.4238H51.2988L52.0596 10.7188H52.123Z" fill="#D89500"/>
<path d="M48.8457 37.3044C49.0568 37.3256 49.2676 37.4106 49.4365 37.5583C49.6055 37.6851 49.7328 37.875 49.8174 38.0652C49.9019 38.2553 49.9234 38.4878 49.9023 38.699C49.3318 42.9256 45.9079 46.0963 41.9561 46.0964C38.1944 46.0964 34.8764 43.2221 34.0732 39.2703C34.031 39.0591 34.0519 38.8477 34.1152 38.6365C34.1786 38.4251 34.3052 38.2551 34.4531 38.1072C34.601 37.9593 34.8128 37.8756 35.0029 37.8123C35.2142 37.77 35.4254 37.7694 35.6367 37.8328C37.3907 38.3822 39.9689 39.1012 41.9766 39.1013C44.1322 39.1013 45.739 38.4244 47.4297 37.7058C47.683 37.6003 47.9576 37.495 48.2109 37.3894C48.4011 37.3049 48.6344 37.2833 48.8457 37.3044ZM38.8975 42.1648C38.5174 42.1651 38.3066 42.5663 38.5176 42.8621C38.8346 43.3058 39.2363 43.6863 39.7012 43.9822C40.3985 44.4259 41.2013 44.6589 42.0254 44.6589C42.8496 44.6589 43.6532 44.426 44.3506 43.9822C44.8154 43.6863 45.2173 43.3057 45.5342 42.8621C45.7449 42.5873 45.5124 42.1648 45.1533 42.1648H38.8975Z" fill="#222222"/>
<path d="M52.7992 10H31.2008C25.0298 10 20 15.0298 20 21.2008V42.7992C20 48.9702 25.0298 54 31.2008 54H52.7992C58.9702 54 64 48.9702 64 42.7992V21.2008C63.9789 15.0298 58.9702 10 52.7992 10ZM60.5764 42.7992C60.5764 47.0893 57.0893 50.5975 52.7781 50.5975H31.2008C26.9107 50.5975 23.4025 47.1105 23.4025 42.7992V21.2008C23.4025 16.9107 26.8895 13.4025 31.2008 13.4025H33.6523C34.7935 13.4025 35.7445 14.3324 35.7445 15.4947V17.3333C35.7445 18.4957 36.6744 19.4256 37.8367 19.4256C38.999 19.4256 39.9289 18.4957 39.9289 17.3333V15.4947C39.9289 14.3324 40.8588 13.4025 42.0211 13.4025C43.1623 13.4025 44.1134 14.3324 44.1134 15.4947V20.4188C44.1134 21.5812 45.0432 22.511 46.2056 22.511C47.3679 22.511 48.2978 21.5812 48.2978 20.4188V15.4947C48.2978 14.3324 49.2277 13.4025 50.39 13.4025H52.8415C57.1316 13.4025 60.6398 16.8895 60.6398 21.2008V42.7992H60.5764Z" fill="#222222"/>
<path d="M50.3509 24.561C50.2664 24.561 50.1607 24.561 50.0762 24.5822H50.0551C50.0339 24.5822 50.0128 24.6033 49.9916 24.6033C49.9494 24.6244 49.9283 24.6667 49.9283 24.709C49.9283 24.7512 49.9494 24.7935 49.9705 24.8146C49.9705 24.8146 49.9705 24.8146 49.9916 24.8358C50.5623 25.195 50.9004 25.8924 50.7313 26.6321C50.5834 27.3084 50.0128 27.8367 49.3365 27.9424C48.6391 28.0481 48.0474 27.7945 47.7092 27.2873C47.7092 27.2873 47.667 27.2239 47.6036 27.2239C47.4979 27.2239 47.4768 27.3295 47.4768 27.3295C47.3922 27.6465 47.3711 27.9213 47.3711 28.2594C47.3711 30.3094 48.7025 31.9789 50.3509 31.9789C51.9993 31.9789 53.3307 30.3094 53.3307 28.2594C53.3307 26.2306 51.9993 24.561 50.3509 24.561Z" fill="#222222"/>
<path d="M33.6263 24.561C33.5418 24.561 33.4361 24.561 33.3516 24.5822H33.3304C33.3093 24.5822 33.2882 24.6033 33.267 24.6033C33.2248 24.6244 33.2036 24.6667 33.2036 24.709C33.2036 24.7512 33.2248 24.7935 33.2459 24.8146C33.2459 24.8146 33.2459 24.8146 33.267 24.8358C33.8376 25.195 34.1758 25.8924 34.0067 26.6321C33.8588 27.3084 33.2882 27.8367 32.6119 27.9424C31.9145 28.0481 31.3228 27.7945 30.9846 27.2873C30.9846 27.2873 30.9424 27.2239 30.879 27.2239C30.7733 27.2239 30.7522 27.3295 30.7522 27.3295C30.6676 27.6465 30.6465 27.9213 30.6465 28.2594C30.6465 30.3094 31.9779 31.9789 33.6263 31.9789C35.2747 31.9789 36.6061 30.3094 36.6061 28.2594C36.6061 26.2306 35.2747 24.561 33.6263 24.561Z" fill="#222222"/>
<path d="M150.368 25.2295C156.949 25.2297 159.84 30.6345 159.84 34.6826C159.84 36.3176 158.703 37.374 157.228 37.374H146.18C146.678 39.6871 148.174 40.9836 150.308 41.2031C150.527 41.2231 150.747 41.2432 150.986 41.2432C152.522 41.2431 153.818 40.7642 154.954 39.9268C155.353 39.6276 155.732 39.4883 156.311 39.4883C157.567 39.4883 158.484 40.4458 158.484 41.7021C158.484 42.4398 158.145 42.9985 157.746 43.3574C156.011 44.8329 153.778 45.75 150.906 45.75C150.707 45.75 150.507 45.7305 150.308 45.7305C144.684 45.4511 140.616 41.3825 140.616 35.5596V35.4795C140.616 29.8761 144.605 25.2497 150.308 25.2295H150.368ZM244.193 25.2295C250.774 25.2295 253.686 30.6344 253.666 34.6826C253.666 36.3176 252.529 37.374 251.054 37.374H240.006C240.504 39.6872 242 40.9837 244.134 41.2031C244.353 41.2231 244.573 41.2432 244.812 41.2432C246.348 41.2431 247.644 40.7642 248.78 39.9268C249.179 39.6276 249.558 39.4883 250.137 39.4883C251.393 39.4884 252.311 40.4459 252.311 41.7021C252.31 42.4398 251.971 42.9985 251.572 43.3574C249.837 44.833 247.604 45.75 244.732 45.75C244.533 45.75 244.333 45.7305 244.134 45.7305C238.51 45.4512 234.442 41.3825 234.442 35.5596V35.4795C234.443 29.8761 238.431 25.2495 244.134 25.2295H244.193ZM97.4805 19.1074C101.369 19.1074 103.942 19.9853 106.255 21.6006C106.813 21.9995 107.432 22.7773 107.432 23.874C107.431 25.4094 106.175 26.665 104.64 26.665C103.822 26.665 103.303 26.386 102.904 26.0869C101.369 24.9903 99.7139 24.3321 97.2812 24.332C93.1733 24.332 89.9025 27.9815 89.9023 32.3486V32.4287C89.9023 37.135 93.1335 40.585 97.7002 40.585C99.754 40.5849 101.589 40.0867 103.024 39.0498V35.3799H99.1953C97.8394 35.3798 96.7422 34.3032 96.7422 32.9473C96.7422 31.5913 97.8393 30.4942 99.1953 30.4941H105.656C107.232 30.4941 108.488 31.7512 108.528 33.3066V39.5479C108.528 41.203 107.89 42.3396 106.534 43.1572C104.42 44.4335 101.389 45.7304 97.5205 45.7305C89.5039 45.7305 84 40.1061 84 32.4883V32.4092C84 25.0905 89.6832 19.1074 97.4805 19.1074ZM137.149 25.3896C138.625 25.3896 139.842 26.5264 139.842 28.042C139.842 28.5203 139.663 29.0981 139.543 29.3574L133.521 43.2969C132.882 44.7327 131.865 45.7304 130.35 45.7305H130.051C128.555 45.7305 127.518 44.7726 126.899 43.2969L120.877 29.3574C120.718 28.9986 120.578 28.5202 120.578 28.002C120.578 26.6858 121.775 25.3897 123.29 25.3896C124.786 25.3896 125.603 26.2471 126.002 27.3838L130.229 38.8105L134.537 27.3037C134.916 26.3466 135.674 25.3898 137.149 25.3896ZM201.475 25.3896C203.03 25.3896 204.267 26.6262 204.247 28.1816V42.7383C204.247 44.2738 202.991 45.5303 201.455 45.5303C199.92 45.5303 198.663 44.2738 198.663 42.7383V42.5195C197.387 44.1746 195.732 45.6903 192.9 45.6904C188.673 45.6904 186.22 42.8979 186.22 38.3711V28.1816C186.22 26.6461 187.476 25.3896 189.012 25.3896C190.547 25.3899 191.803 26.6462 191.803 28.1816V36.5967C191.803 39.2489 193.06 40.6045 195.193 40.6045C197.327 40.6045 198.684 39.2489 198.684 36.5967V28.1816C198.684 26.6462 199.939 25.3899 201.475 25.3896ZM165.621 18.25C167.157 18.25 168.413 19.5065 168.413 21.042V28.4199C169.55 26.9044 171.026 25.7086 173.14 25.3496C173.578 25.2698 174.057 25.2295 174.556 25.2295C179.162 25.2296 183.529 28.8392 183.529 35.3799V35.46C183.529 42.0407 179.222 45.6503 174.556 45.6504C174.057 45.6504 173.578 45.61 173.14 45.5303C170.966 45.1713 169.51 44.0153 168.413 42.6992V42.7383C168.413 44.2539 167.157 45.5107 165.621 45.5107C164.086 45.5105 162.83 44.2541 162.83 42.7188V21.042C162.83 19.5066 164.086 18.2502 165.621 18.25ZM211.73 20.3438C213.266 20.3438 214.522 21.6002 214.522 23.1357V25.5889H216.976C218.312 25.5889 219.369 26.6654 219.369 27.9814C219.369 29.3176 218.292 30.375 216.976 30.375H214.522V38.8105C214.523 40.1064 215.061 40.7246 216.317 40.7246C216.497 40.7246 216.856 40.6846 216.976 40.6846C218.232 40.6846 219.289 41.7018 219.289 42.998C219.289 43.9949 218.631 44.7926 217.854 45.0918C216.836 45.5106 215.879 45.6504 214.662 45.6504C211.232 45.6503 208.919 44.294 208.919 39.7275V30.3945H208.739C207.403 30.3943 206.347 29.3178 206.347 28.002C206.347 26.666 207.423 25.6086 208.739 25.6084H208.939V23.1357C208.939 21.6004 210.195 20.344 211.73 20.3438ZM225.689 20.3438C227.225 20.3439 228.481 21.6003 228.481 23.1357V25.5889H230.954C232.29 25.589 233.347 26.6655 233.347 27.9814C233.347 29.3175 232.27 30.3749 230.954 30.375H228.501V38.8105C228.501 40.1065 229.04 40.7246 230.296 40.7246C230.475 40.7246 230.834 40.6846 230.954 40.6846C232.21 40.6847 233.267 41.7019 233.267 42.998C233.267 43.9951 232.609 44.7927 231.831 45.0918C230.814 45.5105 229.857 45.6504 228.641 45.6504C225.211 45.6504 222.897 44.2942 222.897 39.7275V30.3945H222.718C221.382 30.3945 220.325 29.3179 220.325 28.002C220.325 26.6659 221.402 25.6084 222.718 25.6084H222.897V23.1357C222.897 21.6002 224.154 20.3438 225.689 20.3438ZM115.132 25.3896C116.667 25.3897 117.924 26.6262 117.924 28.1816V42.7383C117.924 44.2738 116.667 45.5302 115.132 45.5303C113.596 45.5303 112.34 44.2738 112.34 42.7383V28.1816C112.34 26.6461 113.596 25.3896 115.132 25.3896ZM266.051 25.3896C267.766 25.3898 268.763 26.5262 268.763 28.1016C268.763 29.5771 267.805 30.4546 266.669 30.7139C263.837 31.3719 262.262 33.5454 262.262 37.5137V42.7383C262.262 44.2738 261.005 45.5303 259.47 45.5303C257.934 45.5303 256.678 44.2738 256.678 42.7383V28.1816C256.678 26.6461 257.934 25.3896 259.47 25.3896C261.005 25.3896 262.262 26.6461 262.262 28.1816V29.0586C263.079 27.1442 264.396 25.3896 266.051 25.3896ZM173.12 29.9756C170.508 29.9756 168.334 32.1495 168.334 35.4199V35.5C168.334 38.7703 170.508 40.9443 173.12 40.9443H173.14C175.752 40.9244 177.945 38.7903 177.945 35.5V35.4199C177.945 32.1495 175.732 29.9956 173.14 29.9756H173.12ZM150.308 29.7168C148.015 29.7369 146.539 31.3919 146.101 33.9043H154.516C154.197 31.4118 152.721 29.7169 150.368 29.7168H150.308ZM244.134 29.7168C241.841 29.7368 240.366 31.3918 239.927 33.9043H248.342C248.023 31.4116 246.546 29.7168 244.193 29.7168H244.134ZM115.133 18.29C116.888 18.29 118.244 19.287 118.264 20.9023V20.9824C118.263 22.5975 116.888 23.6348 115.133 23.6348C113.358 23.6347 112.002 22.5975 112.002 20.9824V20.9023C112.002 19.2871 113.378 18.2901 115.133 18.29Z" fill="#222222"/>
</svg>
