<svg width="180" height="118" viewBox="0 0 180 118" fill="none" xmlns="http://www.w3.org/2000/svg">
<g clip-path="url(#clip0_9054_1094)">
<g style="mix-blend-mode:multiply">
<path d="M99.4236 26.4427C99.0967 34.2213 87.4235 34.266 87.3641 26.4427C87.3046 18.612 99.0967 18.6716 99.4236 26.4427C99.7282 33.6103 110.874 33.6476 110.569 26.4427C110.168 17.0697 103.02 9.26132 93.3901 9.21662C83.7603 9.17191 76.1739 17.1144 76.2111 26.4427C76.2482 35.8009 84.0278 43.6688 93.3901 43.6688C102.752 43.6688 110.168 35.786 110.569 26.4427C110.874 19.2528 99.7282 19.2677 99.4236 26.4427Z" fill="#FFDB08"/>
</g>
<path d="M92.3809 112.424C112.376 81.9284 132.364 51.4251 152.359 20.9292C155.138 16.6897 157.917 12.4428 160.703 8.2033C164.656 2.17565 155.004 -3.4273 151.081 2.56309C131.086 33.059 111.098 63.5623 91.1029 94.0582C88.3239 98.2977 85.545 102.545 82.7586 106.784C78.8056 112.812 88.4577 118.415 92.3809 112.424Z" fill="#00A6CB"/>
<g style="mix-blend-mode:multiply">
<path d="M-3.55323 112.424C11.7236 92.0017 27.0005 71.5718 42.27 51.1493C44.4397 48.251 46.6019 45.3526 48.7716 42.4543C50.592 40.0179 49.1431 36.2329 46.7728 34.8098C43.9418 33.1111 40.9474 34.415 39.1492 36.8141C23.8723 57.2366 8.59546 77.6665 -6.67399 98.089C-8.84367 100.987 -11.0059 103.886 -13.1756 106.784C-14.996 109.22 -13.5471 113.005 -11.1768 114.428C-8.34583 116.127 -5.35138 114.823 -3.55323 112.424Z" fill="#02A88C"/>
</g>
<g style="mix-blend-mode:multiply">
<path d="M39.1493 42.4543C50.4732 60.6267 61.8046 78.799 73.1285 96.9714C76.3384 102.12 79.5483 107.268 82.7583 112.424C86.5478 118.511 96.1998 112.909 92.3806 106.784C80.6777 88.0081 68.9823 69.2397 57.2795 50.4639C54.441 45.9115 51.6101 41.3665 48.7717 36.8141C44.9822 30.7268 35.3301 36.3298 39.1493 42.4543Z" fill="#FFDB08"/>
</g>
<path d="M28.8055 85.5868C22.9503 93.3281 17.1026 101.069 11.2475 108.811C9.41216 111.232 10.8834 115.04 13.2462 116.455C16.0847 118.161 19.0642 116.843 20.8698 114.451C26.725 106.71 32.5727 98.9683 38.4278 91.227C40.2631 88.8055 38.7919 84.9981 36.4291 83.5825C33.5906 81.8763 30.6111 83.1951 28.8055 85.5868Z" fill="#00A6CB"/>
<path d="M169.471 11.9883C163.995 20.5492 158.518 29.1175 153.042 37.6784C149.156 43.7508 158.801 49.3612 162.665 43.3186C168.141 34.7577 173.617 26.1894 179.093 17.6285C182.979 11.5561 173.335 5.94571 169.471 11.9883Z" fill="#92C740"/>
</g>
<defs>
<clipPath id="clip0_9054_1094">
<rect width="194" height="117.23" fill="white" transform="translate(-14)"/>
</clipPath>
</defs>
</svg>
