<svg width="150" height="134" viewBox="0 0 150 134" fill="none" xmlns="http://www.w3.org/2000/svg">
<g style="mix-blend-mode:multiply">
<path d="M18.0805 105.751C12.2222 105.751 7.45898 100.763 7.45898 94.6284C7.45898 88.4935 12.2222 83.5055 18.0805 83.5055C23.9388 83.5055 28.702 88.4935 28.702 94.6284C28.702 100.763 23.9388 105.751 18.0805 105.751ZM18.0805 92.9395C17.1879 92.9395 16.4603 93.7015 16.4603 94.6362C16.4603 95.571 17.1879 96.333 18.0805 96.333C18.9731 96.333 19.7007 95.571 19.7007 94.6362C19.7007 93.7015 18.9731 92.9395 18.0805 92.9395Z" fill="#FFD000"/>
</g>
<path d="M112.579 12.1806C105.048 12.1806 98.9199 5.76296 98.9199 -2.12361C98.9199 -10.0102 105.048 -16.4279 112.579 -16.4279C120.11 -16.4279 126.239 -10.0102 126.239 -2.12361C126.239 5.76296 120.11 12.1806 112.579 12.1806ZM112.579 -7.00952C110.014 -7.00952 107.921 -4.81793 107.921 -2.13147C107.921 0.554995 110.014 2.74658 112.579 2.74658C115.145 2.74658 117.238 0.554995 117.238 -2.13147C117.238 -4.81793 115.145 -7.00952 112.579 -7.00952Z" fill="#A5C540"/>
<path d="M143.123 60.5057C142.021 60.5057 140.925 60.0894 140.055 59.241C126.336 45.8401 109.458 36.2254 91.2609 31.4338C86.9553 30.3026 82.3871 29.3757 77.9765 28.4881C64.5946 25.7859 50.7626 22.9973 39.6235 13.7989C30.4947 6.25799 24.3588 -4.99059 22.8061 -17.064C22.476 -19.6405 24.2013 -22.0206 26.6616 -22.3662C29.1295 -22.7118 31.3948 -20.9051 31.7249 -18.3286C32.97 -8.65895 37.8832 0.350912 45.1968 6.39153C54.6106 14.1681 66.7849 16.6268 79.6792 19.2269C84.2174 20.1459 88.9055 21.0885 93.4587 22.2904C113.127 27.4669 131.362 37.8671 146.191 52.3442C148.007 54.1195 148.112 57.1044 146.416 59.0054C145.531 60.003 144.331 60.5057 143.123 60.5057Z" fill="#A5C540"/>
<g style="mix-blend-mode:multiply">
<path d="M94.7191 118.155C85.3428 118.155 76.0114 115.091 68.3528 109.373C56.8012 100.755 50.3652 87.6295 44.1394 74.9355C42.0841 70.7487 39.9613 66.4127 37.7184 62.4066C28.2296 45.4551 14.6826 31.1902 -1.44467 21.1513C-3.58247 19.8237 -4.28007 16.9252 -3.01239 14.6943C-1.74471 12.4556 1.01569 11.7251 3.15349 13.0526C20.586 23.9006 35.2206 39.3281 45.482 57.6463C47.8524 61.8803 50.0352 66.3341 52.1505 70.6388C58.1439 82.8692 63.8072 94.4163 73.5736 101.706C81.1646 107.369 90.796 109.781 100.007 108.32C102.468 107.935 104.756 109.702 105.131 112.279C105.498 114.855 103.81 117.251 101.35 117.644C99.1522 117.99 96.9319 118.162 94.7191 118.162V118.155Z" fill="#FFD000"/>
</g>
<g style="mix-blend-mode:multiply">
<path d="M-14.5052 72.3511C-16.7556 72.3511 -18.6983 70.5837 -18.9684 68.1879C-19.2609 65.6036 -17.4907 63.2627 -15.0228 62.9564C8.26052 60.0814 27.6508 53.1453 42.6079 42.3366C54.4371 33.7823 63.5659 22.7694 69.7393 9.59629C80.3533 -13.0658 78.5756 -34.6204 78.5531 -34.8403C78.3205 -37.4325 80.1358 -39.7262 82.6036 -39.9776C85.0715 -40.229 87.2693 -38.3359 87.5094 -35.7437C87.5994 -34.7696 89.5797 -11.6755 78.0055 13.3275C71.187 28.0559 61.0831 40.3649 47.9562 49.909C31.7464 61.6995 10.9084 69.2405 -13.9802 72.3119C-14.1602 72.3354 -14.3402 72.3433 -14.5127 72.3433L-14.5052 72.3511Z" fill="#00A184"/>
</g>
<g style="mix-blend-mode:multiply">
<path d="M47.4909 133.629C45.2031 133.629 43.2453 131.807 43.0203 129.372C42.9303 128.398 40.95 105.304 52.5241 80.3007C59.3426 65.5723 69.4466 53.2632 82.5734 43.7192C98.7833 31.9286 119.621 24.3877 144.51 21.3163C146.978 21.0178 149.213 22.8638 149.506 25.4481C149.798 28.0325 148.028 30.3733 145.56 30.6797C122.277 33.5547 102.886 40.4908 87.9292 51.2995C76.1 59.8537 66.9712 70.8666 60.7978 84.0397C50.1838 106.702 51.9616 128.256 51.9841 128.476C52.2166 131.069 50.4013 133.362 47.9335 133.614C47.791 133.629 47.6409 133.637 47.4984 133.637L47.4909 133.629Z" fill="#139FC7"/>
</g>
</svg>
