<svg width="132" height="114" viewBox="0 0 132 114" fill="none" xmlns="http://www.w3.org/2000/svg">
<g style="mix-blend-mode:multiply">
<path d="M121.167 62.6832C118.582 62.6832 116.482 60.4862 116.482 57.7829C116.482 35.1352 90.1146 9.80062 54.8148 9.80062C38.6132 9.80062 23.1847 15.2481 11.3712 25.1468C0.393248 34.343 -5.89997 46.2426 -5.89997 57.7829C-5.89997 60.4862 -8.00032 62.6832 -10.5848 62.6832C-13.1692 62.6832 -15.2695 60.4862 -15.2695 57.7829C-15.2695 43.2534 -7.69581 28.5688 5.51527 17.5023C18.984 6.21523 36.4973 0 54.8148 0C73.1323 0 90.8407 6.20706 104.552 17.4696C118.083 28.5852 125.844 43.2779 125.844 57.7829C125.844 60.4862 123.743 62.6832 121.159 62.6832H121.167Z" fill="#FFD000"/>
</g>
<g style="mix-blend-mode:multiply">
<path d="M18.9377 93.5551C0.0815067 93.5551 -15.2611 77.5065 -15.2611 57.7828C-15.2611 55.0794 -13.1608 52.8825 -10.5764 52.8825C-7.99193 52.8825 -5.89159 55.0794 -5.89159 57.7828C-5.89159 72.0999 5.25038 83.7544 18.9377 83.7544C32.6251 83.7544 43.7671 72.0999 43.7671 57.7828C43.7671 43.4657 32.6251 31.8111 18.9377 31.8111H-16.3152C-18.8997 31.8111 -21 29.6141 -21 26.9108C-21 24.2075 -18.8997 22.0105 -16.3152 22.0105H18.9377C37.794 22.0105 53.1366 38.059 53.1366 57.7828C53.1366 77.5065 37.794 93.5551 18.9377 93.5551Z" fill="#00A184"/>
</g>
<g style="mix-blend-mode:multiply">
<path d="M18.9369 72.8595C10.9884 72.8595 4.52344 66.0971 4.52344 57.7829C4.52344 49.4687 10.9884 42.7063 18.9369 42.7063C26.8855 42.7063 33.3504 49.4687 33.3504 57.7829C33.3504 66.0971 26.8855 72.8595 18.9369 72.8595ZM18.9369 52.5069C16.1573 52.5069 13.893 54.8754 13.893 57.7829C13.893 60.6904 16.1573 63.0589 18.9369 63.0589C21.7166 63.0589 23.9809 60.6904 23.9809 57.7829C23.9809 54.8754 21.7166 52.5069 18.9369 52.5069Z" fill="#A5C540"/>
</g>
<g style="mix-blend-mode:multiply">
<path d="M90.7006 72.8595C82.7521 72.8595 76.2871 66.0971 76.2871 57.7829C76.2871 49.4687 82.7521 42.7063 90.7006 42.7063C98.6491 42.7063 105.114 49.4687 105.114 57.7829C105.114 66.0971 98.6491 72.8595 90.7006 72.8595ZM90.7006 52.5069C87.921 52.5069 85.6567 54.8754 85.6567 57.7829C85.6567 60.6904 87.921 63.0589 90.7006 63.0589C93.4802 63.0589 95.7446 60.6904 95.7446 57.7829C95.7446 54.8754 93.4802 52.5069 90.7006 52.5069Z" fill="#00A184"/>
</g>
<g style="mix-blend-mode:multiply">
<path d="M54.8137 113.287C52.2292 113.287 50.1289 111.09 50.1289 108.387V90.6476C50.1289 87.9443 52.2292 85.7473 54.8137 85.7473C57.3981 85.7473 59.4985 87.9443 59.4985 90.6476V108.387C59.4985 111.09 57.3981 113.287 54.8137 113.287Z" fill="#FFD000"/>
</g>
<g style="mix-blend-mode:multiply">
<path d="M91.654 93.5551C72.7977 93.5551 57.4551 77.5065 57.4551 57.7828C57.4551 38.059 72.7977 22.0105 91.654 22.0105H126.907C129.491 22.0105 131.592 24.2075 131.592 26.9108C131.592 29.6141 129.491 31.8111 126.907 31.8111H91.654C77.9666 31.8111 66.8246 43.4657 66.8246 57.7828C66.8246 72.0999 77.9666 83.7544 91.654 83.7544C105.341 83.7544 116.483 72.0999 116.483 57.7828C116.483 55.0794 118.584 52.8825 121.168 52.8825C123.753 52.8825 125.853 55.0794 125.853 57.7828C125.853 77.5065 110.51 93.5551 91.654 93.5551Z" fill="#A5C540"/>
</g>
</svg>
