<svg width="58" height="60" viewBox="0 0 58 60" fill="none" xmlns="http://www.w3.org/2000/svg">
<path d="M0 30C0 22.0435 3.04143 14.4129 8.45522 8.7868C13.869 3.16071 21.2117 0 28.8679 0C36.5242 0 43.8668 3.16071 49.2806 8.7868C54.6944 14.4129 57.7358 22.0435 57.7358 30C57.7358 37.9565 54.6944 45.5871 49.2806 51.2132C43.8668 56.8393 36.5242 60 28.8679 60C21.2117 60 13.869 56.8393 8.45522 51.2132C3.04143 45.5871 0 37.9565 0 30ZM21.2337 17.2266C21.2337 17.2338 21.2298 17.2405 21.2235 17.2442C20.3725 17.738 19.8467 18.6837 19.8467 19.6875V40.3125C19.8467 41.332 20.3767 42.2695 21.2337 42.7617C22.0907 43.2539 23.1282 43.2422 23.9739 42.7031L40.2121 32.3906C41.0127 31.875 41.5089 30.9727 41.5089 29.9883C41.5089 29.0039 41.0127 28.1016 40.2121 27.5859L23.9739 17.2734C23.1428 16.7482 22.099 16.7228 21.2439 17.209C21.2376 17.2126 21.2337 17.2193 21.2337 17.2266Z" fill="white"/>
</svg>
