<svg xmlns="http://www.w3.org/2000/svg" viewBox="0 0 1074.44 401.19"><defs><style>.cls-1{fill:#92c740;}.cls-2{fill:#02a88c;}.cls-3{fill:none;stroke:#02a88c;stroke-linecap:round;stroke-linejoin:round;stroke-width:0;}.cls-4{fill:#222;}</style></defs><g id="Capa_2" data-name="Capa 2"><g id="Capa_1-2" data-name="Capa 1"><path class="cls-1" d="M133.55,135.51a9.49,9.49,0,1,0-9.49-9.49A9.5,9.5,0,0,0,133.55,135.51Z"/><path class="cls-2" d="M196.11,154.49a9.49,9.49,0,1,0-9.49-9.49A9.5,9.5,0,0,0,196.11,154.49Z"/><path class="cls-2" d="M176.66,271.78s0,0,0,0v0A.13.13,0,0,0,176.66,271.78Z"/><path class="cls-3" d="M176.66,271.78c.13-.61.24-1.22.31-1.85"/><path class="cls-2" d="M328,6.26c-1.36-.77-4.35,0-5.81.52-2.17.83-3.85,2.67-6.11,3.31-1.08-3.46-2.1-7-4.85-9.5A2.51,2.51,0,0,0,309.51,0a2.48,2.48,0,0,0-1.64.57c-1.89,1.62-2.62,3.45-3.18,6-.43,1.95-.42,5.76-1.66,7.11-2,2.19-9.09.26-10.76,2.25a2.66,2.66,0,0,0-.35,2.2c.34,1.52,7.88,7.07,9.5,8.55l0,0c1.66,5.1,1.2,16.39,1.2,16.39H233.27a9.78,9.78,0,0,0-9.86,8.55,9.51,9.51,0,0,0,9.44,10.44h56.74a8.9,8.9,0,0,1,0,17.79h-44.1A9.51,9.51,0,0,0,236,90.33a9.79,9.79,0,0,0,9.87,8.55H272.8a9.15,9.15,0,0,1,9.24,8,8.9,8.9,0,0,1-8.85,9.78H224.74a9.77,9.77,0,0,0-9.87,8.54,9.5,9.5,0,0,0,9.44,10.44h37.92a137.63,137.63,0,0,1-85.12,39.75h-.3l.28-58.81a18.53,18.53,0,0,0-18.52-18.53,6.38,6.38,0,0,0-6.17,6.28l.08,71.05h.08v20.12h-.15v11.93C71.88,213.66,8.11,280.51,6.71,362.28c0,.23,0,.51,0,.81h0c0,.73-.06.92-.08,1.54,0,.29,0,.75,0,1.05-.07,1.89-.07,3.83,0,5.83a73.79,73.79,0,0,0,5.78,24.82,13.2,13.2,0,0,0,1.33,2.85v0h0a11.12,11.12,0,0,0,.84,1.14,2.66,2.66,0,0,0,3.28.47c2.09-1.35,3.06-3.06,4-5.53.69-1.87,1.19-5.64,2.61-6.81,2.32-1.89,9,1,11-.77a2.61,2.61,0,0,0,.64-2.12c-.08-.94-2.52-3.66-4.77-6h0l-.28-.3c-.65-.76-2.36-3.06-3.45-7.72a36,36,0,0,1-.77-4.81h0l-.09-1.35V365c0-1.73.07-3.45.13-5.17H96.25a9.77,9.77,0,0,0,9.86-8.54,9.49,9.49,0,0,0-9.44-10.44H39.93a8.89,8.89,0,0,1,0-17.78H84a9.5,9.5,0,0,0,9.45-10.44,9.77,9.77,0,0,0-9.87-8.54H56.73a9.17,9.17,0,0,1-9.25-8,8.91,8.91,0,0,1,8.85-9.79h48.46a9.77,9.77,0,0,0,9.86-8.54,9.5,9.5,0,0,0-9.44-10.44H67.29a137.65,137.65,0,0,1,85.12-39.75v52.8a6,6,0,0,0,6,6h.14a18.5,18.5,0,0,0,18.08-14.56v-.71c.07-.39.14-.78.19-1.18a.09.09,0,0,1,0-.05,19,19,0,0,0,.11-2V195.51h.15c80.53-6.22,144.3-73.07,145.7-154.84,0-1.2,0-1.59,0-2.28,0-.28,0-.55,0-.84.06-6.38,0-13.43,0-13.43h0a12.66,12.66,0,0,1,.89-3.59C325.12,17.38,332.88,9,328,6.26Z"/><path class="cls-1" d="M177.11,227.58a137.19,137.19,0,0,1,62,21.27q2.49,1.6,4.91,3.3a140.92,140.92,0,0,1,13.23,10.61q2.46,2.22,4.81,4.55H236.33a9.93,9.93,0,0,0-9.51,6.76,8.74,8.74,0,0,0-.36,1.79,9.41,9.41,0,0,0,.19,3.06,9.28,9.28,0,0,0,1.63,3.53c.19.26.4.51.61.75a9.66,9.66,0,0,0,2.7,2c.27.14.54.26.82.38a9.21,9.21,0,0,0,.93.31,9.37,9.37,0,0,0,2.56.36h36.87a9.54,9.54,0,0,1,6.77,2.86,9.09,9.09,0,0,1,.94,1.13,8.42,8.42,0,0,1,1.2,2.35,8.23,8.23,0,0,1,.33,1.67,8.86,8.86,0,0,1-.43,3.76,8.93,8.93,0,0,1-8.41,6H222.64a10,10,0,0,0-1.82.16,10.32,10.32,0,0,0-3.35,1.24,9.35,9.35,0,0,0-4.69,7.14,9.46,9.46,0,0,0,2.43,7.34c.22.24.45.46.69.68a9.49,9.49,0,0,0,3.34,1.94,9.12,9.12,0,0,0,2,.42,8.6,8.6,0,0,0,1,.06h67.27a8.84,8.84,0,0,1,3.46.7,8.83,8.83,0,0,1,4.73,4.73,8.87,8.87,0,0,1-.82,8.42,9,9,0,0,1-3.91,3.23,8.84,8.84,0,0,1-3.46.7H244.86a9.54,9.54,0,0,0-9.49,9.32v.07c0,.34,0,.69,0,1.05a9.17,9.17,0,0,0,2,4.87,10.19,10.19,0,0,0,7.84,3.67h57.3c.05,1.33.08,2.67.1,4,0,.48,0,.95,0,1.42l-.09,1.43h-.06a36,36,0,0,1-.77,4.81c-1.09,4.66-2.8,7-3.45,7.72l-.28.3h0c-2.25,2.39-4.69,5.11-4.77,6a2.61,2.61,0,0,0,.64,2.12c1.93,1.75,8.65-1.12,11,.77,1.42,1.17,1.92,4.94,2.61,6.81.91,2.47,1.88,4.18,4,5.53a2.66,2.66,0,0,0,3.28-.47,11.12,11.12,0,0,0,.84-1.14h0v0a13.2,13.2,0,0,0,1.33-2.85,73.79,73.79,0,0,0,5.78-24.82c0-.4,0-.78.05-1.17.09-2.53.06-4,.06-4h0c0-.5,0-1,0-1.53v-.2c0-.19,0-.19,0-.36s0-.49-.06-.78c0-4.75-.32-9.45-.78-14.1-.42-4.25-1-8.43-1.78-12.58q-1.36-7.51-3.42-14.79A158.38,158.38,0,0,0,266,243.89c-2.48-2.08-5-4.11-7.61-6-3.64-2.7-7.41-5.22-11.29-7.6l-.67-.43A158,158,0,0,0,227.41,220l-.26-.12c-4.09-1.77-8.29-3.35-12.56-4.77l-1.11-.39c-4.22-1.38-8.53-2.55-12.89-3.57-.46-.1-.9-.23-1.35-.34a156.76,156.76,0,0,0-22.13-3.31H177v20.12Z"/><path class="cls-3" d="M177,227.56l.15,0"/><path class="cls-1" d="M152.56,175.39h-.08a137.64,137.64,0,0,1-85-39.74H93.2a9.79,9.79,0,0,0,9.87-8.55,9.5,9.5,0,0,0-9.45-10.43H56.75a9.16,9.16,0,0,1-9.24-8,8.89,8.89,0,0,1,8.84-9.77h50.53a9.78,9.78,0,0,0,9.86-8.55,9.5,9.5,0,0,0-9.44-10.44H40A8.9,8.9,0,0,1,40,62.1H84.66a9.51,9.51,0,0,0,9.45-10.44,9.79,9.79,0,0,0-9.87-8.55H26.94c0-.56,0-1.13,0-1.7,0-1.13,0-2.72,0-4.49l.28-4.58a2.81,2.81,0,0,0,0-.29,25.84,25.84,0,0,1,1-5.36c1.62-1.48,9.16-7,9.51-8.55a2.7,2.7,0,0,0-.36-2.2c-1.66-2-8.72-.06-10.75-2.25-1.25-1.35-1.23-5.16-1.66-7.11-.57-2.56-1.3-4.39-3.19-6A2.48,2.48,0,0,0,20.06,0a2.55,2.55,0,0,0-1.67.59c-2.75,2.46-3.77,6-4.85,9.5-2.25-.64-3.93-2.48-6.1-3.31C6,6.21,3,5.49,1.62,6.26-3.31,9,4.46,17.38,5.89,20.53a12.66,12.66,0,0,1,.89,3.59h0s0,6.81,0,13.11c0,.11,0,.21,0,.32h0v.11c0,.32,0,.64,0,1s0,.57.07.86,0,.31,0,.47c0,2.59.1,4.88.19,6.28l0,.09c4.16,79.16,66.81,143.08,145.45,149.17h.05Z"/><path class="cls-4" d="M433.84,112A22.49,22.49,0,0,1,425.6,125q-6.24,4.75-16.82,4.75a30.5,30.5,0,0,1-16.49-4.35,28.19,28.19,0,0,1-10.72-12.6q-3.75-8.23-3.75-19.63t3.75-19.57A28.7,28.7,0,0,1,392.29,61a30.11,30.11,0,0,1,16.49-4.43q10.58,0,16.82,5a23.48,23.48,0,0,1,8.24,13.27h14.74q-2.82-14.34-13.07-22.25t-26.73-7.9q-13.81,0-23.79,6.1a40.55,40.55,0,0,0-15.41,17.08q-5.43,11-5.43,25.33t5.43,25.39a40.57,40.57,0,0,0,15.41,17q10,6.1,23.79,6.1,16.49,0,26.73-7.84T448.58,112Z"/><path class="cls-4" d="M471.76,59.77a8.81,8.81,0,0,0,6.3-2.41,8.11,8.11,0,0,0,2.55-6.17,7.75,7.75,0,0,0-2.55-6,9.73,9.73,0,0,0-12.66,0,7.83,7.83,0,0,0-2.48,6,8.2,8.2,0,0,0,2.48,6.17A8.72,8.72,0,0,0,471.76,59.77Z"/><rect class="cls-4" x="464.93" y="72.5" width="13.4" height="67.54"/><path class="cls-4" d="M542.05,138.84a29.54,29.54,0,0,0,10.25-7.71,29.11,29.11,0,0,0,5.9-11.06H544.8a16.76,16.76,0,0,1-6.17,7.64A18.47,18.47,0,0,1,528,130.53a19.48,19.48,0,0,1-9.91-2.62,18.91,18.91,0,0,1-7.31-7.77,25.32,25.32,0,0,1-2.69-10.65h51.81c.09-1.25.15-2.39.2-3.42s.07-2,.07-2.88A33.84,33.84,0,0,0,556.32,87a30.33,30.33,0,0,0-11-11.72,31.54,31.54,0,0,0-17-4.43,33.3,33.3,0,0,0-17.42,4.49,31.25,31.25,0,0,0-11.72,12.47,39.29,39.29,0,0,0-4.23,18.69,38.33,38.33,0,0,0,4.23,18.36,30.88,30.88,0,0,0,11.72,12.33,35.85,35.85,0,0,0,31.16,1.61ZM518.13,84.49a20.69,20.69,0,0,1,10-2.47,18.6,18.6,0,0,1,13,4.75q5.22,4.77,5.63,13.2H508.29a21.12,21.12,0,0,1,2.53-8.24A18.69,18.69,0,0,1,518.13,84.49Z"/><path class="cls-4" d="M619,87.24q4.14,4.83,4.15,14.21V140h13.4V100.11q0-9.78-3.22-16.29a21.8,21.8,0,0,0-9-9.71,28,28,0,0,0-13.81-3.22,25.77,25.77,0,0,0-13.53,3.55A24.42,24.42,0,0,0,588,84l-.81-11.53H575.08V140h13.4V104A25.62,25.62,0,0,1,591,92.2a17.6,17.6,0,0,1,6.63-7.3A18,18,0,0,1,607,82.42Q614.89,82.42,619,87.24Z"/><path class="cls-4" d="M667.55,137.16A33.73,33.73,0,0,0,685,141.65q12.33,0,20.63-6.5a28.71,28.71,0,0,0,10.59-17.22H702.25a15.37,15.37,0,0,1-3.41,6.7,15.63,15.63,0,0,1-6,4.22,21.49,21.49,0,0,1-8,1.41,19.28,19.28,0,0,1-7.64-1.54,17.79,17.79,0,0,1-6.36-4.63,22.81,22.81,0,0,1-4.36-7.57,30.34,30.34,0,0,1-1.6-10.25,28.14,28.14,0,0,1,2.74-13.06,19.76,19.76,0,0,1,7.31-8,18.83,18.83,0,0,1,9.91-2.74,19.8,19.8,0,0,1,11.33,3.21,14.44,14.44,0,0,1,6.09,9.12h13.94A28.53,28.53,0,0,0,705.6,77.33Q697.29,70.9,685,70.89a33.73,33.73,0,0,0-17.42,4.49,31.86,31.86,0,0,0-12,12.47,38.13,38.13,0,0,0-4.35,18.56,37.46,37.46,0,0,0,4.35,18.35A31.87,31.87,0,0,0,667.55,137.16Z"/><rect class="cls-4" x="732.81" y="72.5" width="13.4" height="67.54"/><path class="cls-4" d="M739.64,59.77a8.81,8.81,0,0,0,6.3-2.41,8.11,8.11,0,0,0,2.55-6.17,7.75,7.75,0,0,0-2.55-6,9.73,9.73,0,0,0-12.66,0,7.83,7.83,0,0,0-2.48,6,8.2,8.2,0,0,0,2.48,6.17A8.72,8.72,0,0,0,739.64,59.77Z"/><path class="cls-4" d="M822.86,98.23a30.25,30.25,0,0,0-3.28-14.54,22.64,22.64,0,0,0-9.72-9.45q-6.43-3.34-15.94-3.35a34.42,34.42,0,0,0-13.67,2.75,26.84,26.84,0,0,0-10.52,7.77,22.77,22.77,0,0,0-4.89,12.13h13.4A12.58,12.58,0,0,1,783.6,85a18.06,18.06,0,0,1,10.32-2.88,17.37,17.37,0,0,1,8.64,1.94,12.24,12.24,0,0,1,5.16,5.83,24,24,0,0,1,1.74,9.79H791.91a42,42,0,0,0-15.41,2.54,21.9,21.9,0,0,0-9.92,7.3A18.85,18.85,0,0,0,763.09,121a20.59,20.59,0,0,0,2.68,10.25,19,19,0,0,0,8.18,7.58q5.49,2.81,13.8,2.81a28.75,28.75,0,0,0,7.84-1,23.78,23.78,0,0,0,6.3-2.75,20.27,20.27,0,0,0,4.76-4.16,31.41,31.41,0,0,0,3.48-5.09L811.2,140h11.66Zm-13.67,11.39a27.85,27.85,0,0,1-1.4,7.84A21.22,21.22,0,0,1,804,124.3a18.09,18.09,0,0,1-6,4.75,18.82,18.82,0,0,1-14.88.4,10.25,10.25,0,0,1-4.48-3.68,10.12,10.12,0,0,1-1.55-5.7,9.89,9.89,0,0,1,1.61-5.62,10.6,10.6,0,0,1,5.16-3.82,25.67,25.67,0,0,1,9.32-1.41h15.94Z"/><path class="cls-4" d="M414.72,181.84q-7.23-3.76-18.49-3.76h-32v93.81h13.4V234.23h18.63q11.38,0,18.63-3.82a24.78,24.78,0,0,0,10.65-10.18,30.82,30.82,0,0,0-.06-28.34A25,25,0,0,0,414.72,181.84Zm-4,36.65q-4.49,4.62-15.07,4.62H377.6V189.2h18.1q10.57,0,15.07,4.43t4.49,12.59C415.26,211.32,413.76,215.4,410.77,218.49Z"/><path class="cls-4" d="M489.63,240.4a26.16,26.16,0,0,1-2.41,11.79,17.51,17.51,0,0,1-6.63,7.37,18,18,0,0,1-9.45,2.55q-7.77,0-11.93-4.83t-4.15-14.34V204.35h-13.4v40.07q0,9.78,3.15,16.21a21.33,21.33,0,0,0,9,9.65,28,28,0,0,0,13.73,3.22A26.4,26.4,0,0,0,481.19,270a22.86,22.86,0,0,0,9-9.65l.94,11.53H503V204.35h-13.4Z"/><path class="cls-4" d="M569.23,207.16q-7.1-4.42-17-4.42a33.32,33.32,0,0,0-17.42,4.49,31.22,31.22,0,0,0-11.72,12.46,39.36,39.36,0,0,0-4.22,18.7,38.33,38.33,0,0,0,4.22,18.36,30.78,30.78,0,0,0,11.72,12.32A35.76,35.76,0,0,0,566,270.68a29.28,29.28,0,0,0,16.15-18.76H568.7a16.81,16.81,0,0,1-6.17,7.64A18.45,18.45,0,0,1,552,262.37a19.61,19.61,0,0,1-9.92-2.61,18.89,18.89,0,0,1-7.3-7.77,25.18,25.18,0,0,1-2.7-10.66h51.81c.09-1.25.15-2.39.2-3.41s.07-2,.07-2.88a33.84,33.84,0,0,0-3.89-16.15A30.43,30.43,0,0,0,569.23,207.16Zm-37,24.66a21,21,0,0,1,2.54-8.24,18.67,18.67,0,0,1,7.3-7.24,20.73,20.73,0,0,1,10.05-2.48,18.61,18.61,0,0,1,13,4.76q5.22,4.75,5.63,13.2Z"/><path class="cls-4" d="M618.15,209.37a24.67,24.67,0,0,0-5.9,7.71L611,204.35H599v67.54h13.4V238.25A28.82,28.82,0,0,1,614,227.93a15.82,15.82,0,0,1,4.49-6.56,17.05,17.05,0,0,1,6.63-3.42,30.45,30.45,0,0,1,7.91-1h4.82v-14.2a33.18,33.18,0,0,0-11.18,1.74A26,26,0,0,0,618.15,209.37Z"/><path class="cls-4" d="M670.54,187.46H658.75l-1.61,16.89H645.48v11.39h11.66v34.71q0,8,2.55,12.73a14.6,14.6,0,0,0,7.23,6.7,27.75,27.75,0,0,0,11,2H689V260.5h-7.77q-5.89,0-8.31-2.08c-1.6-1.38-2.41-4-2.41-7.84V215.74H689.7V204.35H670.54Z"/><path class="cls-4" d="M750.81,207.16a33.11,33.11,0,0,0-17.15-4.42,33.55,33.55,0,0,0-17.15,4.42,31.76,31.76,0,0,0-12.06,12.4,41.39,41.39,0,0,0-.07,37.12,31.48,31.48,0,0,0,11.93,12.39,33.2,33.2,0,0,0,17.08,4.43,33.87,33.87,0,0,0,17.29-4.43,31.44,31.44,0,0,0,12-12.32,42,42,0,0,0,0-37.26A31.76,31.76,0,0,0,750.81,207.16Zm-.2,44.16a19.33,19.33,0,0,1-7.23,8,19.12,19.12,0,0,1-10,2.68,18.57,18.57,0,0,1-9.71-2.68,19.28,19.28,0,0,1-7.24-8,33.06,33.06,0,0,1,0-26.4,18.88,18.88,0,0,1,17.22-10.66,18.52,18.52,0,0,1,17,10.66,29,29,0,0,1,2.68,13.2A28.49,28.49,0,0,1,750.61,251.32Z"/><path class="cls-4" d="M867.67,230a24.84,24.84,0,0,0,10.65-10.18,30.38,30.38,0,0,0,0-28,24.71,24.71,0,0,0-10.52-10q-7.09-3.76-18.22-3.76H817.82v93.81h13.4V233.83h17.43l18.48,38.06h15.55l-20.11-39.83A28.73,28.73,0,0,0,867.67,230Zm-36.45-40.67h17.42q10.18,0,14.74,4.56t4.56,12.32a17.38,17.38,0,0,1-4.69,12.53q-4.69,4.91-14.61,4.9H831.22Z"/><rect class="cls-4" x="899.29" y="204.35" width="13.4" height="67.54"/><path class="cls-4" d="M906.13,174.73a8.9,8.9,0,0,0-6.37,2.35,7.85,7.85,0,0,0-2.48,6,8.22,8.22,0,0,0,2.48,6.16,9.5,9.5,0,0,0,12.67,0A8.12,8.12,0,0,0,915,183a7.76,7.76,0,0,0-2.54-6A9,9,0,0,0,906.13,174.73Z"/><path class="cls-4" d="M953,217a18.87,18.87,0,0,1,9.92-2.75,19.77,19.77,0,0,1,11.32,3.22,14.47,14.47,0,0,1,6.1,9.11H994.3a28.57,28.57,0,0,0-10.58-17.42q-8.31-6.43-20.64-6.43a33.76,33.76,0,0,0-17.42,4.49,32,32,0,0,0-12,12.46,38.18,38.18,0,0,0-4.35,18.56,37.47,37.47,0,0,0,4.35,18.36,32.15,32.15,0,0,0,12,12.4,33.76,33.76,0,0,0,17.42,4.49q12.33,0,20.64-6.5a28.72,28.72,0,0,0,10.58-17.22H980.37a15.39,15.39,0,0,1-9.45,10.92,21.47,21.47,0,0,1-8,1.41,19.25,19.25,0,0,1-7.64-1.55,17.59,17.59,0,0,1-6.37-4.62,22.72,22.72,0,0,1-4.35-7.57A30.33,30.33,0,0,1,943,238.12a28.05,28.05,0,0,1,2.75-13.07A19.65,19.65,0,0,1,953,217Z"/><path class="cls-4" d="M1070.08,219.49a31.81,31.81,0,0,0-11.85-12.33,33.18,33.18,0,0,0-17.16-4.42,33.58,33.58,0,0,0-17.15,4.42,31.89,31.89,0,0,0-12.06,12.4,41.47,41.47,0,0,0-.07,37.12,31.48,31.48,0,0,0,11.93,12.39,33.2,33.2,0,0,0,17.08,4.43,33.84,33.84,0,0,0,17.29-4.43,31.44,31.44,0,0,0,12-12.32,42,42,0,0,0,0-37.26ZM1058,251.32a19.33,19.33,0,0,1-7.23,8,19.1,19.1,0,0,1-10,2.68,18.57,18.57,0,0,1-9.71-2.68,19.28,19.28,0,0,1-7.24-8,33.17,33.17,0,0,1,0-26.4,18.91,18.91,0,0,1,17.22-10.66,18.52,18.52,0,0,1,17,10.66,29,29,0,0,1,2.68,13.2A28.49,28.49,0,0,1,1058,251.32Z"/><path class="cls-4" d="M376,329.81a10.52,10.52,0,0,1,5.47-1.48,11.16,11.16,0,0,1,6.32,1.79,7.71,7.71,0,0,1,3.36,5H397a14,14,0,0,0-5.22-8.55,16.32,16.32,0,0,0-10.31-3.2,16.9,16.9,0,0,0-8.76,2.3,16.32,16.32,0,0,0-6.08,6.36,21.61,21.61,0,0,0,0,19,15.92,15.92,0,0,0,6.08,6.36,17.07,17.07,0,0,0,8.76,2.26,16.11,16.11,0,0,0,10.28-3.26,14.13,14.13,0,0,0,5.25-8.49H391.1a8.48,8.48,0,0,1-1.85,3.72,8.68,8.68,0,0,1-3.37,2.37,12.13,12.13,0,0,1-4.46.79,10.77,10.77,0,0,1-4.23-.86,10.1,10.1,0,0,1-3.54-2.51,12.13,12.13,0,0,1-2.41-4.16,17.17,17.17,0,0,1-.89-5.74,15.58,15.58,0,0,1,1.55-7.28A10.73,10.73,0,0,1,376,329.81Z"/><rect class="cls-4" x="405.74" y="324.21" width="5.77" height="35.46"/><path class="cls-4" d="M408.63,309a4.06,4.06,0,0,0-2.86,1.06,3.68,3.68,0,0,0-1.13,2.79,4,4,0,0,0,6.81,2.85,3.84,3.84,0,0,0,1.16-2.85,3.64,3.64,0,0,0-1.16-2.79A4.08,4.08,0,0,0,408.63,309Z"/><path class="cls-4" d="M445.67,325.65a15.87,15.87,0,0,0-8.66-2.27,16.88,16.88,0,0,0-8.77,2.27,15.47,15.47,0,0,0-5.91,6.32,20.65,20.65,0,0,0-2.09,9.55,20.31,20.31,0,0,0,2.13,9.52,15.66,15.66,0,0,0,5.91,6.36,17.81,17.81,0,0,0,15.7.82,14.75,14.75,0,0,0,8.08-9.48h-5.71a9.25,9.25,0,0,1-3.47,4.43,10.41,10.41,0,0,1-6,1.62,10.51,10.51,0,0,1-9.45-5.78,14.36,14.36,0,0,1-1.5-6.18h27c.05-.64.07-1.21.07-1.72v-1.44a17.42,17.42,0,0,0-1.89-8.08A15.13,15.13,0,0,0,445.67,325.65ZM426,338.36a11.41,11.41,0,0,1,1.43-4.84,10,10,0,0,1,4.05-3.92,11.55,11.55,0,0,1,5.43-1.34,10.41,10.41,0,0,1,7.32,2.68,10.21,10.21,0,0,1,3.12,7.42Z"/><path class="cls-4" d="M484.9,325a14.34,14.34,0,0,0-7-1.62,13.41,13.41,0,0,0-7,1.82,12.27,12.27,0,0,0-4.71,5.05l-.27-6h-5.23v35.45h5.78v-19.3a14.37,14.37,0,0,1,1.34-6.57,9.89,9.89,0,0,1,3.6-4.05,9.58,9.58,0,0,1,5.16-1.41,8.19,8.19,0,0,1,6.49,2.61c1.54,1.74,2.3,4.35,2.3,7.84v20.88h5.78v-21.5a18.27,18.27,0,0,0-1.65-8.28A11,11,0,0,0,484.9,325Z"/><path class="cls-4" d="M510.23,329.81a10.51,10.51,0,0,1,5.46-1.48,11.14,11.14,0,0,1,6.32,1.79,7.72,7.72,0,0,1,3.37,5h5.91a14,14,0,0,0-5.23-8.55,16.29,16.29,0,0,0-10.3-3.2,16.85,16.85,0,0,0-8.76,2.3,16.34,16.34,0,0,0-6.09,6.36,21.61,21.61,0,0,0,0,19A16,16,0,0,0,507,357.4a17,17,0,0,0,8.76,2.26A16.1,16.1,0,0,0,526,356.4a14.19,14.19,0,0,0,5.26-8.49h-5.91a8.39,8.39,0,0,1-1.86,3.72,8.68,8.68,0,0,1-3.37,2.37,12.1,12.1,0,0,1-4.46.79,10.77,10.77,0,0,1-4.23-.86,10.1,10.1,0,0,1-3.54-2.51,12,12,0,0,1-2.4-4.16,16.91,16.91,0,0,1-.9-5.74,15.58,15.58,0,0,1,1.55-7.28A10.69,10.69,0,0,1,510.23,329.81Z"/><rect class="cls-4" x="540.02" y="324.21" width="5.77" height="35.46"/><path class="cls-4" d="M542.9,309a4.05,4.05,0,0,0-2.85,1.06,3.65,3.65,0,0,0-1.13,2.79,4,4,0,0,0,6.8,2.85,3.82,3.82,0,0,0,1.17-2.85,3.61,3.61,0,0,0-1.17-2.79A4.08,4.08,0,0,0,542.9,309Z"/><path class="cls-4" d="M578.05,325.13a16.58,16.58,0,0,0-8-1.75,17.47,17.47,0,0,0-6.74,1.34,13.75,13.75,0,0,0-5.33,3.85,11.4,11.4,0,0,0-2.5,6.22h5.91a7,7,0,0,1,3-4.88,9.84,9.84,0,0,1,5.71-1.65,9.26,9.26,0,0,1,4.7,1.1,7.1,7.1,0,0,1,2.89,3.26,13,13,0,0,1,1,5.4H569.5a22,22,0,0,0-7.87,1.27,11.22,11.22,0,0,0-5.16,3.71,9.69,9.69,0,0,0-1.82,5.94,10.62,10.62,0,0,0,1.38,5.33,9.91,9.91,0,0,0,4.19,3.92,17.1,17.1,0,0,0,11.2.93,12.2,12.2,0,0,0,3.26-1.48,11.34,11.34,0,0,0,2.48-2.2,12.72,12.72,0,0,0,1.75-2.72l.34,6.12h5.16V337.4a16.26,16.26,0,0,0-1.58-7.39A11.36,11.36,0,0,0,578.05,325.13Zm.59,17.56a13.87,13.87,0,0,1-.73,4.47,13.12,13.12,0,0,1-2.09,3.88,9.84,9.84,0,0,1-3.34,2.75,9.52,9.52,0,0,1-4.36,1,9.81,9.81,0,0,1-4-.76,5.55,5.55,0,0,1-2.54-2.13,6.34,6.34,0,0,1,0-6.43,5.81,5.81,0,0,1,3-2.19,15.36,15.36,0,0,1,5.43-.79h8.66Z"/><path class="cls-4" d="M620.31,325.79a15.82,15.82,0,0,0-8.76-2.41,15.41,15.41,0,0,0-5.57.93,14.05,14.05,0,0,0-4.12,2.4,15.39,15.39,0,0,0-2.82,3.13l-.48-5.63h-5.22V374h5.77V353.14a12,12,0,0,0,4.95,4.81,15.62,15.62,0,0,0,7.42,1.71,16.39,16.39,0,0,0,8.8-2.33,15.94,15.94,0,0,0,5.87-6.43,21.69,21.69,0,0,0,0-18.62A16.51,16.51,0,0,0,620.31,325.79Zm.62,22.64a11.27,11.27,0,0,1-4.12,4.57,11.84,11.84,0,0,1-12.06,0,11,11,0,0,1-4.06-4.57,17.2,17.2,0,0,1,0-13.78,10.82,10.82,0,0,1,10.1-6.25,11,11,0,0,1,10.14,6.25,16.78,16.78,0,0,1,0,13.78Z"/><path class="cls-4" d="M645.05,326.82a13.56,13.56,0,0,0-3,4l-.41-6.59h-5.22v35.45h5.77V341a15.59,15.59,0,0,1,.86-5.53,8.49,8.49,0,0,1,2.4-3.54A9.61,9.61,0,0,1,649,330a14.83,14.83,0,0,1,4.19-.58h2.13v-6.05a17.74,17.74,0,0,0-5.87.9A12.47,12.47,0,0,0,645.05,326.82Z"/><path class="cls-4" d="M661.16,351.35a3.9,3.9,0,0,0-2.85,1.13,3.92,3.92,0,0,0,2.85,6.7,3.73,3.73,0,0,0,2.82-1.13,4.08,4.08,0,0,0,0-5.57A3.77,3.77,0,0,0,661.16,351.35Z"/><path class="cls-4" d="M697.07,325.62a18.11,18.11,0,0,0-17.45,0,15.85,15.85,0,0,0-6.12,6.32,21.89,21.89,0,0,0,0,19.17,15.82,15.82,0,0,0,6,6.32,16.93,16.93,0,0,0,8.66,2.23,17.21,17.21,0,0,0,8.8-2.23,16.23,16.23,0,0,0,6.11-6.32,19.46,19.46,0,0,0,2.27-9.59,19.65,19.65,0,0,0-2.23-9.58A16,16,0,0,0,697.07,325.62Zm.79,23.19a10.88,10.88,0,0,1-4.12,4.43,10.73,10.73,0,0,1-5.5,1.48,10.51,10.51,0,0,1-5.46-1.48,10.69,10.69,0,0,1-4.06-4.43,18.07,18.07,0,0,1,0-14.6,10.65,10.65,0,0,1,4.12-4.4,10.78,10.78,0,0,1,5.47-1.48,10.66,10.66,0,0,1,5.53,1.48,10.86,10.86,0,0,1,4.06,4.4,17.86,17.86,0,0,1,0,14.6Z"/><path class="cls-4" d="M722.08,326.82a13.56,13.56,0,0,0-3,4l-.41-6.59h-5.22v35.45h5.77V341a15.59,15.59,0,0,1,.86-5.53,8.41,8.41,0,0,1,2.41-3.54A9.57,9.57,0,0,1,726,330a14.85,14.85,0,0,1,4.2-.58h2.13v-6.05a17.8,17.8,0,0,0-5.88.9A12.56,12.56,0,0,0,722.08,326.82Z"/><path class="cls-4" d="M767,324.21H757a16.46,16.46,0,0,0-5.35-.83,14.9,14.9,0,0,0-7.35,1.68,11.77,11.77,0,0,0-6.26,10.62,12.4,12.4,0,0,0,1.58,6.22,10.89,10.89,0,0,0,2.5,3l-5.94,5.87v1.58a19.32,19.32,0,0,0,2.17,1.72,12.37,12.37,0,0,0,2.39,1.24,11.47,11.47,0,0,0-2,1.65,10.51,10.51,0,0,0-2.27,3.5,9.93,9.93,0,0,0-.65,3.37,9.44,9.44,0,0,0,2,6.12,11.81,11.81,0,0,0,5.6,3.67,26.27,26.27,0,0,0,8.29,1.2,19.08,19.08,0,0,0,8.65-1.71,12.05,12.05,0,0,0,5-4.37,10.62,10.62,0,0,0,1.61-5.6,10.2,10.2,0,0,0-1.27-5.22,8.77,8.77,0,0,0-4.12-3.51,22.69,22.69,0,0,0-7.6-1.65q-3.43-.27-5.53-.54a23.25,23.25,0,0,1-3.26-.62,6.49,6.49,0,0,1-1.86-.83l-.45-.32,3.55-3.19a17.21,17.21,0,0,0,5.22.76,15.18,15.18,0,0,0,7.35-1.65,11.37,11.37,0,0,0,4.6-4.43,12.3,12.3,0,0,0,1.58-6.22,12.1,12.1,0,0,0-1.58-6.18c-.14-.26-.33-.5-.49-.74l3.9-.22ZM752.7,357.4q5,.27,6.8,1.89a5.18,5.18,0,0,1,1.79,4,5.55,5.55,0,0,1-1.17,3.54,7.84,7.84,0,0,1-3.3,2.33,13.6,13.6,0,0,1-5.08.86,17.24,17.24,0,0,1-5.29-.75A7.93,7.93,0,0,1,742.8,367a5.58,5.58,0,0,1-1.3-3.78,7.41,7.41,0,0,1,1.1-3.61,8,8,0,0,1,3.59-2.94C748,357,750.13,357.23,752.7,357.4Zm4.81-16.08a8.41,8.41,0,0,1-5.84,1.92,8.65,8.65,0,0,1-5.91-1.92,7.09,7.09,0,0,1-2.2-5.64,6.93,6.93,0,0,1,2.23-5.56,8.66,8.66,0,0,1,5.88-1.93,8.37,8.37,0,0,1,5.84,1.93,7.11,7.11,0,0,1,2.13,5.56A7.22,7.22,0,0,1,757.51,341.32Z"/></g></g></svg>