<svg width="139" height="52" viewBox="0 0 139 52" fill="none" xmlns="http://www.w3.org/2000/svg">
<g clip-path="url(#clip0_9174_1450)">
<path d="M17.2785 17.564C17.9551 17.564 18.5062 17.0119 18.5062 16.334C18.5062 15.6561 17.9551 15.104 17.2785 15.104C16.6019 15.104 16.0508 15.6561 16.0508 16.334C16.0508 17.0119 16.6019 17.564 17.2785 17.564Z" fill="#92C740"/>
<path d="M25.3723 20.0241C26.0489 20.0241 26.6 19.472 26.6 18.7941C26.6 18.1162 26.0489 17.564 25.3723 17.564C24.6956 17.564 24.1445 18.1162 24.1445 18.7941C24.1445 19.472 24.6956 20.0241 25.3723 20.0241Z" fill="#02A88C"/>
<path d="M22.8555 35.2266C22.8723 35.1475 22.8865 35.0672 22.8956 34.9855" stroke="#02A88C" stroke-linecap="round" stroke-linejoin="round"/>
<path d="M42.4268 0.811386C42.2496 0.711583 41.8641 0.804905 41.6739 0.877489C41.3932 0.986366 41.1758 1.22486 40.8835 1.30781C40.7437 0.859343 40.6118 0.395324 40.256 0.0764725C40.1978 0.0233306 40.1189 0 40.04 0C39.9611 0 39.886 0.0233306 39.8278 0.0738802C39.5833 0.283856 39.4889 0.52105 39.4164 0.854159C39.3608 1.10691 39.3634 1.60074 39.2017 1.77442C38.9377 2.05828 38.0257 1.80812 37.8109 2.06735C37.7488 2.14123 37.745 2.26047 37.7657 2.35121C37.8109 2.54952 38.7851 3.26758 38.996 3.45941C38.9972 3.4607 38.9985 3.462 39.0011 3.46459C39.2146 4.12433 39.1564 5.58897 39.1564 5.58897H30.1794C29.539 5.58897 28.9659 6.05688 28.9025 6.69588C28.8314 7.4295 29.4071 8.04905 30.1238 8.04905H37.4629C38.0968 8.04905 38.613 8.56751 38.613 9.20262C38.613 9.83773 38.0968 10.3549 37.4629 10.3549H31.7577C31.0397 10.3549 30.464 10.9757 30.5365 11.7094C30.5986 12.3484 31.1717 12.8163 31.8134 12.8163H35.2921C35.8924 12.8163 36.4293 13.2544 36.4875 13.8532C36.5548 14.5401 36.0153 15.1208 35.3426 15.1208H29.0733C28.4329 15.1208 27.8585 15.5887 27.7964 16.2277C27.7253 16.9613 28.301 17.5809 29.0177 17.5809H33.9234C31.0436 20.457 27.191 22.3533 22.9114 22.7331H22.8726L22.9101 15.1104C22.9101 13.7845 21.8377 12.7087 20.5142 12.7087C20.0834 12.7087 19.716 13.0911 19.716 13.5227L19.7276 22.7318C19.7276 22.7318 19.7341 22.7318 19.738 22.7318V25.3396C19.738 25.3396 19.7328 25.3396 19.7315 25.3396H19.7199V26.8859C9.29914 27.6934 1.04923 36.3581 0.868116 46.9567C0.865528 46.9865 0.865528 47.0228 0.865528 47.0617C0.857766 47.1576 0.856472 47.1822 0.855179 47.2626C0.855179 47.3015 0.84871 47.3611 0.850004 47.3987C0.840948 47.645 0.840948 47.8964 0.855179 48.1543C0.913395 49.2198 1.16696 50.3643 1.60294 51.3714C1.64692 51.501 1.70126 51.6254 1.775 51.7408C1.775 51.7408 1.775 51.7421 1.77629 51.7434C1.80863 51.7939 1.84486 51.8432 1.88496 51.8911C1.93542 51.9507 2.01045 51.9857 2.08937 51.9974C2.16569 52.0078 2.24461 51.9948 2.30929 51.9533C2.57968 51.7784 2.70517 51.5567 2.82289 51.2366C2.91216 50.9942 2.97684 50.5042 3.16055 50.3539C3.46068 50.1076 4.33005 50.4809 4.57844 50.2541C4.64959 50.1893 4.67029 50.0726 4.66253 49.9793C4.65218 49.8575 4.33522 49.5049 4.04414 49.1951C4.03121 49.1822 4.01956 49.1692 4.00662 49.1563C3.92253 49.059 3.70131 48.7596 3.5603 48.1556C3.51761 47.9755 3.48268 47.7707 3.46068 47.5322L3.45034 47.3572V47.3118C3.45034 47.0876 3.45939 46.8647 3.46715 46.6417H12.4519C13.0923 46.6417 13.6667 46.1738 13.7288 45.5348C13.7999 44.8012 13.2242 44.1817 12.5075 44.1817H5.16837C4.53445 44.1817 4.01827 43.6632 4.01827 43.0281C4.01827 42.393 4.53445 41.8758 5.16837 41.8758H10.8736C11.5916 41.8758 12.1673 41.255 12.0948 40.5214C12.0327 39.8824 11.4596 39.4144 10.8179 39.4144H7.33919C6.73891 39.4144 6.20203 38.9763 6.14381 38.3775C6.07654 37.6906 6.61601 37.1099 7.28873 37.1099H13.558C14.1984 37.1099 14.7728 36.642 14.8349 36.003C14.906 35.2694 14.3303 34.6498 13.6136 34.6498H8.70792C11.5877 31.7737 15.4403 29.8774 19.7199 29.4976V36.3413C19.7199 36.7716 20.0692 37.1216 20.4987 37.1216C20.5026 37.1216 20.5064 37.1216 20.5103 37.1216C20.5116 37.1216 20.5142 37.1216 20.5155 37.1216C21.663 37.1216 22.6203 36.3128 22.8545 35.2344V35.1411C22.8636 35.0905 22.8726 35.04 22.8791 34.9894C22.8791 34.9868 22.8791 34.9842 22.8791 34.9816C22.8881 34.8961 22.8933 34.8105 22.8933 34.7224C22.8933 34.7224 22.8933 34.7211 22.8933 34.7198V25.3422H22.861H22.9127C33.3309 24.536 41.5821 15.8713 41.7632 5.27271C41.7632 5.11718 41.7567 5.06533 41.7632 4.97719C41.7632 4.9396 41.7619 4.90461 41.7606 4.86832C41.7683 4.04008 41.7645 3.1276 41.7645 3.1276H41.7606C41.7826 2.95002 41.8175 2.7893 41.8757 2.66228C42.062 2.2527 43.0672 1.17301 42.4294 0.812682L42.4268 0.811386Z" fill="#02A88C"/>
<path d="M22.9152 29.4976C25.8506 29.7608 28.5842 30.7381 30.9413 32.2545C31.1561 32.3932 31.367 32.5358 31.5752 32.6823C32.1742 33.1048 32.7447 33.5662 33.2868 34.0575C33.4977 34.2493 33.706 34.445 33.9078 34.6472H30.5752C30.0137 34.6472 29.5053 35.0063 29.3449 35.5234C29.3216 35.5973 29.3061 35.6751 29.2983 35.7541C29.2854 35.8915 29.2945 36.025 29.3229 36.1508C29.3617 36.3193 29.4342 36.4748 29.5338 36.6083C29.5584 36.642 29.5855 36.6744 29.6127 36.7055C29.711 36.8144 29.83 36.9025 29.962 36.9712C29.9969 36.9894 30.0319 37.0049 30.0681 37.0192C30.1069 37.0347 30.147 37.0477 30.1871 37.0594C30.2932 37.0892 30.4044 37.1073 30.5196 37.1073H35.2894C35.6271 37.1073 35.9415 37.2499 36.1653 37.478C36.2093 37.5234 36.2507 37.5726 36.2869 37.6245C36.3516 37.7178 36.4072 37.8176 36.4408 37.9278C36.4628 37.9965 36.4771 38.069 36.4848 38.1442C36.5016 38.3153 36.4809 38.4812 36.4292 38.6316C36.3774 38.7832 36.2959 38.9193 36.1899 39.0347C36.0851 39.15 35.9557 39.2446 35.8121 39.3095C35.6685 39.3743 35.5081 39.4106 35.3399 39.4106H28.8041C28.7239 39.4106 28.645 39.4183 28.5674 39.4313C28.4134 39.4598 28.266 39.5142 28.134 39.592C27.8041 39.7851 27.5661 40.1183 27.5273 40.5175C27.491 40.8843 27.6178 41.2226 27.8429 41.4688C27.8714 41.4999 27.9011 41.5285 27.9322 41.557C28.0564 41.6684 28.2039 41.7553 28.3643 41.8084C28.4445 41.8356 28.5299 41.8538 28.6166 41.8629C28.6605 41.868 28.7045 41.8693 28.7498 41.8693H37.4525C37.6116 41.8693 37.7617 41.903 37.9001 41.9614C38.0373 42.0197 38.1615 42.1039 38.2662 42.2089C38.3697 42.3139 38.4551 42.4371 38.5133 42.5757C38.5716 42.7131 38.6039 42.8648 38.6039 43.0242C38.6039 43.2627 38.5314 43.4843 38.4073 43.6684C38.2831 43.8524 38.1071 43.9989 37.9014 44.0857C37.7643 44.1441 37.6129 44.1765 37.4538 44.1765H35.5288H31.6787C31.0875 44.1765 30.5946 44.5964 30.4782 45.1551C30.4627 45.2302 30.4536 45.3067 30.4523 45.3858C30.4523 45.3884 30.4523 45.391 30.4523 45.3949C30.4523 45.4402 30.4536 45.4856 30.4588 45.5309C30.4821 45.7707 30.5778 45.9859 30.7214 46.1622C30.9607 46.4551 31.3346 46.6379 31.7357 46.6379H39.1485C39.155 46.8102 39.1589 46.9839 39.1615 47.1589C39.1615 47.2198 39.1589 47.282 39.1576 47.343L39.146 47.5283H39.1382C39.1162 47.7681 39.08 47.9729 39.0386 48.153C38.8976 48.7571 38.6776 49.0565 38.5923 49.1537C38.5806 49.1666 38.5677 49.1796 38.5547 49.1926C38.2637 49.5023 37.9467 49.8549 37.9363 49.9767C37.9286 50.07 37.9493 50.1867 38.0204 50.2515C38.2688 50.4783 39.1395 50.105 39.4383 50.3513C39.622 50.5017 39.6867 50.9916 39.776 51.234C39.8937 51.5528 40.0192 51.7745 40.2896 51.9507C40.3543 51.9922 40.4332 52.0052 40.5095 51.9948C40.5871 51.9844 40.6622 51.9495 40.7139 51.8885C40.754 51.8419 40.7902 51.7913 40.8226 51.7408C40.8226 51.7408 40.8226 51.7395 40.8226 51.7382C40.8963 51.6228 40.9507 51.4984 40.9946 51.3688C41.4319 50.3617 41.6842 49.2172 41.7424 48.1518C41.745 48.1012 41.7463 48.0506 41.7476 48.0001C41.7592 47.6735 41.7553 47.4791 41.7553 47.4791C41.7553 47.4142 41.7553 47.3468 41.7553 47.2807C41.7553 47.2769 41.7553 47.2587 41.7553 47.2548C41.7553 47.2384 41.7549 47.2228 41.7541 47.2082C41.7515 47.1706 41.7502 47.1446 41.7476 47.1071C41.7411 46.4914 41.7049 45.8822 41.6454 45.2795C41.591 44.7286 41.5121 44.1856 41.4151 43.6489C41.2974 42.9983 41.1499 42.3593 40.9727 41.7307C39.8394 37.7243 37.5198 34.2143 34.4175 31.6078C34.0967 31.3382 33.7706 31.0751 33.433 30.8249C32.9621 30.4762 32.4731 30.1483 31.9724 29.8398C31.9426 29.8217 31.9142 29.8022 31.8844 29.7841C31.0966 29.3045 30.2738 28.8781 29.4212 28.5074C29.4096 28.5022 29.3992 28.497 29.3876 28.4918C28.8572 28.2624 28.3138 28.0576 27.7627 27.8723C27.7148 27.8567 27.667 27.8373 27.6191 27.8217C27.0732 27.6442 26.5156 27.4912 25.9515 27.359C25.8933 27.3448 25.8351 27.3292 25.7769 27.3149C24.8454 27.1063 23.8894 26.9611 22.9139 26.8846C22.9114 26.8846 22.9088 26.8846 22.9062 26.8846C22.9023 26.8846 22.8984 26.8846 22.8945 26.8846V29.4925C22.8945 29.4925 22.9075 29.4938 22.9139 29.4951L22.9152 29.4976Z" fill="#92C740"/>
<path d="M22.8945 29.4951C22.8945 29.4951 22.9077 29.4964 22.9144 29.4977" stroke="#02A88C" stroke-linecap="round" stroke-linejoin="round"/>
<path d="M19.7378 22.7331C19.7378 22.7331 19.7313 22.7331 19.7274 22.7331C15.4505 22.3507 11.6017 20.4557 8.72453 17.5822H12.0571C12.6975 17.5822 13.2719 17.1143 13.334 16.474C13.4051 15.7404 12.8294 15.1208 12.1114 15.1208H7.34157C6.7413 15.1208 6.20441 14.6827 6.1449 14.0839C6.07763 13.3969 6.6171 12.8163 7.28982 12.8163H13.8256C14.466 12.8163 15.0404 12.3484 15.1025 11.7094C15.1736 10.9757 14.5979 10.3562 13.8799 10.3562H5.1798C4.54589 10.3562 4.02971 9.83773 4.02971 9.20262C4.02971 8.56751 4.54589 8.05035 5.1798 8.05035H10.9536C11.6716 8.05035 12.2473 7.4295 12.1748 6.69588C12.1127 6.05688 11.5396 5.58897 10.8979 5.58897H3.48635C3.48377 5.51509 3.48377 5.44121 3.48118 5.36733C3.47859 5.22087 3.4773 5.01608 3.48377 4.78666L3.52128 4.19173C3.52128 4.18006 3.52128 4.16581 3.52128 4.15414C3.54586 3.89232 3.58467 3.64346 3.64418 3.45941C3.85506 3.26758 4.82921 2.54952 4.87449 2.35121C4.89519 2.25918 4.89001 2.14123 4.82921 2.06735C4.61316 1.80942 3.70111 2.05957 3.43849 1.77442C3.27677 1.59944 3.27936 1.10691 3.22373 0.854159C3.14999 0.522346 3.05685 0.285152 2.81234 0.0738802C2.75412 0.0233306 2.6765 0 2.60017 0C2.52384 0 2.44234 0.0246267 2.38412 0.0764725C2.02836 0.395324 1.8964 0.858047 1.75668 1.30781C1.4656 1.22486 1.24696 0.986366 0.966231 0.877489C0.776057 0.804905 0.390535 0.711583 0.213299 0.811386C-0.424494 1.17171 0.580709 2.2514 0.767001 2.66098C0.825218 2.78801 0.860148 2.94873 0.88214 3.1263C0.88214 3.1263 0.878259 4.00897 0.886021 4.82425C0.886021 4.83851 0.884728 4.85147 0.883434 4.86572V4.87998C0.883434 4.92146 0.879553 4.96423 0.879553 5.00571C0.88214 5.0433 0.886021 5.07959 0.888609 5.11718C0.888609 5.13791 0.889903 5.15736 0.891196 5.1781C0.896371 5.5125 0.904133 5.81061 0.915777 5.99207C0.915777 5.99596 0.918364 5.99985 0.918364 6.00374C1.45784 16.264 9.56156 24.549 19.7352 25.3383C19.7378 25.3383 19.7391 25.3383 19.7417 25.3383V22.7305L19.7378 22.7331Z" fill="#92C740"/>
<path d="M52.8831 18.3599C51.6929 18.3599 50.667 18.0968 49.8054 17.5692C48.9438 17.043 48.2802 16.3068 47.8119 15.3632C47.3435 14.4196 47.1094 13.3218 47.1094 12.071C47.1094 10.8202 47.3435 9.73793 47.8119 8.78786C48.2802 7.83908 48.9438 7.10028 49.8054 6.57275C50.6657 6.04651 51.6917 5.7821 52.8831 5.7821C54.3049 5.7821 55.4576 6.12428 56.3425 6.80735C57.2261 7.49042 57.7901 8.45216 58.0321 9.68998H56.1252C55.9518 8.97191 55.596 8.39902 55.0591 7.96999C54.521 7.54097 53.7965 7.3271 52.8831 7.3271C52.0629 7.3271 51.3514 7.51764 50.7511 7.9C50.1496 8.28236 49.6877 8.82674 49.3643 9.53314C49.0409 10.2395 48.8792 11.0846 48.8792 12.0684C48.8792 13.0522 49.0409 13.9011 49.3643 14.6127C49.6877 15.3256 50.1496 15.87 50.7511 16.2459C51.3527 16.6218 52.0629 16.8097 52.8831 16.8097C53.7965 16.8097 54.521 16.6036 55.0591 16.1927C55.596 15.7819 55.9518 15.2232 56.1252 14.5168H58.0321C57.7888 15.7209 57.2261 16.6619 56.3425 17.3398C55.4576 18.0177 54.3049 18.356 52.8831 18.356V18.3599Z" fill="#222222"/>
<path d="M61.0316 7.74705C60.6966 7.74705 60.4223 7.64336 60.2076 7.43468C59.9941 7.226 59.8867 6.96029 59.8867 6.63626C59.8867 6.31222 59.9928 6.06595 60.2076 5.86376C60.421 5.66156 60.6953 5.55916 61.0316 5.55916C61.368 5.55916 61.6267 5.66026 61.8467 5.86376C62.0666 6.06595 62.1766 6.32389 62.1766 6.63626C62.1766 6.94863 62.0666 7.2273 61.8467 7.43468C61.6267 7.64336 61.3551 7.74705 61.0316 7.74705ZM60.148 18.1512V9.39704H61.8816V18.1512H60.148Z" fill="#222222"/>
<path d="M68.3134 18.3599C67.4815 18.3599 66.7415 18.1693 66.0947 17.787C65.4466 17.4046 64.942 16.8719 64.5772 16.1888C64.2137 15.5058 64.0312 14.7125 64.0312 13.8091C64.0312 12.9057 64.2137 12.0749 64.5772 11.3866C64.9407 10.6984 65.4466 10.1592 66.0947 9.77163C66.7415 9.38408 67.4932 9.18966 68.3483 9.18966C69.2035 9.18966 69.937 9.38019 70.5502 9.76255C71.1621 10.1449 71.6369 10.6517 71.972 11.2829C72.307 11.9142 72.4752 12.6115 72.4752 13.3762C72.4752 13.4916 72.4726 13.616 72.4662 13.7495C72.4597 13.883 72.4519 14.0308 72.4403 14.1928H65.2978V12.9601H70.7417C70.7067 12.2304 70.4648 11.6601 70.0133 11.2492C69.5618 10.8384 69.0016 10.6323 68.3315 10.6323C67.858 10.6323 67.4246 10.7398 67.0313 10.9537C66.6381 11.1676 66.3237 11.4812 66.0869 11.8921C65.8502 12.303 65.7312 12.8215 65.7312 13.4462V13.9322C65.7312 14.5803 65.8502 15.1286 66.0869 15.5732C66.3237 16.019 66.6393 16.3547 67.0313 16.5803C67.4246 16.8058 67.8515 16.9186 68.3147 16.9186C68.8697 16.9186 69.3264 16.7967 69.6847 16.5543C70.0431 16.3107 70.3096 15.9815 70.4829 15.5641H72.2165C72.0664 16.0968 71.8115 16.5738 71.4532 16.9976C71.0948 17.4202 70.6524 17.7533 70.1272 17.997C69.6006 18.2406 68.9978 18.3612 68.316 18.3612L68.3134 18.3599Z" fill="#222222"/>
<path d="M74.3984 18.1512V9.39704H75.9586L76.0621 10.8902C76.339 10.3691 76.7323 9.95568 77.2407 9.64849C77.7491 9.34131 78.3326 9.18836 78.9911 9.18836C79.6845 9.18836 80.2796 9.32705 80.7764 9.60572C81.2731 9.8831 81.66 10.303 81.9381 10.8656C82.215 11.4281 82.3547 12.1306 82.3547 12.9757V18.1512H80.6211V13.1494C80.6211 12.3393 80.4413 11.7249 80.0842 11.3076C79.7259 10.8902 79.2058 10.6828 78.524 10.6828C78.0738 10.6828 77.6689 10.7904 77.3106 11.0043C76.9522 11.2181 76.6663 11.5344 76.4528 11.9504C76.2394 12.3678 76.132 12.8772 76.132 13.4786V18.1512H74.3984Z" fill="#222222"/>
<path d="M88.6136 18.3599C87.7701 18.3599 87.0185 18.1655 86.36 17.7779C85.7015 17.3904 85.184 16.8551 84.8088 16.1707C84.4337 15.4876 84.2461 14.6944 84.2461 13.791C84.2461 12.8876 84.4337 12.0749 84.8088 11.3853C85.184 10.6971 85.7015 10.1579 86.36 9.77033C87.0185 9.38278 87.7701 9.18836 88.6136 9.18836C89.677 9.18836 90.5671 9.46574 91.2838 10.0218C92.0005 10.5778 92.4572 11.3309 92.6538 12.2797H90.8504C90.7353 11.7703 90.4714 11.3763 90.0613 11.0989C89.6512 10.8215 89.1621 10.6815 88.5968 10.6815C88.1349 10.6815 87.7067 10.8008 87.3134 11.038C86.9202 11.2752 86.6058 11.6225 86.369 12.0801C86.1323 12.5376 86.0133 13.1027 86.0133 13.7741C86.0133 14.2718 86.0831 14.7151 86.2216 15.1027C86.36 15.4902 86.5476 15.8181 86.7843 16.0838C87.0211 16.3509 87.2953 16.5505 87.6084 16.6827C87.9202 16.8162 88.2501 16.8823 88.5968 16.8823C88.9784 16.8823 89.3226 16.8214 89.6279 16.6995C89.9345 16.5777 90.1945 16.3962 90.408 16.1525C90.6214 15.9089 90.7689 15.6198 90.8504 15.2841H92.6538C92.4572 16.2109 92.0005 16.9549 91.2838 17.5161C90.5671 18.0786 89.677 18.3586 88.6136 18.3586V18.3599Z" fill="#222222"/>
<path d="M95.6879 7.74705C95.3528 7.74705 95.0786 7.64336 94.8638 7.43468C94.6504 7.226 94.543 6.96029 94.543 6.63626C94.543 6.31222 94.6491 6.06595 94.8638 5.86376C95.0773 5.66156 95.3515 5.55916 95.6879 5.55916C96.0243 5.55916 96.283 5.66026 96.5029 5.86376C96.7229 6.06595 96.8328 6.32389 96.8328 6.63626C96.8328 6.94863 96.7229 7.2273 96.5029 7.43468C96.283 7.64336 96.0113 7.74705 95.6879 7.74705ZM94.8043 18.1512V9.39704H96.5379V18.1512H94.8043Z" fill="#222222"/>
<path d="M101.912 18.3599C101.195 18.3599 100.6 18.238 100.126 17.9957C99.6528 17.752 99.2997 17.4254 99.0694 17.0145C98.8378 16.6036 98.7227 16.1603 98.7227 15.6859C98.7227 15.1066 98.8727 14.6114 99.1742 14.2006C99.4743 13.7897 99.9025 13.4734 100.458 13.2544C101.013 13.034 101.676 12.9238 102.451 12.9238H104.722C104.722 12.4145 104.646 11.9919 104.496 11.6562C104.346 11.3205 104.124 11.0691 103.829 10.9006C103.534 10.7334 103.161 10.6491 102.711 10.6491C102.191 10.6491 101.746 10.7735 101.376 11.0224C101.006 11.2713 100.774 11.6394 100.683 12.1254H98.9491C99.0189 11.5123 99.2285 10.9874 99.5817 10.5532C99.9336 10.119 100.388 9.78329 100.943 9.5461C101.498 9.3089 102.086 9.18966 102.711 9.18966C103.531 9.18966 104.22 9.33483 104.775 9.62387C105.33 9.91291 105.749 10.3212 106.032 10.8487C106.315 11.3763 106.456 12.0036 106.456 12.7333V18.1525H104.948L104.81 16.6762C104.683 16.9082 104.533 17.1272 104.359 17.3359C104.186 17.5446 103.98 17.7235 103.743 17.8751C103.507 18.0255 103.235 18.1447 102.928 18.2316C102.622 18.3184 102.284 18.3612 101.914 18.3612L101.912 18.3599ZM102.242 16.9523C102.612 16.9523 102.947 16.8771 103.247 16.7267C103.547 16.5764 103.804 16.3703 104.018 16.1098C104.231 15.8492 104.393 15.5537 104.503 15.2245C104.613 14.894 104.674 14.5557 104.685 14.2083V14.1565H102.622C102.125 14.1565 101.723 14.2174 101.417 14.3392C101.111 14.4611 100.888 14.6257 100.75 14.8344C100.611 15.043 100.542 15.2854 100.542 15.5641C100.542 15.8428 100.608 16.0994 100.741 16.3029C100.874 16.5051 101.067 16.6645 101.322 16.7799C101.575 16.8952 101.882 16.9536 102.24 16.9536L102.242 16.9523Z" fill="#222222"/>
<path d="M47.1172 35.2409V23.0817H51.2609C52.2312 23.0817 53.0294 23.2438 53.6529 23.5678C54.2765 23.8918 54.7397 24.326 55.0398 24.8704C55.3399 25.4148 55.4913 26.0343 55.4913 26.7291C55.4913 27.4238 55.3438 27.9941 55.0488 28.5437C54.7539 29.0932 54.2946 29.5339 53.6711 29.8632C53.0475 30.1937 52.2441 30.3583 51.2609 30.3583H48.8507V35.2396H47.1172V35.2409ZM48.8507 28.9183H51.191C52.1044 28.9183 52.7538 28.7187 53.1406 28.3195C53.5275 27.9202 53.7215 27.3901 53.7215 26.7304C53.7215 26.024 53.5275 25.4796 53.1406 25.0972C52.7538 24.7149 52.1031 24.5243 51.191 24.5243H48.8507V28.9183Z" fill="#222222"/>
<path d="M60.4835 35.4495C59.8017 35.4495 59.2092 35.3108 58.706 35.0322C58.2027 34.7548 57.8159 34.3374 57.5442 33.7814C57.2726 33.2254 57.1367 32.5254 57.1367 31.6791V26.4854H58.8703V31.4872C58.8703 32.309 59.0488 32.9285 59.4072 33.3459C59.7655 33.7633 60.2791 33.9719 60.9505 33.9719C61.4007 33.9719 61.8083 33.8618 62.1731 33.6414C62.5366 33.4211 62.8225 33.1035 63.0308 32.6862C63.2391 32.2688 63.3426 31.7594 63.3426 31.158V26.4854H65.0761V35.2396H63.5328L63.4112 33.7464C63.1446 34.2791 62.7578 34.6965 62.2494 34.9972C61.741 35.2979 61.1511 35.4482 60.4809 35.4482L60.4835 35.4495Z" fill="#222222"/>
<path d="M71.4032 35.4495C70.5714 35.4495 69.8314 35.259 69.1845 34.8766C68.5364 34.4943 68.0319 33.9616 67.667 33.2785C67.3035 32.5954 67.1211 31.8022 67.1211 30.8988C67.1211 29.9954 67.3035 29.1645 67.667 28.4763C68.0306 27.788 68.5364 27.2488 69.1845 26.8613C69.8314 26.4737 70.583 26.2793 71.4382 26.2793C72.2933 26.2793 73.0268 26.4699 73.64 26.8522C74.2519 27.2346 74.7267 27.7414 75.0618 28.3726C75.3969 29.0038 75.5651 29.7011 75.5651 30.4659C75.5651 30.5812 75.5625 30.7056 75.556 30.8392C75.5495 30.9727 75.5418 31.1204 75.5301 31.2824H68.3876V30.0498H73.8315C73.7966 29.3201 73.5546 28.7498 73.1031 28.3389C72.6516 27.928 72.0915 27.7219 71.4213 27.7219C70.9478 27.7219 70.5145 27.8295 70.1212 28.0434C69.7279 28.2572 69.4135 28.5709 69.1768 28.9818C68.94 29.3927 68.821 29.9111 68.821 30.5359V31.0219C68.821 31.67 68.94 32.2183 69.1768 32.6628C69.4135 33.1087 69.7292 33.4444 70.1212 33.6699C70.5145 33.8955 70.9414 34.0082 71.4045 34.0082C71.9595 34.0082 72.4162 33.8864 72.7745 33.644C73.1329 33.4003 73.3994 33.0711 73.5728 32.6538H75.3063C75.1562 33.1865 74.9014 33.6634 74.543 34.0873C74.1847 34.5098 73.7422 34.8429 73.217 35.0866C72.6905 35.3303 72.0876 35.4508 71.4058 35.4508L71.4032 35.4495Z" fill="#222222"/>
<path d="M77.4883 35.2409V26.4867H79.0485L79.205 28.1367C79.4017 27.7427 79.6552 27.4096 79.9683 27.1374C80.2801 26.8652 80.6475 26.6539 81.0692 26.5036C81.491 26.3532 81.9735 26.278 82.5169 26.278V28.1198H81.8933C81.535 28.1198 81.1934 28.1626 80.87 28.2495C80.5466 28.3363 80.2607 28.4841 80.0123 28.6927C79.7639 28.9014 79.5698 29.1853 79.4314 29.5443C79.293 29.9033 79.2231 30.3492 79.2231 30.8819V35.2422H77.4896L77.4883 35.2409Z" fill="#222222"/>
<path d="M87.7007 35.2409C87.1573 35.2409 86.6838 35.154 86.2789 34.9803C85.874 34.8067 85.5622 34.5176 85.3423 34.1119C85.1223 33.7062 85.0124 33.1567 85.0124 32.4619V27.963H83.5039V26.4867H85.0124L85.2206 24.2975H86.7459V26.4867H89.2246V27.963H86.7459V32.4788C86.7459 32.9765 86.8494 33.3148 87.0577 33.495C87.266 33.6751 87.6243 33.7646 88.1328 33.7646H89.138V35.2409H87.6994H87.7007Z" fill="#222222"/>
<path d="M94.8796 35.4495C94.0581 35.4495 93.322 35.259 92.6686 34.8766C92.0153 34.4943 91.5017 33.959 91.1253 33.2694C90.7501 32.5812 90.5625 31.784 90.5625 30.8806C90.5625 29.9772 90.7527 29.1464 91.1343 28.4581C91.516 27.7699 92.036 27.2333 92.6945 26.8522C93.353 26.4699 94.093 26.2793 94.9132 26.2793C95.7334 26.2793 96.485 26.4699 97.1319 26.8522C97.7787 27.2346 98.2897 27.7673 98.6662 28.4504C99.0414 29.1334 99.2303 29.9383 99.2303 30.8651C99.2303 31.7918 99.0427 32.5967 98.6662 33.2798C98.291 33.9629 97.7736 34.4956 97.1151 34.8779C96.4566 35.2603 95.7114 35.4508 94.8783 35.4508L94.8796 35.4495ZM94.8796 33.9551C95.3531 33.9551 95.7839 33.8397 96.1707 33.6077C96.5575 33.3757 96.8693 33.0322 97.1073 32.5747C97.3441 32.1172 97.4631 31.5468 97.4631 30.8638C97.4631 30.1807 97.3479 29.6104 97.1164 29.1529C96.8848 28.6953 96.5756 28.3506 96.1888 28.1198C95.802 27.8878 95.3763 27.7725 94.9145 27.7725C94.4526 27.7725 94.0244 27.8878 93.6311 28.1198C93.2379 28.3519 92.9235 28.6966 92.6867 29.1529C92.45 29.6104 92.331 30.1807 92.331 30.8638C92.331 31.5468 92.4487 32.1172 92.6867 32.5747C92.9235 33.0322 93.2353 33.377 93.6234 33.6077C94.0102 33.8397 94.4294 33.9551 94.8809 33.9551H94.8796Z" fill="#222222"/>
<path d="M105.801 35.2409V23.0817H109.91C110.868 23.0817 111.655 23.2438 112.267 23.5678C112.879 23.8918 113.333 24.3234 113.628 24.8613C113.923 25.3992 114.07 26.011 114.07 26.6941C114.07 27.3772 113.923 27.9423 113.628 28.4918C113.333 29.0414 112.873 29.4821 112.25 29.8113C111.625 30.1418 110.828 30.3064 109.858 30.3064H107.534V35.2396H105.801V35.2409ZM107.534 28.9883H109.788C110.643 28.9883 111.273 28.777 111.678 28.3544C112.083 27.9319 112.285 27.3901 112.285 26.7304C112.285 26.0706 112.088 25.5263 111.695 25.1322C111.302 24.7382 110.666 24.5412 109.788 24.5412H107.534V28.9883ZM112.18 35.2409L109.563 29.8385H111.47L114.192 35.2409H112.18Z" fill="#222222"/>
<path d="M117.227 24.8367C116.892 24.8367 116.618 24.733 116.403 24.5243C116.189 24.3157 116.082 24.05 116.082 23.7259C116.082 23.4019 116.188 23.1556 116.403 22.9534C116.616 22.7512 116.891 22.6488 117.227 22.6488C117.563 22.6488 117.822 22.7499 118.042 22.9534C118.262 23.1556 118.372 23.4135 118.372 23.7259C118.372 24.0383 118.262 24.317 118.042 24.5243C117.822 24.733 117.55 24.8367 117.227 24.8367ZM116.342 35.2409V26.4867H118.076V35.2409H116.342Z" fill="#222222"/>
<path d="M124.594 35.4495C123.751 35.4495 122.999 35.2551 122.34 34.8676C121.682 34.48 121.164 33.9447 120.789 33.2603C120.414 32.5773 120.227 31.784 120.227 30.8806C120.227 29.9772 120.414 29.1645 120.789 28.475C121.164 27.7867 121.682 27.2475 122.34 26.86C122.999 26.4724 123.751 26.278 124.594 26.278C125.658 26.278 126.548 26.5554 127.264 27.1114C127.981 27.6675 128.438 28.4205 128.634 29.3693H126.831C126.716 28.8599 126.452 28.4659 126.042 28.1885C125.632 27.9112 125.143 27.7712 124.577 27.7712C124.115 27.7712 123.687 27.8904 123.294 28.1276C122.901 28.3648 122.586 28.7122 122.35 29.1697C122.113 29.6273 121.994 30.1924 121.994 30.8638C121.994 31.3615 122.064 31.8048 122.202 32.1923C122.34 32.5799 122.528 32.9078 122.765 33.1735C123.002 33.4405 123.276 33.6401 123.589 33.7723C123.901 33.9058 124.231 33.9719 124.577 33.9719C124.959 33.9719 125.303 33.911 125.608 33.7892C125.915 33.6673 126.175 33.4859 126.388 33.2422C126.602 32.9985 126.749 32.7095 126.831 32.3738H128.634C128.438 33.3005 127.981 34.0445 127.264 34.6057C126.548 35.1683 125.658 35.4482 124.594 35.4482V35.4495Z" fill="#222222"/>
<path d="M134.649 35.4495C133.828 35.4495 133.091 35.259 132.438 34.8766C131.785 34.4943 131.271 33.959 130.895 33.2694C130.52 32.5812 130.332 31.784 130.332 30.8806C130.332 29.9772 130.522 29.1464 130.904 28.4581C131.285 27.7699 131.806 27.2333 132.464 26.8522C133.123 26.4711 133.863 26.2793 134.683 26.2793C135.503 26.2793 136.255 26.4699 136.901 26.8522C137.548 27.2346 138.059 27.7673 138.436 28.4504C138.811 29.1334 139 29.9383 139 30.8651C139 31.7918 138.812 32.5967 138.436 33.2798C138.061 33.9629 137.543 34.4956 136.885 34.8779C136.226 35.2603 135.481 35.4508 134.648 35.4508L134.649 35.4495ZM134.649 33.9551C135.123 33.9551 135.553 33.8397 135.94 33.6077C136.327 33.3757 136.639 33.0322 136.877 32.5747C137.114 32.1172 137.233 31.5468 137.233 30.8638C137.233 30.1807 137.117 29.6104 136.886 29.1529C136.654 28.6953 136.345 28.3506 135.958 28.1198C135.572 27.8878 135.146 27.7725 134.684 27.7725C134.222 27.7725 133.794 27.8878 133.401 28.1198C133.007 28.3519 132.693 28.6966 132.456 29.1529C132.22 29.6104 132.101 30.1807 132.101 30.8638C132.101 31.5468 132.218 32.1172 132.456 32.5747C132.693 33.0322 133.005 33.377 133.393 33.6077C133.78 33.8397 134.199 33.9551 134.65 33.9551H134.649Z" fill="#222222"/>
<path d="M49.3529 46.6171C48.9324 46.6171 48.5547 46.5186 48.2196 46.3229C47.8846 46.1272 47.6219 45.8524 47.4331 45.4985C47.2429 45.1447 47.1484 44.7364 47.1484 44.2737C47.1484 43.811 47.2429 43.3858 47.4331 43.0359C47.6232 42.6859 47.8846 42.4111 48.2196 42.2115C48.5547 42.0132 48.9324 41.9134 49.3529 41.9134C49.8859 41.9134 50.3309 42.0521 50.6867 42.3282C51.0425 42.6043 51.2676 42.9737 51.362 43.4364H50.5974C50.5379 43.1577 50.393 42.9412 50.1615 42.7857C49.9299 42.6315 49.6582 42.5537 49.3438 42.5537C49.089 42.5537 48.8535 42.6172 48.6375 42.7455C48.4214 42.8739 48.2468 43.0644 48.1135 43.3197C47.9803 43.5751 47.913 43.89 47.913 44.2633C47.913 44.542 47.9518 44.7908 48.0282 45.0073C48.1045 45.2238 48.2093 45.4039 48.3386 45.5465C48.4693 45.6891 48.622 45.798 48.7966 45.8718C48.9713 45.9457 49.1537 45.9833 49.3438 45.9833C49.5573 45.9833 49.7501 45.9496 49.9221 45.8809C50.0942 45.8122 50.2391 45.7098 50.3581 45.5737C50.4758 45.4376 50.556 45.2769 50.5974 45.0928H51.362C51.2676 45.5439 51.0399 45.9107 50.6815 46.1933C50.3232 46.4758 49.8794 46.6158 49.3529 46.6158V46.6171Z" fill="#222222"/>
<path d="M52.8665 41.0683C52.7177 41.0683 52.5948 41.0191 52.4978 40.9219C52.3994 40.8233 52.3516 40.7002 52.3516 40.5525C52.3516 40.4047 52.4007 40.2842 52.4978 40.1921C52.5961 40.1001 52.719 40.0534 52.8665 40.0534C53.0139 40.0534 53.1304 40.1001 53.2313 40.1921C53.3322 40.2842 53.3826 40.4047 53.3826 40.5525C53.3826 40.7002 53.3322 40.8246 53.2313 40.9219C53.1304 41.0204 53.0088 41.0683 52.8665 41.0683ZM52.4926 46.6171V42.021H53.239V46.6171H52.4926Z" fill="#222222"/>
<path d="M56.5186 46.6171C56.1033 46.6171 55.7333 46.5186 55.4073 46.3229C55.0813 46.1272 54.8265 45.8524 54.6427 45.4985C54.459 45.1447 54.3672 44.7338 54.3672 44.2646C54.3672 43.7954 54.4577 43.3768 54.6389 43.0268C54.82 42.6768 55.0748 42.4034 55.4034 42.2076C55.732 42.0119 56.1098 41.9134 56.5367 41.9134C56.9636 41.9134 57.3492 42.0119 57.6571 42.2076C57.965 42.4034 58.2004 42.66 58.3634 42.9788C58.5264 43.2964 58.6079 43.6451 58.6079 44.0248V44.2115C58.6079 44.2776 58.6053 44.3515 58.5989 44.4344H54.9274V43.855H57.8705C57.8524 43.4454 57.7179 43.124 57.4656 42.8933C57.2133 42.6613 56.8977 42.5459 56.5186 42.5459C56.2702 42.5459 56.0361 42.6043 55.8161 42.7196C55.5975 42.835 55.4216 43.0048 55.2922 43.2277C55.1615 43.4506 55.0968 43.728 55.0968 44.0598V44.31C55.0968 44.6781 55.1641 44.9866 55.2974 45.2367C55.4306 45.4856 55.6053 45.6735 55.8213 45.7979C56.0374 45.9224 56.2702 45.9846 56.5186 45.9846C56.833 45.9846 57.0917 45.9146 57.2961 45.7759C57.5005 45.6359 57.6506 45.4454 57.745 45.2017H58.4824C58.4048 45.4752 58.278 45.7163 58.1008 45.9276C57.9236 46.1388 57.7023 46.306 57.4384 46.4305C57.1745 46.5549 56.8679 46.6171 56.5186 46.6171Z" fill="#222222"/>
<path d="M59.6016 46.6171V42.021H60.2769L60.3118 42.8052C60.4541 42.5265 60.6572 42.3074 60.9211 42.1506C61.185 41.9938 61.4852 41.9147 61.8241 41.9147C62.1631 41.9147 62.4762 41.9847 62.731 42.1234C62.9859 42.2634 63.1851 42.4733 63.3261 42.7559C63.4684 43.0385 63.5396 43.3962 63.5396 43.8291V46.6171H62.7931V43.9095C62.7931 43.4584 62.6935 43.1201 62.4956 42.8946C62.2963 42.6691 62.0169 42.5563 61.656 42.5563C61.4076 42.5563 61.185 42.6172 60.9897 42.739C60.7944 42.8609 60.6391 43.0359 60.5227 43.264C60.4075 43.4921 60.3493 43.776 60.3493 44.1143V46.6171H59.6029H59.6016Z" fill="#222222"/>
<path d="M66.724 46.6171C66.3035 46.6171 65.9258 46.5186 65.5907 46.3229C65.2556 46.1272 64.993 45.8524 64.8041 45.4985C64.614 45.1447 64.5195 44.7364 64.5195 44.2737C64.5195 43.811 64.614 43.3858 64.8041 43.0359C64.9943 42.6859 65.2556 42.4111 65.5907 42.2115C65.9258 42.0132 66.3035 41.9134 66.724 41.9134C67.257 41.9134 67.702 42.0521 68.0578 42.3282C68.4136 42.6043 68.6387 42.9737 68.7331 43.4364H67.9685C67.909 43.1577 67.7641 42.9412 67.5326 42.7857C67.301 42.6315 67.0293 42.5537 66.7149 42.5537C66.4601 42.5537 66.2246 42.6172 66.0086 42.7455C65.7925 42.8739 65.6179 43.0644 65.4846 43.3197C65.3514 43.5751 65.2841 43.89 65.2841 44.2633C65.2841 44.542 65.3229 44.7908 65.3992 45.0073C65.4756 45.2238 65.5804 45.4039 65.7097 45.5465C65.8404 45.6891 65.9931 45.798 66.1677 45.8718C66.3423 45.9457 66.5248 45.9833 66.7149 45.9833C66.9284 45.9833 67.1212 45.9496 67.2932 45.8809C67.4653 45.8122 67.6102 45.7098 67.7292 45.5737C67.8469 45.4376 67.9271 45.2769 67.9685 45.0928H68.7331C68.6387 45.5439 68.411 45.9107 68.0526 46.1933C67.6943 46.4758 67.2505 46.6158 66.724 46.6158V46.6171Z" fill="#222222"/>
<path d="M70.2376 41.0683C70.0888 41.0683 69.9659 41.0191 69.8688 40.9219C69.7705 40.8233 69.7227 40.7002 69.7227 40.5525C69.7227 40.4047 69.7718 40.2842 69.8688 40.1921C69.9672 40.1001 70.0901 40.0534 70.2376 40.0534C70.385 40.0534 70.5015 40.1001 70.6024 40.1921C70.7033 40.2842 70.7537 40.4047 70.7537 40.5525C70.7537 40.7002 70.7033 40.8246 70.6024 40.9219C70.5015 41.0204 70.3799 41.0683 70.2376 41.0683ZM69.865 46.6171V42.021H70.6114V46.6171H69.865Z" fill="#222222"/>
<path d="M73.384 46.6171C73.023 46.6171 72.7203 46.5536 72.4771 46.4253C72.2339 46.2983 72.0528 46.1285 71.9351 45.9172C71.816 45.7072 71.7578 45.4765 71.7578 45.2263C71.7578 44.9243 71.8367 44.6664 71.9933 44.4564C72.1498 44.2452 72.3723 44.0857 72.6595 43.9756C72.9467 43.8654 73.2857 43.811 73.6777 43.811H74.8601C74.8601 43.5323 74.8174 43.299 74.7307 43.1123C74.6453 42.9257 74.5199 42.7844 74.3569 42.6898C74.1938 42.5952 73.9907 42.5472 73.7475 42.5472C73.4629 42.5472 73.2171 42.6185 73.0101 42.7611C72.8018 42.9037 72.675 43.1149 72.6272 43.3936H71.8626C71.8975 43.0735 72.0062 42.8039 72.1873 42.5874C72.3684 42.3709 72.5974 42.205 72.8769 42.0884C73.155 41.973 73.4461 41.9147 73.7488 41.9147C74.1641 41.9147 74.5095 41.9899 74.7851 42.1415C75.0606 42.2932 75.2663 42.5032 75.4022 42.774C75.538 43.0436 75.6066 43.3638 75.6066 43.7319V46.5108H74.9403L74.8963 45.7176C74.8368 45.842 74.7618 45.96 74.6699 46.0688C74.5781 46.179 74.4707 46.2736 74.3504 46.354C74.2288 46.4344 74.0878 46.4979 73.9273 46.5458C73.7669 46.5938 73.5871 46.6171 73.3853 46.6171H73.384ZM73.4991 45.9859C73.7061 45.9859 73.895 45.9431 74.0632 45.8563C74.2327 45.7707 74.3763 45.6515 74.494 45.4998C74.6117 45.3482 74.7023 45.181 74.7657 44.9969C74.8278 44.8129 74.8588 44.6198 74.8588 44.4176V44.3903H73.7385C73.4487 44.3903 73.2145 44.424 73.036 44.4927C72.8587 44.5614 72.7307 44.656 72.6544 44.7779C72.5767 44.8997 72.5392 45.0371 72.5392 45.1927C72.5392 45.3482 72.5767 45.4921 72.6505 45.6113C72.7242 45.7305 72.8342 45.8226 72.9791 45.8874C73.124 45.9522 73.2973 45.9859 73.4991 45.9859Z" fill="#222222"/>
<path d="M76.763 48.4706V42.0223H77.4383L77.5004 42.7533C77.5949 42.6107 77.7165 42.4759 77.8652 42.3476C78.0127 42.2206 78.1912 42.1156 78.3982 42.0365C78.6052 41.9562 78.8459 41.916 79.1188 41.916C79.5509 41.916 79.9287 42.0197 80.2521 42.2271C80.5755 42.4345 80.8265 42.7157 81.0076 43.0683C81.1888 43.4221 81.2793 43.8239 81.2793 44.275C81.2793 44.726 81.1888 45.1291 81.0076 45.4817C80.8265 45.8355 80.573 46.1129 80.2469 46.3151C79.9209 46.5173 79.5419 46.6171 79.1085 46.6171C78.7475 46.6171 78.4267 46.5432 78.1486 46.3942C77.8704 46.2464 77.657 46.0377 77.5082 45.7707V48.4693H76.7617L76.763 48.4706ZM79.0205 45.9677C79.3103 45.9677 79.5703 45.8965 79.798 45.7539C80.0257 45.6113 80.2042 45.4143 80.331 45.1615C80.4578 44.9088 80.5225 44.6107 80.5225 44.2659C80.5225 43.9211 80.4591 43.6308 80.331 43.3755C80.2029 43.1201 80.0257 42.9205 79.798 42.7792C79.5703 42.6367 79.3103 42.5654 79.0205 42.5654C78.7307 42.5654 78.4629 42.6367 78.2378 42.7792C78.0127 42.9218 77.8381 43.1201 77.7139 43.3755C77.5897 43.6308 77.5276 43.9276 77.5276 44.2659C77.5276 44.6042 77.5897 44.9088 77.7139 45.1615C77.8381 45.4143 78.0127 45.6113 78.2378 45.7539C78.4629 45.8965 78.7243 45.9677 79.0205 45.9677Z" fill="#222222"/>
<path d="M82.3359 46.6171V42.021H83.0113L83.0643 42.8764C83.1652 42.6742 83.2946 42.5019 83.4511 42.3593C83.6076 42.2167 83.7978 42.1065 84.0203 42.0301C84.2428 41.9523 84.4951 41.9147 84.781 41.9147V42.6989H84.5055C84.3153 42.6989 84.1355 42.7248 83.9634 42.774C83.7913 42.8246 83.6387 42.9063 83.5054 43.019C83.3722 43.1318 83.2687 43.2847 83.195 43.4779C83.1212 43.671 83.0837 43.9095 83.0837 44.1946V46.6171H82.3372H82.3359Z" fill="#222222"/>
<path d="M85.5344 46.5549C85.3856 46.5549 85.2627 46.5056 85.1657 46.4084C85.0674 46.3099 85.0195 46.1907 85.0195 46.0481C85.0195 45.9055 85.0687 45.785 85.1657 45.6878C85.264 45.5893 85.3869 45.54 85.5344 45.54C85.6819 45.54 85.8035 45.5893 85.8992 45.6878C85.9937 45.7863 86.0416 45.9055 86.0416 46.0481C86.0416 46.1907 85.9937 46.3112 85.8992 46.4084C85.8048 46.5069 85.6832 46.5549 85.5344 46.5549Z" fill="#222222"/>
<path d="M89.0275 46.6171C88.6122 46.6171 88.2396 46.5199 87.9071 46.3281C87.5747 46.1349 87.3146 45.8615 87.1245 45.5089C86.9343 45.1551 86.8398 44.7442 86.8398 44.275C86.8398 43.8058 86.9369 43.3768 87.1283 43.0242C87.3211 42.6704 87.585 42.3982 87.9201 42.205C88.2551 42.0119 88.6303 41.916 89.0443 41.916C89.4583 41.916 89.849 42.0132 90.1776 42.205C90.5062 42.3982 90.7675 42.6717 90.9603 43.0242C91.153 43.378 91.2488 43.7915 91.2488 44.2672C91.2488 44.7429 91.1504 45.1564 90.9551 45.5102C90.7597 45.8641 90.4958 46.1362 90.1634 46.3294C89.8309 46.5225 89.4518 46.6184 89.0249 46.6184L89.0275 46.6171ZM89.0365 45.9768C89.2914 45.9768 89.5281 45.9133 89.7481 45.785C89.9667 45.658 90.1452 45.4661 90.2811 45.2108C90.4169 44.9555 90.4855 44.6405 90.4855 44.2672C90.4855 43.8939 90.4182 43.5712 90.285 43.3184C90.1517 43.0657 89.9771 42.8764 89.761 42.7481C89.545 42.6211 89.3056 42.5563 89.0456 42.5563C88.7856 42.5563 88.5618 42.6198 88.3392 42.7481C88.1167 42.8764 87.9395 43.0657 87.8062 43.3184C87.673 43.5712 87.6057 43.8874 87.6057 44.2672C87.6057 44.647 87.673 44.9568 87.8062 45.2108C87.9395 45.4661 88.1141 45.658 88.3302 45.785C88.5462 45.912 88.7817 45.9768 89.0365 45.9768Z" fill="#222222"/>
<path d="M92.3008 46.6171V42.021H92.9761L93.0291 42.8764C93.13 42.6742 93.2594 42.5019 93.4159 42.3593C93.5725 42.2167 93.7627 42.1065 93.9852 42.0301C94.2077 41.9523 94.46 41.9147 94.7459 41.9147V42.6989H94.4703C94.2801 42.6989 94.1003 42.7248 93.9282 42.774C93.7562 42.8246 93.6035 42.9063 93.4703 43.019C93.337 43.1318 93.2335 43.2847 93.1598 43.4779C93.086 43.671 93.0485 43.9095 93.0485 44.1946V46.6171H92.3021H92.3008Z" fill="#222222"/>
<path d="M97.2523 48.5769C96.8487 48.5769 96.4916 48.525 96.1811 48.4213C95.8707 48.3177 95.6287 48.1582 95.4567 47.9444C95.2846 47.7305 95.1992 47.4661 95.1992 47.1511C95.1992 47.015 95.2277 46.8686 95.2833 46.7143C95.3402 46.5601 95.4373 46.4084 95.577 46.2594C95.7167 46.1103 95.9133 45.9768 96.1682 45.8589L96.6844 46.1622C96.37 46.2931 96.1656 46.4421 96.0712 46.6119C95.9767 46.7804 95.9289 46.9373 95.9289 47.0798C95.9289 47.2756 95.9845 47.4389 96.097 47.5698C96.2096 47.7007 96.3661 47.7979 96.568 47.864C96.7698 47.9288 96.9975 47.9625 97.2523 47.9625C97.5072 47.9625 97.7258 47.9249 97.9095 47.851C98.0932 47.7772 98.2355 47.6761 98.3364 47.5477C98.4373 47.4207 98.4878 47.2678 98.4878 47.0889C98.4878 46.8815 98.4102 46.7065 98.2562 46.5679C98.1023 46.4279 97.8086 46.3462 97.3765 46.3229C97.0272 46.2996 96.7335 46.2659 96.4968 46.2244C96.2601 46.1829 96.0647 46.1336 95.9095 46.0766C95.7555 46.0209 95.6261 45.9561 95.5226 45.8848C95.4191 45.8135 95.326 45.7396 95.2419 45.6619V45.4571L96.1048 44.6016L96.7542 44.8336L95.8655 45.6346L95.9806 45.3236C96.0453 45.3715 96.1074 45.4156 96.1669 45.4571C96.2264 45.4985 96.3066 45.5348 96.4075 45.5633C96.5084 45.5932 96.6495 45.6204 96.8306 45.6437C97.0117 45.667 97.2497 45.6917 97.546 45.715C97.9548 45.7448 98.2821 45.8161 98.5279 45.9289C98.7737 46.0416 98.9509 46.1933 99.0609 46.3838C99.1709 46.5743 99.2252 46.7999 99.2252 47.0604C99.2252 47.3209 99.1553 47.5581 99.0169 47.7862C98.8772 48.0144 98.6625 48.2036 98.3727 48.3514C98.0829 48.4991 97.709 48.5743 97.2523 48.5743V48.5769ZM97.2433 45.1032C96.8694 45.1032 96.5511 45.0319 96.2872 44.8894C96.0233 44.7468 95.8228 44.5549 95.6869 44.3152C95.5511 44.0741 95.4825 43.8058 95.4825 43.509C95.4825 43.2121 95.5524 42.9451 95.6921 42.7079C95.8318 42.4707 96.0311 42.2789 96.2924 42.1338C96.5524 41.9886 96.8707 41.916 97.2433 41.916C97.6158 41.916 97.9341 41.9886 98.1941 42.1338C98.4555 42.2789 98.6534 42.4707 98.7905 42.7079C98.9264 42.9451 98.9949 43.2121 98.9949 43.509C98.9949 43.8058 98.9264 44.0741 98.7905 44.3152C98.6547 44.5562 98.4555 44.7468 98.1941 44.8894C97.9341 45.0319 97.6158 45.1032 97.2433 45.1032ZM97.2433 44.4888C97.5628 44.4888 97.8151 44.4059 97.9988 44.24C98.1825 44.0741 98.2743 43.8304 98.2743 43.5103C98.2743 43.1901 98.1825 42.9555 97.9988 42.7883C97.8151 42.6224 97.5628 42.5394 97.2433 42.5394C96.9237 42.5394 96.6753 42.6224 96.4826 42.7883C96.2898 42.9542 96.1941 43.1953 96.1941 43.5103C96.1941 43.8252 96.2885 44.0741 96.4787 44.24C96.6689 44.4059 96.9237 44.4888 97.2433 44.4888ZM97.9716 42.6548L97.7491 42.0223H99.2291V42.5835L97.9703 42.6548H97.9716Z" fill="#222222"/>
</g>
<defs>
<clipPath id="clip0_9174_1450">
<rect width="139" height="52" fill="white"/>
</clipPath>
</defs>
</svg>
