<?xml version="1.0" encoding="UTF-8"?><svg id="b" xmlns="http://www.w3.org/2000/svg" viewBox="0 0 458.26 165.24"><defs><style>.d{fill:#02a88c;}.e{fill:#fff;}.f{fill:#92c740;}</style></defs><g id="c"><path class="e" d="M180.31,62.01c-3.82,0-7.12-.84-9.88-2.53-2.77-1.69-4.9-4.04-6.4-7.07-1.5-3.02-2.25-6.54-2.25-10.55s.75-7.48,2.25-10.52c1.5-3.04,3.64-5.41,6.4-7.1,2.76-1.69,6.06-2.53,9.88-2.53,4.56,0,8.27,1.1,11.11,3.29,2.84,2.19,4.65,5.27,5.43,9.24h-6.12c-.56-2.3-1.7-4.14-3.42-5.51-1.73-1.37-4.05-2.06-6.99-2.06-2.64,0-4.92.61-6.85,1.84s-3.42,2.97-4.45,5.23c-1.04,2.26-1.56,4.97-1.56,8.13s.52,5.87,1.56,8.16c1.04,2.28,2.52,4.03,4.45,5.23s4.21,1.81,6.85,1.81c2.93,0,5.26-.66,6.99-1.98s2.87-3.11,3.42-5.37h6.12c-.78,3.86-2.59,6.88-5.43,9.05-2.84,2.17-6.54,3.26-11.11,3.26Z"/><path class="e" d="M206.47,27.99c-1.08,0-1.96-.33-2.64-1-.69-.67-1.03-1.52-1.03-2.56s.34-1.83,1.03-2.48c.69-.65,1.57-.97,2.64-.97s1.91.33,2.62.97c.7.65,1.06,1.48,1.06,2.48s-.35,1.89-1.06,2.56c-.71.67-1.58,1-2.62,1ZM203.63,61.34v-28.06h5.57v28.06h-5.57Z"/><path class="e" d="M229.85,62.01c-2.67,0-5.05-.61-7.12-1.84-2.08-1.22-3.7-2.93-4.87-5.12-1.17-2.19-1.75-4.73-1.75-7.63s.58-5.56,1.75-7.77,2.79-3.93,4.87-5.18c2.08-1.24,4.49-1.87,7.24-1.87s5.1.61,7.07,1.84c1.97,1.22,3.49,2.85,4.57,4.87,1.08,2.02,1.61,4.26,1.61,6.71,0,.37,0,.77-.03,1.2-.02.43-.05.9-.08,1.42h-22.94v-3.95h17.48c-.11-2.34-.89-4.17-2.34-5.48-1.45-1.32-3.25-1.98-5.4-1.98-1.52,0-2.91.34-4.17,1.03-1.26.69-2.27,1.69-3.03,3.01s-1.14,2.98-1.14,4.98v1.56c0,2.08.38,3.83,1.14,5.26s1.77,2.5,3.03,3.23,2.63,1.09,4.12,1.09c1.78,0,3.25-.39,4.4-1.17,1.15-.78,2-1.84,2.56-3.17h5.57c-.48,1.71-1.3,3.24-2.45,4.59-1.15,1.36-2.57,2.42-4.26,3.2-1.69.78-3.63,1.17-5.82,1.17Z"/><path class="e" d="M249.39,61.34v-28.06h5.01l.33,4.79c.89-1.67,2.15-3,3.79-3.98,1.63-.98,3.51-1.48,5.62-1.48,2.23,0,4.14.45,5.73,1.34,1.6.89,2.84,2.24,3.73,4.04.89,1.8,1.34,4.06,1.34,6.76v16.59h-5.57v-16.03c0-2.6-.58-4.57-1.73-5.9s-2.82-2-5.01-2c-1.45,0-2.75.34-3.9,1.03-1.15.69-2.07,1.7-2.76,3.03s-1.03,2.97-1.03,4.9v14.97h-5.57Z"/><path class="e" d="M295.04,62.01c-2.71,0-5.12-.62-7.24-1.87-2.12-1.24-3.78-2.96-4.98-5.15-1.21-2.19-1.81-4.73-1.81-7.63s.6-5.5,1.81-7.71c1.21-2.21,2.87-3.93,4.98-5.18,2.12-1.24,4.53-1.87,7.24-1.87,3.41,0,6.27.89,8.57,2.67,2.3,1.78,3.77,4.19,4.4,7.24h-5.79c-.37-1.63-1.22-2.89-2.53-3.79s-2.89-1.34-4.7-1.34c-1.49,0-2.86.38-4.12,1.14-1.26.76-2.27,1.88-3.03,3.34s-1.14,3.28-1.14,5.43c0,1.6.22,3.02.67,4.26s1.05,2.29,1.81,3.14c.76.85,1.64,1.5,2.64,1.92,1,.43,2.06.64,3.17.64,1.22,0,2.33-.2,3.31-.58s1.82-.97,2.51-1.75c.69-.78,1.16-1.71,1.42-2.78h5.79c-.63,2.97-2.1,5.35-4.4,7.15-2.3,1.8-5.16,2.7-8.57,2.7Z"/><path class="e" d="M317.75,27.99c-1.08,0-1.96-.33-2.64-1-.69-.67-1.03-1.52-1.03-2.56s.34-1.83,1.03-2.48c.69-.65,1.57-.97,2.64-.97s1.91.33,2.62.97c.7.65,1.06,1.48,1.06,2.48s-.35,1.89-1.06,2.56c-.71.67-1.58,1-2.62,1ZM314.91,61.34v-28.06h5.57v28.06h-5.57Z"/><path class="e" d="M337.74,62.01c-2.3,0-4.21-.39-5.73-1.17-1.52-.78-2.65-1.83-3.4-3.15-.74-1.32-1.11-2.74-1.11-4.26,0-1.86.48-3.44,1.45-4.76.96-1.32,2.34-2.33,4.12-3.03s3.92-1.06,6.4-1.06h7.29c0-1.63-.24-2.99-.72-4.06-.48-1.08-1.2-1.88-2.14-2.42-.95-.54-2.14-.81-3.59-.81-1.67,0-3.1.4-4.29,1.2-1.19.8-1.93,1.98-2.23,3.54h-5.57c.22-1.97.9-3.65,2.03-5.04,1.13-1.39,2.59-2.47,4.37-3.23,1.78-.76,3.67-1.14,5.68-1.14,2.63,0,4.84.46,6.62,1.39s3.13,2.24,4.04,3.92c.91,1.69,1.36,3.7,1.36,6.04v17.37h-4.84l-.45-4.73c-.41.74-.89,1.45-1.45,2.12s-1.22,1.24-1.98,1.73-1.63.86-2.62,1.14c-.98.28-2.07.42-3.26.42ZM338.79,57.5c1.19,0,2.26-.24,3.23-.72.96-.48,1.79-1.14,2.48-1.98s1.21-1.78,1.56-2.84.55-2.14.58-3.26v-.17h-6.62c-1.6,0-2.89.19-3.87.58-.98.39-1.7.92-2.14,1.59s-.67,1.45-.67,2.34.21,1.72.64,2.37,1.05,1.16,1.87,1.53c.82.37,1.8.56,2.95.56Z"/><path class="e" d="M163.22,116.11v-38.97h13.31c3.12,0,5.68.52,7.68,1.56s3.49,2.43,4.45,4.17c.96,1.75,1.45,3.73,1.45,5.96s-.47,4.05-1.42,5.82-2.42,3.17-4.43,4.23-4.58,1.59-7.74,1.59h-7.74v15.64h-5.57ZM168.78,95.85h7.52c2.93,0,5.02-.64,6.26-1.92,1.24-1.28,1.86-2.98,1.86-5.09,0-2.26-.62-4.01-1.86-5.23-1.24-1.22-3.33-1.84-6.26-1.84h-7.52v14.08Z"/><path class="e" d="M206.14,116.78c-2.19,0-4.09-.45-5.71-1.34s-2.86-2.23-3.73-4.01c-.87-1.78-1.31-4.03-1.31-6.74v-16.65h5.57v16.03c0,2.64.58,4.62,1.73,5.96,1.15,1.34,2.8,2,4.95,2,1.45,0,2.76-.35,3.92-1.06s2.09-1.73,2.76-3.06,1-2.97,1-4.9v-14.98h5.57v28.06h-4.96l-.39-4.79c-.85,1.71-2.1,3.04-3.73,4.01-1.63.96-3.53,1.45-5.68,1.45Z"/><path class="e" d="M241.21,116.78c-2.67,0-5.05-.61-7.12-1.84-2.08-1.22-3.7-2.93-4.87-5.12-1.17-2.19-1.75-4.73-1.75-7.63s.58-5.56,1.75-7.77,2.79-3.93,4.87-5.18c2.08-1.24,4.49-1.87,7.24-1.87s5.1.61,7.07,1.84c1.97,1.22,3.49,2.85,4.57,4.87,1.08,2.02,1.61,4.26,1.61,6.71,0,.37,0,.77-.03,1.2-.02.43-.05.9-.08,1.42h-22.94v-3.95h17.48c-.11-2.34-.89-4.17-2.34-5.48-1.45-1.32-3.25-1.98-5.4-1.98-1.52,0-2.91.34-4.17,1.03-1.26.69-2.27,1.69-3.03,3.01s-1.14,2.98-1.14,4.98v1.56c0,2.08.38,3.83,1.14,5.26s1.77,2.5,3.03,3.23,2.63,1.09,4.12,1.09c1.78,0,3.25-.39,4.4-1.17,1.15-.78,2-1.84,2.56-3.17h5.57c-.48,1.71-1.3,3.24-2.45,4.59-1.15,1.36-2.57,2.42-4.26,3.2-1.69.78-3.63,1.17-5.82,1.17Z"/><path class="e" d="M260.75,116.11v-28.06h5.01l.5,5.29c.63-1.26,1.45-2.33,2.45-3.2,1-.87,2.18-1.55,3.54-2.03,1.35-.48,2.9-.72,4.65-.72v5.9h-2c-1.15,0-2.25.14-3.29.42s-1.96.75-2.75,1.42c-.8.67-1.42,1.58-1.87,2.73-.45,1.15-.67,2.58-.67,4.29v13.97h-5.57Z"/><path class="e" d="M293.54,116.11c-1.74,0-3.27-.28-4.56-.83-1.3-.56-2.3-1.48-3.01-2.78-.71-1.3-1.06-3.06-1.06-5.29v-14.42h-4.84v-4.73h4.84l.67-7.01h4.9v7.01h7.96v4.73h-7.96v14.47c0,1.6.33,2.68,1,3.26.67.58,1.82.86,3.45.86h3.23v4.73h-4.62Z"/><path class="e" d="M316.58,116.78c-2.64,0-5-.61-7.1-1.84s-3.75-2.94-4.95-5.15c-1.21-2.21-1.81-4.76-1.81-7.65s.61-5.56,1.84-7.77c1.23-2.21,2.9-3.92,5.01-5.15,2.12-1.23,4.49-1.84,7.13-1.84s5.05.61,7.12,1.84c2.08,1.22,3.72,2.93,4.93,5.12,1.21,2.19,1.81,4.77,1.81,7.74s-.6,5.55-1.81,7.74c-1.21,2.19-2.87,3.9-4.98,5.12s-4.51,1.84-7.18,1.84ZM316.58,111.99c1.52,0,2.9-.37,4.15-1.11s2.25-1.85,3.01-3.31c.76-1.47,1.14-3.29,1.14-5.48s-.37-4.02-1.11-5.48c-.74-1.47-1.74-2.57-2.98-3.31-1.24-.74-2.61-1.11-4.09-1.11s-2.86.37-4.12,1.11c-1.26.74-2.27,1.85-3.03,3.31s-1.14,3.29-1.14,5.48.38,4.02,1.14,5.48,1.76,2.57,3.01,3.31c1.24.74,2.59,1.11,4.04,1.11Z"/><path class="e" d="M351.65,116.11v-38.97h13.19c3.08,0,5.6.52,7.57,1.56,1.97,1.04,3.42,2.42,4.37,4.15.95,1.73,1.42,3.68,1.42,5.87s-.47,4-1.42,5.76-2.42,3.17-4.43,4.23-4.56,1.59-7.68,1.59h-7.46v15.81h-5.57ZM357.22,96.07h7.24c2.75,0,4.77-.68,6.07-2.03,1.3-1.35,1.95-3.09,1.95-5.21s-.63-3.86-1.89-5.12c-1.26-1.26-3.3-1.89-6.12-1.89h-7.24v14.25ZM372.14,116.11l-8.41-17.31h6.12l8.74,17.31h-6.46Z"/><path class="e" d="M388.34,82.77c-1.08,0-1.96-.33-2.64-1-.69-.67-1.03-1.52-1.03-2.56s.34-1.83,1.03-2.48c.69-.65,1.57-.97,2.64-.97s1.91.33,2.62.97c.7.65,1.06,1.48,1.06,2.48s-.35,1.89-1.06,2.56c-.71.67-1.58,1-2.62,1ZM385.5,116.11v-28.06h5.57v28.06h-5.57Z"/><path class="e" d="M412,116.78c-2.71,0-5.12-.62-7.24-1.87-2.12-1.24-3.78-2.96-4.98-5.15-1.21-2.19-1.81-4.73-1.81-7.63s.6-5.5,1.81-7.71c1.21-2.21,2.87-3.93,4.98-5.18,2.12-1.24,4.53-1.87,7.24-1.87,3.41,0,6.27.89,8.57,2.67,2.3,1.78,3.77,4.19,4.4,7.24h-5.79c-.37-1.63-1.22-2.89-2.53-3.79s-2.89-1.34-4.7-1.34c-1.49,0-2.86.38-4.12,1.14-1.26.76-2.27,1.88-3.03,3.34s-1.14,3.28-1.14,5.43c0,1.6.22,3.02.67,4.26s1.05,2.29,1.81,3.14c.76.85,1.64,1.5,2.64,1.92,1,.43,2.06.64,3.17.64,1.22,0,2.33-.2,3.31-.58s1.82-.97,2.51-1.75c.69-.78,1.16-1.71,1.42-2.78h5.79c-.63,2.97-2.1,5.35-4.4,7.15-2.3,1.8-5.16,2.7-8.57,2.7Z"/><path class="e" d="M444.29,116.78c-2.64,0-5-.61-7.1-1.84s-3.75-2.94-4.95-5.15c-1.21-2.21-1.81-4.76-1.81-7.65s.61-5.56,1.84-7.77c1.23-2.21,2.9-3.92,5.01-5.15,2.12-1.23,4.49-1.84,7.13-1.84s5.05.61,7.12,1.84c2.08,1.22,3.72,2.93,4.93,5.12,1.21,2.19,1.81,4.77,1.81,7.74s-.6,5.55-1.81,7.74c-1.21,2.19-2.87,3.9-4.98,5.12s-4.51,1.84-7.18,1.84ZM444.29,111.99c1.52,0,2.9-.37,4.15-1.11s2.25-1.85,3.01-3.31c.76-1.47,1.14-3.29,1.14-5.48s-.37-4.02-1.11-5.48c-.74-1.47-1.74-2.57-2.98-3.31-1.24-.74-2.61-1.11-4.09-1.11s-2.86.37-4.12,1.11c-1.26.74-2.27,1.85-3.03,3.31s-1.14,3.29-1.14,5.48.38,4.02,1.14,5.48,1.76,2.57,3.01,3.31c1.24.74,2.59,1.11,4.04,1.11Z"/><path class="d" d="M168.87,148.21c-1.09,0-2.08-.25-2.95-.76s-1.55-1.22-2.05-2.14c-.49-.92-.74-1.98-.74-3.18s.25-2.3.74-3.21c.49-.91,1.17-1.62,2.05-2.14s1.85-.77,2.95-.77c1.39,0,2.54.36,3.47,1.08s1.51,1.68,1.76,2.88h-1.99c-.15-.72-.53-1.29-1.13-1.69-.6-.4-1.31-.6-2.13-.6-.66,0-1.28.17-1.84.5-.56.33-1.02.83-1.36,1.49-.35.66-.52,1.48-.52,2.45,0,.73.1,1.37.3,1.93.2.56.47,1.03.81,1.4s.74.65,1.19.84c.46.19.93.29,1.42.29.56,0,1.06-.09,1.5-.27.45-.18.83-.44,1.13-.8.31-.35.52-.77.62-1.25h1.99c-.25,1.17-.84,2.12-1.77,2.86-.93.73-2.08,1.1-3.46,1.1Z"/><path class="d" d="M178,133.81c-.38,0-.71-.13-.96-.38s-.38-.57-.38-.96.13-.7.38-.94c.25-.24.57-.36.96-.36s.69.12.95.36c.26.24.39.55.39.94s-.13.71-.39.96c-.26.25-.58.38-.95.38ZM177.03,147.94v-11.65h1.94v11.65h-1.94Z"/><path class="d" d="M187.51,148.21c-1.08,0-2.04-.25-2.89-.76s-1.51-1.22-1.99-2.14-.72-1.98-.72-3.2.24-2.3.71-3.21c.47-.91,1.13-1.62,1.99-2.13.86-.51,1.84-.76,2.95-.76s2.11.25,2.91.76c.8.51,1.41,1.18,1.84,2,.42.83.64,1.73.64,2.72v.49c0,.17,0,.36-.02.58h-9.55v-1.5h7.65c-.05-1.06-.4-1.9-1.05-2.5-.66-.6-1.48-.9-2.46-.9-.65,0-1.26.15-1.83.45-.57.3-1.03.74-1.36,1.32-.34.58-.51,1.3-.51,2.16v.65c0,.96.17,1.76.52,2.4.35.65.8,1.13,1.36,1.46.56.32,1.17.49,1.82.49.82,0,1.49-.18,2.02-.54.53-.36.92-.86,1.17-1.49h1.92c-.2.71-.53,1.34-.99,1.88-.46.55-1.04.98-1.72,1.31-.69.32-1.48.49-2.39.49Z"/><path class="d" d="M195.53,147.94v-11.65h1.76l.09,2.03c.37-.72.9-1.29,1.58-1.7.69-.41,1.47-.61,2.35-.61s1.7.18,2.36.54c.66.36,1.18.91,1.55,1.64.37.73.55,1.66.55,2.79v6.96h-1.94v-6.75c0-1.17-.26-2.05-.77-2.64s-1.25-.88-2.18-.88c-.65,0-1.23.16-1.73.47-.51.32-.91.77-1.21,1.36s-.45,1.33-.45,2.21v6.22h-1.94Z"/><path class="d" d="M214.05,148.21c-1.09,0-2.08-.25-2.95-.76s-1.55-1.22-2.05-2.14c-.49-.92-.74-1.98-.74-3.18s.25-2.3.74-3.21c.49-.91,1.17-1.62,2.05-2.14s1.85-.77,2.95-.77c1.39,0,2.54.36,3.47,1.08s1.51,1.68,1.76,2.88h-1.99c-.15-.72-.53-1.29-1.13-1.69-.6-.4-1.31-.6-2.13-.6-.66,0-1.28.17-1.84.5-.56.33-1.02.83-1.36,1.49-.35.66-.52,1.48-.52,2.45,0,.73.1,1.37.3,1.93.2.56.47,1.03.81,1.4s.74.65,1.19.84c.46.19.93.29,1.42.29.56,0,1.06-.09,1.5-.27.45-.18.83-.44,1.13-.8.31-.35.52-.77.62-1.25h1.99c-.25,1.17-.84,2.12-1.77,2.86-.93.73-2.08,1.1-3.46,1.1Z"/><path class="d" d="M223.18,133.81c-.38,0-.71-.13-.96-.38s-.38-.57-.38-.96.13-.7.38-.94c.25-.24.57-.36.96-.36s.69.12.95.36c.26.24.39.55.39.94s-.13.71-.39.96c-.26.25-.58.38-.95.38ZM222.21,147.94v-11.65h1.94v11.65h-1.94Z"/><path class="d" d="M231.37,148.21c-.94,0-1.73-.17-2.36-.5s-1.1-.77-1.41-1.32c-.31-.55-.46-1.14-.46-1.79,0-.79.2-1.45.61-2,.41-.55.99-.96,1.73-1.25.75-.29,1.63-.43,2.65-.43h3.08c0-.72-.11-1.33-.34-1.82s-.55-.85-.97-1.1c-.42-.25-.95-.37-1.58-.37-.74,0-1.38.18-1.92.55-.54.37-.87.92-.99,1.64h-1.99c.09-.83.37-1.53.84-2.09.47-.56,1.07-.99,1.79-1.29.72-.3,1.48-.45,2.27-.45,1.08,0,1.98.2,2.69.59.72.39,1.25.94,1.61,1.64.35.7.53,1.53.53,2.49v7.21h-1.73l-.12-2.06c-.15.32-.35.63-.59.91-.24.29-.52.53-.83.74-.32.21-.68.37-1.1.5s-.89.18-1.41.18ZM231.67,146.57c.54,0,1.03-.11,1.47-.33s.81-.53,1.12-.92c.31-.39.54-.83.71-1.31s.24-.98.24-1.5v-.07h-2.91c-.76,0-1.36.09-1.83.27-.46.18-.79.42-.99.74s-.3.67-.3,1.08.1.78.29,1.09.48.55.86.72c.38.17.83.25,1.35.25Z"/><path class="d" d="M240.15,153.02v-16.74h1.76l.16,1.9c.25-.37.56-.72.95-1.05.39-.33.85-.6,1.39-.81.54-.21,1.16-.31,1.87-.31,1.12,0,2.11.27,2.95.81.84.54,1.49,1.27,1.96,2.19.47.92.71,1.96.71,3.13s-.24,2.22-.71,3.13c-.47.92-1.13,1.64-1.98,2.16-.85.52-1.83.79-2.96.79-.94,0-1.77-.19-2.5-.58-.72-.38-1.28-.92-1.67-1.62v7.01h-1.94ZM246.03,146.53c.76,0,1.43-.19,2.02-.56.59-.37,1.06-.88,1.39-1.54.33-.66.5-1.43.5-2.32s-.17-1.65-.5-2.31c-.33-.66-.79-1.18-1.39-1.55-.59-.37-1.27-.55-2.02-.55s-1.45.19-2.03.55c-.59.37-1.04.89-1.36,1.55-.32.66-.49,1.43-.49,2.31s.16,1.67.49,2.32c.32.66.78,1.17,1.36,1.54.58.37,1.26.56,2.03.56Z"/><path class="d" d="M254.65,147.94v-11.65h1.76l.14,2.22c.26-.52.6-.97,1.01-1.34.41-.37.9-.66,1.48-.86.58-.2,1.24-.3,1.98-.3v2.03h-.72c-.49,0-.96.07-1.41.2-.45.13-.84.34-1.19.64s-.62.69-.81,1.19-.29,1.12-.29,1.86v6.01h-1.94Z"/><path class="d" d="M262.98,148.05c-.39,0-.71-.13-.96-.38-.25-.25-.38-.57-.38-.94s.13-.68.38-.94.57-.38.96-.38.7.13.95.38c.25.25.37.57.37.94s-.12.68-.37.94c-.25.25-.56.38-.95.38Z"/><path class="d" d="M272.06,148.21c-1.08,0-2.05-.25-2.91-.75-.86-.5-1.54-1.21-2.03-2.13-.49-.92-.74-1.98-.74-3.2s.25-2.33.75-3.25c.5-.92,1.19-1.63,2.06-2.13s1.85-.75,2.92-.75,2.09.25,2.95.75,1.53,1.21,2.03,2.13c.5.92.75,1.99.75,3.23s-.25,2.31-.76,3.23c-.51.92-1.2,1.63-2.06,2.13-.86.5-1.85.75-2.96.75ZM272.08,146.55c.66,0,1.28-.17,1.85-.5.57-.33,1.03-.83,1.39-1.49.35-.66.53-1.48.53-2.45s-.17-1.81-.52-2.46-.8-1.15-1.36-1.48c-.56-.33-1.18-.5-1.86-.5s-1.26.17-1.84.5c-.58.33-1.04.83-1.39,1.48s-.52,1.48-.52,2.46.17,1.79.52,2.45c.35.66.8,1.16,1.36,1.49.56.33,1.18.5,1.84.5Z"/><path class="d" d="M280.57,147.94v-11.65h1.76l.14,2.22c.26-.52.6-.97,1.01-1.34.41-.37.9-.66,1.48-.86.58-.2,1.24-.3,1.98-.3v2.03h-.72c-.49,0-.96.07-1.41.2-.45.13-.84.34-1.19.64s-.62.69-.81,1.19-.29,1.12-.29,1.86v6.01h-1.94Z"/><path class="d" d="M293.45,153.3c-1.05,0-1.98-.13-2.79-.4-.81-.27-1.44-.68-1.88-1.24s-.67-1.24-.67-2.06c0-.36.07-.73.22-1.13.15-.4.4-.79.76-1.18.36-.38.88-.73,1.54-1.04l1.34.79c-.82.34-1.35.73-1.6,1.17-.25.44-.37.84-.37,1.21,0,.51.15.93.44,1.27.29.34.7.59,1.23.76.52.17,1.12.25,1.78.25s1.23-.1,1.71-.29c.48-.19.85-.45,1.11-.79.26-.33.39-.73.39-1.19,0-.54-.2-.99-.6-1.35-.4-.36-1.16-.57-2.29-.64-.91-.06-1.67-.15-2.29-.25-.62-.11-1.13-.23-1.53-.38-.4-.15-.74-.31-1.01-.5-.27-.19-.51-.38-.73-.58v-.53l2.24-2.22,1.69.6-2.31,2.08.3-.81c.17.12.33.24.49.35.15.11.36.2.62.28.26.08.63.15,1.1.21.47.06,1.09.12,1.86.19,1.06.08,1.92.26,2.56.55s1.1.69,1.39,1.18.43,1.08.43,1.76-.18,1.29-.54,1.88c-.36.59-.92,1.08-1.68,1.47-.75.39-1.73.58-2.91.58ZM293.43,144.28c-.97,0-1.8-.18-2.49-.55s-1.21-.87-1.56-1.49c-.35-.62-.53-1.32-.53-2.09s.18-1.46.54-2.08c.36-.62.88-1.11,1.56-1.49.68-.38,1.5-.57,2.47-.57s1.8.19,2.47.57c.68.38,1.19.88,1.55,1.49s.53,1.31.53,2.08-.18,1.47-.53,2.09c-.35.62-.87,1.12-1.55,1.49-.68.37-1.5.55-2.47.55ZM293.43,142.69c.83,0,1.49-.22,1.97-.65.48-.43.72-1.06.72-1.9s-.24-1.44-.72-1.87-1.13-.65-1.97-.65-1.48.22-1.98.65-.75,1.06-.75,1.87.25,1.46.74,1.9c.49.43,1.16.65,1.99.65ZM295.32,137.92l-.58-1.64h4.76v1.46l-4.18.19Z"/><path class="d" d="M134.34,159.36c-.34-34.51-27.18-62.8-61.11-65.42v-5.06c34.14-2.63,61.12-31.26,61.12-66.07,0-3.93-.35-7.86-1.04-11.71,0-.02,0-.04,0-.06l-.04-.32c.06-.81.18-1.56.44-2.12.6-1.32,3.86-4.82,1.79-5.98-.57-.32-1.82-.02-2.44.21-.91.35-1.62,1.12-2.56,1.39-.45-1.45-.88-2.95-2.03-3.98-.19-.17-.45-.25-.7-.25s-.5.08-.69.24c-.79.68-1.1,1.45-1.33,2.52-.18.82-.17,2.41-.7,2.98-.85.92-3.81.11-4.51.95-.2.24-.21.62-.15.92.15.64,3.3,2.97,3.99,3.59.2.18.39.38.55.6.7,3.62,1.05,7.31,1.05,11.02,0,.73-.03,1.45-.06,2.17h-29.13c-2.08,0-3.94,1.51-4.14,3.58-.23,2.37,1.63,4.38,3.96,4.38h23.79c2.06,0,3.73,1.68,3.73,3.73s-1.67,3.73-3.73,3.73h-18.49c-2.33,0-4.19,2.01-3.96,4.38.2,2.07,2.06,3.58,4.14,3.58h11.27c1.95,0,3.69,1.42,3.88,3.35.22,2.22-1.53,4.1-3.71,4.1h-20.32c-2.08,0-3.94,1.51-4.14,3.58-.23,2.37,1.63,4.38,3.96,4.38h15.91c-9.33,9.31-21.82,15.44-35.7,16.67v-24.61c0-4.29-3.48-7.77-7.77-7.77-1.39,0-2.52,1.13-2.52,2.52v29.85c-13.88-1.23-26.37-7.36-35.7-16.67h10.81c2.08,0,3.94-1.52,4.14-3.58.23-2.37-1.64-4.38-3.96-4.38h-15.46c-1.95,0-3.69-1.42-3.88-3.36-.22-2.22,1.53-4.1,3.71-4.1h21.18c2.08,0,3.94-1.52,4.14-3.58.23-2.37-1.64-4.38-3.96-4.38H15.75c-2.06,0-3.73-1.68-3.73-3.73s1.67-3.73,3.73-3.73h18.72c2.33,0,4.19-2.01,3.96-4.38-.2-2.07-2.06-3.58-4.14-3.58H10.25c-.03-.72-.06-1.44-.06-2.17,0-3.71.35-7.4,1.05-11.01.16-.23.35-.43.56-.61.68-.62,3.84-2.95,3.99-3.59.07-.3.05-.68-.15-.92-.7-.84-3.66-.03-4.51-.95-.52-.56-.52-2.16-.7-2.98-.24-1.08-.54-1.84-1.33-2.52C8.91.08,8.66,0,8.41,0s-.51.08-.7.25c-1.15,1.03-1.58,2.53-2.03,3.98-.95-.27-1.65-1.04-2.56-1.39-.61-.24-1.87-.54-2.44-.21-2.07,1.17,1.19,4.66,1.79,5.98.25.56.37,1.31.44,2.12l-.04.26c-.7,3.88-1.06,7.84-1.06,11.82,0,34.81,26.98,63.43,61.12,66.07v5.06C29.17,96.55,2.42,124.58,1.84,158.87c-.02.29-.05.57-.07.86.01,1.48.16,2.94.58,4.18.69,2.02,1.63-.45,2.23-.93,1.23-.99,2.12.08,2.85,1.01.29.37.63,1.24,1.14,1.26,1.24.04,1.82-1.88,1.77-2.88l-.14-2.2v-.15c0-.73.03-1.45.06-2.17h29.12c2.08,0,3.94-1.51,4.14-3.58.23-2.37-1.63-4.38-3.96-4.38H15.77c-2.06,0-3.73-1.68-3.73-3.73s1.67-3.73,3.73-3.73h18.49c2.33,0,4.19-2.01,3.96-4.38-.2-2.07-2.06-3.58-4.14-3.58h-11.27c-1.95,0-3.69-1.42-3.88-3.35-.22-2.22,1.53-4.1,3.71-4.1h20.32c2.08,0,3.94-1.51,4.14-3.58.23-2.37-1.63-4.38-3.96-4.38h-15.9c9.33-9.3,21.82-15.44,35.69-16.67v22.14c0,1.39,1.13,2.52,2.52,2.52,4.29,0,7.77-3.48,7.77-7.77v-16.9c13.88,1.23,26.36,7.36,35.69,16.67h-10.8c-2.08,0-3.94,1.52-4.14,3.58-.23,2.37,1.64,4.38,3.96,4.38h15.46c1.95,0,3.69,1.42,3.88,3.36.22,2.22-1.53,4.1-3.71,4.1h-21.19c-2.08,0-3.94,1.51-4.14,3.58-.23,2.37,1.64,4.38,3.96,4.38h28.21c2.06,0,3.73,1.68,3.73,3.73s-1.67,3.73-3.73,3.73h-18.72c-2.33,0-4.19,2.01-3.96,4.38.2,2.07,2.06,3.58,4.14,3.58h24.03c.02.65.05,1.3.05,1.96l-.16,2.56c-.05,1,.52,2.92,1.77,2.88.51-.02.85-.89,1.14-1.26.73-.94,1.62-2,2.85-1.01.61.49,1.55,2.95,2.23.93.38-1.11.53-2.4.56-3.72h0v-.05c0-.14.01-.27.01-.41,0-.12-.02-.24-.03-.36Z"/><path class="d" d="M81.23,71.74c2.19,0,3.98-1.79,3.98-3.98s-1.79-3.98-3.98-3.98-3.98,1.79-3.98,3.98,1.79,3.98,3.98,3.98Z"/><path class="f" d="M38.04,63.78c2.08,0,3.94-1.51,4.14-3.58.23-2.37-1.64-4.38-3.96-4.38h-15.46c-1.95,0-3.69-1.42-3.88-3.36-.22-2.22,1.53-4.1,3.71-4.1h21.18c2.08,0,3.94-1.52,4.14-3.58.23-2.37-1.64-4.38-3.96-4.38H15.75c-2.06,0-3.73-1.68-3.73-3.73s1.67-3.73,3.73-3.73h18.72c2.33,0,4.19-2.01,3.96-4.38-.2-2.07-2.06-3.58-4.14-3.58H10.25c-.03-.72-.06-1.44-.06-2.17,0-3.71.35-7.4,1.05-11.01.16-.23.35-.43.56-.61.68-.62,3.84-2.95,3.99-3.59.07-.3.05-.68-.15-.92-.7-.84-3.66-.03-4.51-.95-.52-.56-.52-2.16-.7-2.98-.24-1.08-.54-1.84-1.33-2.52-.19-.16-.44-.24-.69-.24s-.51.08-.7.25c-1.15,1.03-1.58,2.53-2.03,3.98-.95-.27-1.65-1.04-2.56-1.39-.61-.24-1.87-.54-2.44-.21-2.07,1.17,1.19,4.66,1.79,5.98.25.56.37,1.31.44,2.12l-.04.26c-.7,3.88-1.06,7.84-1.06,11.82,0,34.81,26.98,63.43,61.12,66.07v-8.43c-13.88-1.23-26.37-7.37-35.7-16.67h10.81Z"/><path class="f" d="M50.99,59.8c0,2.19,1.79,3.98,3.98,3.98s3.98-1.79,3.98-3.98-1.79-3.98-3.98-3.98-3.98,1.79-3.98,3.98Z"/><path class="f" d="M73.04,120.95c.12-.54.19-1.1.19-1.67v-16.9c13.88,1.23,26.36,7.36,35.69,16.67h-10.8c-2.08,0-3.94,1.51-4.14,3.58-.23,2.37,1.64,4.38,3.96,4.38h15.46c1.95,0,3.69,1.42,3.88,3.36.22,2.22-1.53,4.1-3.71,4.1h-21.19c-2.08,0-3.94,1.51-4.14,3.58-.23,2.37,1.64,4.38,3.96,4.38h28.21c2.06,0,3.73,1.68,3.73,3.73s-1.67,3.73-3.73,3.73h-18.72c-2.33,0-4.19,2.01-3.96,4.38.2,2.07,2.06,3.58,4.14,3.58h24.03c.02.65.05,1.3.05,1.96l-.16,2.56c-.05,1,.52,2.92,1.77,2.88.51-.02.85-.89,1.14-1.26.73-.94,1.62-2,2.85-1.01.61.49,1.55,2.95,2.23.93.38-1.11.53-2.4.56-3.72h0v-.05c0-.14.01-.27.01-.41,0-.12-.02-.24-.03-.36-.34-34.51-27.18-62.8-61.11-65.42h-.19v27.01Z"/></g></svg>