<svg width="260" height="75" viewBox="0 0 260 75" fill="none" xmlns="http://www.w3.org/2000/svg">
<path d="M23.6835 14.9091C22.6269 14.9091 21.7266 15.6776 21.562 16.7221L18.0354 39.0834L14.7952 59.6312L14.793 59.6484L14.7969 59.6312L18.037 39.0834C18.2016 38.039 19.1009 37.2705 20.158 37.2705H30.4891C40.8861 37.2705 49.7113 29.6846 51.3225 19.4054C51.443 18.6384 51.5109 17.864 51.5258 17.0877V17.0866H51.5247C48.8824 15.7003 45.7796 14.9086 42.3799 14.9086L23.6835 14.9091Z" fill="#001C64"/>
<path d="M51.5258 17.0867C51.5114 17.8502 51.4449 18.6242 51.3224 19.4055C49.7106 29.6847 40.886 37.2705 30.489 37.2705H20.1579C19.1013 37.2705 18.2021 38.039 18.0369 39.0834L14.7968 59.6313L12.7633 72.5229C12.7242 72.7719 12.7395 73.0265 12.8081 73.269C12.8767 73.5116 12.9971 73.7364 13.1609 73.928C13.3247 74.1196 13.5281 74.2734 13.757 74.379C13.9859 74.4845 14.235 74.5391 14.4871 74.5392H25.7008C26.7585 74.5392 27.6577 73.7707 27.8228 72.7263L30.7766 53.9914C30.8565 53.486 31.114 53.0257 31.5029 52.6932C31.8917 52.3607 32.3865 52.1778 32.8981 52.1773H39.5014C49.8985 52.1773 58.7225 44.592 60.3337 34.3134C61.4779 27.0162 57.8061 20.3784 51.5258 17.0867Z" fill="#0070E0"/>
<path d="M10.9425 0C10.4309 0.000446218 9.93616 0.183362 9.5473 0.515868C9.15843 0.848375 8.90091 1.30867 8.821 1.81404L0.0213254 57.6138C-0.0179827 57.8629 -0.00281811 58.1175 0.0657278 58.3602C0.134274 58.6029 0.254592 58.8279 0.41841 59.0196C0.582227 59.2113 0.785627 59.3653 1.01465 59.4708C1.24366 59.5764 1.49285 59.6311 1.74503 59.6311H14.7944L18.0346 39.0833L21.5612 16.722C21.7257 15.6775 22.6261 14.909 23.6827 14.909H42.3785C45.7788 14.909 48.8816 15.7014 51.5245 17.086C51.7045 7.72768 43.9825 0.000557997 33.365 0.000557997L10.9425 0Z" fill="#003087"/>
<path d="M89.536 13.4436C89.2871 13.4442 89.0465 13.5334 88.8574 13.6952C88.6683 13.857 88.543 14.0808 88.5039 14.3266L82.5528 52.0699C82.5311 52.2077 82.5395 52.3486 82.5773 52.4829C82.6152 52.6171 82.6817 52.7416 82.7723 52.8477C82.8629 52.9538 82.9753 53.0391 83.1019 53.0976C83.2286 53.1562 83.3664 53.1866 83.5059 53.1868H90.565C90.8137 53.1862 91.0541 53.0973 91.2432 52.9358C91.4322 52.7743 91.5577 52.5508 91.5971 52.3052L93.344 41.2212C93.3834 40.9757 93.5089 40.7522 93.6979 40.5907C93.887 40.4291 94.1274 40.3402 94.376 40.3396H100.792C108.291 40.3396 114.655 34.8695 115.818 27.4556C116.99 19.9804 111.152 13.4591 102.873 13.4436H89.536ZM96.3974 21.8697H101.532C105.759 21.8697 107.134 24.3631 106.699 27.1214C106.264 29.8856 104.128 31.9217 100.038 31.9217H94.812L96.3974 21.8697ZM130.175 24.4369C128.393 24.4435 126.341 24.808 124.039 25.767C118.758 27.9676 116.221 32.5177 115.145 35.8345C115.145 35.8345 111.717 45.9536 119.462 51.5137C119.462 51.5137 126.644 56.8642 134.731 51.1824L134.592 52.0699C134.571 52.2077 134.579 52.3486 134.617 52.4829C134.655 52.6171 134.721 52.7416 134.812 52.8477C134.902 52.9538 135.015 53.0391 135.141 53.0976C135.268 53.1562 135.406 53.1866 135.545 53.1868H142.246C142.759 53.1868 143.196 52.812 143.277 52.3037L147.353 26.4567C147.375 26.3189 147.366 26.1781 147.329 26.0438C147.291 25.9095 147.224 25.785 147.134 25.6789C147.043 25.5728 146.931 25.4875 146.804 25.429C146.677 25.3705 146.539 25.3401 146.4 25.3399H139.699C139.184 25.3399 138.748 25.7146 138.667 26.2214L138.449 27.612H138.448C138.448 27.612 135.522 24.417 130.174 24.4369H130.175ZM130.394 32.6011C131.163 32.6011 131.867 32.7058 132.498 32.9095C135.388 33.8382 137.029 36.6135 136.554 39.6248C135.969 43.3325 132.929 46.0635 129.031 46.0635C128.261 46.0635 127.556 45.958 126.925 45.7551C124.035 44.8264 122.385 42.0496 122.86 39.0383C123.445 35.3321 126.496 32.6011 130.394 32.6011Z" fill="#003087"/>
<path d="M186.024 13.4436C185.511 13.4436 185.074 13.8184 184.994 14.3266L179.041 52.0699C179.019 52.2078 179.028 52.3488 179.066 52.4832C179.104 52.6176 179.17 52.7421 179.261 52.8483C179.352 52.9544 179.464 53.0396 179.591 53.0981C179.718 53.1565 179.856 53.1868 179.996 53.1868H187.055C187.568 53.1868 188.005 52.8128 188.085 52.3052L189.834 41.2212C189.873 40.9757 189.999 40.7522 190.188 40.5907C190.377 40.4291 190.617 40.3402 190.866 40.3396H197.282C204.78 40.3396 211.145 34.8695 212.307 27.4556C213.48 19.9804 207.64 13.4591 199.361 13.4436H186.024ZM192.886 21.8697H198.02C202.247 21.8697 203.624 24.3631 203.189 27.1214C202.753 29.8856 200.617 31.9217 196.526 31.9217H191.3L192.886 21.8697ZM226.665 24.4369C224.882 24.4435 222.831 24.808 220.528 25.767C215.248 27.9676 212.709 32.5177 211.633 35.8345C211.633 35.8345 208.206 45.9536 215.952 51.5137C215.952 51.5137 223.134 56.8642 231.221 51.1824L231.081 52.0699C231.059 52.2078 231.067 52.3488 231.105 52.4832C231.143 52.6176 231.21 52.7421 231.301 52.8483C231.391 52.9544 231.504 53.0396 231.631 53.0981C231.758 53.1565 231.895 53.1868 232.035 53.1868H238.734C238.983 53.1862 239.224 53.097 239.413 52.9352C239.602 52.7734 239.727 52.5495 239.766 52.3037L243.843 26.4567C243.865 26.3188 243.856 26.1778 243.818 26.0434C243.78 25.9091 243.714 25.7845 243.623 25.6784C243.532 25.5722 243.42 25.487 243.293 25.4286C243.166 25.3701 243.028 25.3399 242.888 25.3399H236.189C235.674 25.3399 235.238 25.7146 235.157 26.2214L234.938 27.612C234.938 27.612 232.012 24.417 226.665 24.4369ZM226.882 32.6011C227.652 32.6011 228.357 32.7058 228.988 32.9095C231.878 33.8382 233.517 36.6135 233.043 39.6248C232.458 43.3325 229.418 46.0635 225.52 46.0635C224.75 46.0635 224.047 45.958 223.416 45.7551C220.525 44.8264 218.875 42.0496 219.351 39.0383C219.935 35.3321 222.984 32.6011 226.882 32.6011Z" fill="#0070E0"/>
<path d="M150.529 25.3397C150.406 25.3395 150.284 25.3686 150.174 25.4245C150.064 25.4804 149.969 25.5616 149.896 25.6614C149.823 25.7612 149.775 25.8768 149.756 25.9987C149.736 26.1207 149.746 26.2455 149.784 26.3629L157.129 49.158L150.487 59.902C150.165 60.4236 150.539 61.0956 151.153 61.0956H159.001C159.226 61.0957 159.447 61.0379 159.643 60.9277C159.838 60.8174 160.002 60.6585 160.119 60.4663L180.632 26.5267C180.948 26.0051 180.573 25.3383 179.963 25.3383H172.115C171.888 25.3382 171.665 25.3971 171.468 25.5092C171.271 25.6214 171.107 25.7829 170.991 25.9778L162.916 39.6129L158.817 26.0797C158.682 25.6392 158.277 25.339 157.816 25.339L150.529 25.3397Z" fill="#003087"/>
<path d="M251.46 13.4436C250.946 13.4436 250.51 13.8184 250.429 14.3266L244.477 52.0699C244.455 52.2078 244.463 52.3488 244.501 52.4832C244.539 52.6176 244.606 52.7421 244.697 52.8483C244.787 52.9544 244.9 53.0396 245.027 53.0981C245.154 53.1565 245.292 53.1868 245.431 53.1868H252.489C253.002 53.1868 253.439 52.8128 253.519 52.3052L259.473 14.5605C259.495 14.4224 259.487 14.2813 259.449 14.1468C259.411 14.0124 259.344 13.8877 259.253 13.7816C259.162 13.6754 259.049 13.5902 258.922 13.5318C258.795 13.4735 258.657 13.4434 258.517 13.4436H251.46Z" fill="#0070E0"/>
</svg>
