<?xml version="1.0" encoding="UTF-8"?>
<svg id="Layer_1" xmlns="http://www.w3.org/2000/svg" version="1.1" xmlns:xlink="http://www.w3.org/1999/xlink" viewBox="0 0 1499.4 644.5">
  <!-- Generator: Adobe Illustrator 29.4.0, SVG Export Plug-In . SVG Version: 2.1.0 Build 152)  -->
  <defs>
    <style>
      .st0 {
        fill: #2d8a42;
      }

      .st1 {
        fill: #4c1229;
      }

      .st2 {
        fill: #c02026;
      }

      .st3 {
        fill: #7f7f7f;
      }

      .st4 {
        fill: url(#linear-gradient);
      }

      .st5 {
        fill: #93c01f;
      }
    </style>
    <linearGradient id="linear-gradient" x1="473.3" y1="514.8" x2="557.4" y2="514.8" gradientUnits="userSpaceOnUse">
      <stop offset="0" stop-color="#c02026"/>
      <stop offset="1" stop-color="#ceab33"/>
    </linearGradient>
  </defs>
  <path d="M28.1,63v193.1c0,36.9,29.9,66.7,66.7,66.7h186.1c36.9,0,66.7-29.9,66.7-66.7V63h-62.6v190.6c0,9.4-7.6,17-17,17H107.4c-9.4,0-17-7.6-17-17V63H28.1Z"/>
  <path d="M376.8,64.1v258.8h63.7v-90.5h167c33.9,0,61.3-27.5,61.3-61.3v-45.5c0-33.9-27.5-61.3-61.3-61.3h-230.7ZM606.7,168.3c0,7-5.7,12.7-12.7,12.7h-153.5v-66.2h153.5c7,0,12.7,5.7,12.7,12.7v40.8Z"/>
  <path d="M110.4,386.1v202.4h38.4v-74h143.3c26.9,0,48.7-21.8,48.7-48.7v-31.1c0-26.9-21.8-48.7-48.7-48.7H110.4ZM303.3,465.7c0,9.9-8,17.9-17.9,17.9h-136.7v-67h136.7c9.9,0,17.9,8,17.9,17.9v31.2Z"/>
  <path d="M680.5,64.1v258.8h63.7v-108.5h110.4l56.9,108.5h66.9l-57.2-109c30.5-3.9,54-29.6,54-60.8v-27.6c0-33.9-27.8-61.3-62-61.3h-232.7ZM744.2,114.8h157.3c7.1,0,12.8,5.7,12.8,12.7v22.9c0,7-5.7,12.7-12.8,12.7h-157.3v-48.2Z"/>
  <path d="M883.4,450.3v-15.5c0-26.9-21.8-48.7-48.7-48.7h-184.7v202.4h38.4v-89.6h104.8l46.6,89.6h41.5l-46.6-89.6h0c26.9,0,48.7-21.8,48.7-48.7ZM688.4,416.7h139.7c9.9,0,17.9,8,17.9,17.9v15.6c0,9.9-8,17.9-17.9,17.9h-139.7v-51.3Z"/>
  <rect x="33.3" y="386.1" width="38.4" height="202.4"/>
  <polygon points="906.9 386.1 906.9 416.7 1011.7 416.7 1011.7 588.6 1050.1 588.6 1050.1 416.7 1154.9 416.7 1154.9 386.1 906.9 386.1"/>
  <path class="st5" d="M559.6,497.7v-51.2c0-15.5-12.5-28-28-28h-85.6c-15.5,0-28,12.5-28,28v83.1c0,15.5,12.5,28,28,28h113.6v-19.3h-112.7c-5,0-9.1-4.1-9.1-9.1v-31.5h121.8ZM437.8,447.1c0-5,4.1-9.1,9.1-9.1h83.9c5,0,9.1,4.1,9.1,9.1v31.5h-102.1v-31.5Z"/>
  <image width="253" height="8" transform="translate(360.6 615.9)" xlink:href="UPR-IPERT logo-1.png"/>
  <g>
    <path class="st1" d="M416.7,559.9c-48.5-48.5-59.6-117.3-27.5-159.3-19.6,23.1-31.4,53-31.4,85.5,0,73.1,59.5,132.5,132.5,132.5s60.7-11.1,83.5-29.7c-42.1,30.1-109.4,18.6-157.2-29.1Z"/>
    <g>
      <path class="st0" d="M490.3,353.6c-32.7,0-62.6,11.9-85.8,31.6,38.7-29.7,100.3-22.6,147.7,16.7,8.4,6.2,15.9,13.7,22.2,22.1,38.9,46.6,46.4,107,18.5,145.9,18.7-22.9,29.9-52,29.9-83.8,0-73.1-59.5-132.5-132.5-132.5Z"/>
      <path class="st2" d="M490.3,381.6c23.2,0,44.6,7.6,61.9,20.3-47.4-39.4-109-46.4-147.7-16.7-5.5,4.7-10.7,9.9-15.4,15.4-29.9,39.2-22.3,101.7,18.4,149.4-13.6-17.7-21.8-39.8-21.8-63.8,0-57.7,46.8-104.5,104.5-104.5Z"/>
      <path class="st4" d="M574.4,424.1c12.8,17.4,20.4,38.8,20.4,62.1,0,57.7-46.8,104.5-104.5,104.5s-46.3-8.2-64-21.9c46.8,40.1,108.2,48.3,147.5,20.2,7-5.7,13.4-12.1,19.1-19,27.9-38.9,20.3-99.2-18.5-145.9Z"/>
    </g>
  </g>
  <rect class="st3" width="1072.6" height="20.4"/>
  <rect class="st3" y="624.1" width="1499.4" height="20.4"/>
</svg>